<svg width="24" height="24" viewBox="0 0 24 24" xmlns="http://www.w3.org/2000/svg">
<path d="M12.375 1.92188C14.9484 1.92188 17.4166 2.94398 19.2363 4.76367C21.056 6.58336 22.0781 9.05157 22.0781 11.625C22.0781 14.1984 21.056 16.6666 19.2363 18.4863C17.4166 20.306 14.9484 21.3281 12.375 21.3281H4.5C4.01515 21.3281 3.54987 21.1358 3.20703 20.793C2.86419 20.4501 2.67188 19.9848 2.67188 19.5V11.625L2.68457 11.1445C2.80578 8.74697 3.81108 6.47212 5.5166 4.7666C7.22212 3.06108 9.49697 2.05578 11.8945 1.93457L12.375 1.92188ZM13.8477 4.22266C12.3838 3.93149 10.8662 4.08128 9.4873 4.65234C8.10829 5.22355 6.92887 6.19154 6.09961 7.43262C5.27056 8.67359 4.82812 10.1326 4.82812 11.625V19.1719H12.375C13.8674 19.1719 15.3264 18.7294 16.5674 17.9004C17.8085 17.0711 18.7765 15.8917 19.3477 14.5127C19.9187 13.1338 20.0685 11.6162 19.7773 10.1523C19.4861 8.68848 18.7673 7.34348 17.7119 6.28809C16.6565 5.23269 15.3115 4.51388 13.8477 4.22266ZM10.125 10.5469C10.5104 10.5469 10.8798 10.7001 11.1523 10.9727C11.4249 11.2452 11.5781 11.6146 11.5781 12C11.5781 12.2874 11.4927 12.5687 11.333 12.8076C11.1733 13.0464 10.9461 13.2328 10.6807 13.3428C10.4153 13.4526 10.1235 13.4808 9.8418 13.4248C9.55992 13.3687 9.30088 13.2306 9.09766 13.0273C8.89443 12.8241 8.75626 12.5651 8.7002 12.2832C8.64421 12.0015 8.67242 11.7097 8.78223 11.4443C8.89216 11.1789 9.07857 10.9517 9.31738 10.792C9.55635 10.6323 9.8376 10.5469 10.125 10.5469ZM14.625 10.5469C15.0104 10.5469 15.3798 10.7001 15.6523 10.9727C15.9249 11.2452 16.0781 11.6146 16.0781 12C16.0781 12.2874 15.9927 12.5687 15.833 12.8076C15.6733 13.0464 15.4461 13.2328 15.1807 13.3428C14.9153 13.4526 14.6235 13.4808 14.3418 13.4248C14.0599 13.3687 13.8009 13.2306 13.5977 13.0273C13.3944 12.8241 13.2563 12.5651 13.2002 12.2832C13.1442 12.0015 13.1724 11.7097 13.2822 11.4443C13.3922 11.1789 13.5786 10.9517 13.8174 10.792C14.0563 10.6323 14.3376 10.5469 14.625 10.5469Z" stroke-width="0.09375"/>
</svg>
