<svg xmlns="http://www.w3.org/2000/svg" width="40" height="40" viewBox="0 0 492 492"><path fill="#f5ebe3" d="M233.902 164.79c6.315 3.02 11.698 3.495 18.399 1.538 2.622-1.005 5.147-2.156 7.699-3.328a728 728 0 0 1 8.563-3.625l2.11-.912c17.644-7.432 39.423-6.747 57.327-.463l3.176 1.098C352.913 167.415 374.002 184.677 384 206v2h2c11.112 19.05 13.615 39.362 13 61-2.813-3.461-5.454-7.008-8.062-10.625C377.382 240.39 356.789 224.788 334 221c-11.938-1.186-24.141-1.725-34 6-7.103 6.104-10.033 12.254-11.344 21.398-.594 9.18 3.07 18.23 8.656 25.415 7.41 7.589 18.234 11.123 27.778 15.286 16.964 7.414 32.713 18.189 40.726 35.518 2.213 6.323 3.31 11.907 1.184 18.383-3.463 3.994-8.177 6.42-12.81 8.828-2.412 1.29-4.722 2.707-7.05 4.145C312.32 376.97 271.815 382.069 232 381l-4.633-.062c-32.511-1.105-68.606-11.979-95.039-31.262C130 348 130 348 127.734 346.856c-1.984-1.043-1.984-1.043-4.734-3.856-1.596-8.125-.06-15.867 4-23 2.155-3.168 4.52-6.083 7-9l1.398-1.836c9.727-12.425 25.707-18.9 40.102-24.289 9.847-3.843 18.042-9.682 23.5-18.875 2.896-8.11 3.659-18.236.813-26.5-4.705-9.085-9.99-13.646-19.56-17.648-17.855-4.673-35.708 1.61-51.253 10.148-14.993 9.23-26.874 22.066-36 37h-1c-.385-23.324 1.573-47.38 16-67h2c.353-1.328.683-2.663 1-4 12.608-20.89 35.388-36.211 58.59-42.633 22.568-5.416 44.047-.66 64.312 9.424"/><path fill="#a7877c" d="M242 53h6a764 764 0 0 1-.437 4.375l-.247 2.46C247 62 247 62 246 64h-2l-1 2.5-1 2.5h-2a126 126 0 0 0-1 5c-.94 3.02-1.965 6.01-3 9l2.09-1.207C251.83 74.046 263.489 72.818 279 73c.2 2.375.2 2.375 0 5-3.187 2-3.187 2-5.117 2.965-3.901 2.145-6.453 5.39-8.883 9.035h-2l1 3c3.013 1.507 6.25 1.486 9.563 1.813 8.376.903 16.412 2.594 24.561 4.702 1.687.436 3.379.854 5.071 1.27 10.29 2.623 19.37 7.436 28.805 12.215l2.355 1.055L336 115v2c1.65.707 3.32 1.366 5 2 3.634 2.008 6.948 4.372 10.3 6.809 1.7 1.191 1.7 1.191 4.387 2.754 2.51 1.56 4.375 3.212 6.313 5.437v2c1.32.691 2.657 1.353 4 2 4.608 3.637 9.038 7.667 13 12v2l3 1c1.605 2.215 1.605 2.215 3.188 4.938l1.605 2.714C388 163 388 163 388 165h2v3h2c3 5.308 3 5.308 3 8h2c4.74 7.062 7.887 15.127 11 23l1.105 2.586c.854 2.303 1.24 4.23 1.457 6.664C411 212 411 212 412 213c4.052 17.194 7.12 41.897 2 59h-3c-.304 1.89-.588 3.785-.758 5.691-.376 3.584-1.212 6.855-2.242 10.309l-2 1c-.746 2.11-.746 2.11-1.437 4.75-1.087 3.856-2.352 6.885-4.563 10.25q-1.01 2.495-2 5l-2 3h-2a656 656 0 0 0-2 5c-6.47 9.14-14.495 16.771-23 24h-1a238 238 0 0 1-.687-5.75c-2.275-15.182-11.48-26.142-23.387-35.309-7.82-5.189-16.488-9.015-25.176-12.503-12.98-5.309-23.148-11.596-28.75-24.875-3.116-9.053-3.238-17.816 1-26.563 5.212-7.726 11.908-13.586 21-16 11.896-1.462 23.961-.879 35 4l1.864.813C369.748 234.096 385.718 247.771 398 267c.573-19.513-2.406-35.034-10.2-52.964-.8-2.036-.8-2.036-1.284-4.299L386 208h-2a133 133 0 0 1-3.375-6.187c-4.39-8.086-10.094-14.397-16.625-20.813l-2.055-2.05c-17.16-16.02-39.588-24.33-62.82-24.262l-3.316-.05c-11.307-.006-21.022 2.594-31.184 7.424C248.553 169.55 248.553 169.55 239 168a93 93 0 0 1-6.937-3.125c-19.863-9.855-42.191-14.08-64.063-8.187-2.018.722-4.02 1.49-6 2.312-1.036.385-2.073.77-3.14 1.168-10.402 4.038-19.297 9.734-27.86 16.832l-2.246 1.836c-6.805 5.778-13.431 12.418-17.387 20.5L110 202h-2a79 79 0 0 0-2 5 906 906 0 0 1-2.812 5.938C94.539 231.672 92.647 247.642 93 268l1.11-1.95c12.655-21.122 33.152-37.856 56.995-44.65 12.692-3.083 26.446-3.213 37.895 3.6 7.187 4.578 11.081 10.839 13 19 1.068 13.083-.509 20.78-8.902 30.742-5.683 6.116-12.511 9.01-20.098 12.258-19.616 8.41-38.284 17.253-47.5 38.063-1.859 5.195-2.291 10.452-2.5 15.937-6.219-2.871-11.466-7.933-16-13a69 69 0 0 1-1-4l-3-1c-5.175-6.4-9.46-13.566-13.562-20.687l-1.05-1.818C86 296.255 86 296.255 86 294l-3-1c-1.098-2.941-1.098-2.941-2.062-6.562-.58-2.165-1.21-4.319-1.938-6.438h-2a93 93 0 0 1-1.062-7.562l-.473-4.254-.2-1.92a141 141 0 0 0-.784-5.55c-.77-5.95-.667-11.91-.666-17.902-.002-2.24-.02-4.48-.04-6.72q-.005-2.169-.005-4.338l-.013-3.928c.27-4.257.959-7.762 2.243-11.826h2c.75-2.505 1.372-4.952 1.938-7.5 2.656-11.25 2.656-11.25 5.062-16.5h2c.563-2.312.563-2.312 1-5l1-3h2l-.187-2.687c.208-3.678.97-5.413 3.187-8.313h2l.5-2.5.5-2.5h2l.688-2.5c1.554-4.145 3.768-6.563 6.753-9.766C108 154 108 154 109 152l3.25-1.625c3.846-2.1 5.377-4.608 7.508-8.348 3.365-5.492 7.538-8.236 13.242-11.027a281 281 0 0 0 5-5c5.073-4.353 9.77-7.604 16-10 2.756-1.566 5.362-3.241 8-5h4v-2c6.115-3 6.115-3 10-3v-2c2.45-.93 2.45-.93 5.688-1.875 4.571-1.436 7.768-2.81 11.312-6.125l3-1c1.684-1.96 1.684-1.96 3.438-4.375 2.29-3.148 4.422-5.343 7.562-7.625l1.313-2.25c2.32-3.78 5.283-6.904 8.687-9.75h2v-2h2v-2c1.606-1.405 3.293-2.72 5-4l1.832-1.523c4.676-3.782 8.32-5.224 14.168-6.477z"/><path fill="#674c42" d="m347 224 1.864.813c22.608 10.05 43.36 26.583 52.699 50.125 2.816 7.712 4.567 16.38 1.593 24.312-1.031 1.813-1.031 1.813-3.156 4.75-.68 1.661-1.35 3.327-2 5l-2 3h-2a656 656 0 0 0-2 5c-6.47 9.14-14.495 16.771-23 24h-1a238 238 0 0 1-.687-5.75c-2.275-15.182-11.48-26.142-23.387-35.309-7.82-5.189-16.488-9.015-25.176-12.503-12.98-5.309-23.148-11.596-28.75-24.875-3.116-9.053-3.238-17.816 1-26.563 12.678-18.795 36.277-20.717 56-12"/><path fill="#664b41" d="M190.883 226.2c6.163 4.66 9.377 10.398 11.117 17.8 1.068 13.083-.509 20.78-8.902 30.742-5.683 6.116-12.511 9.01-20.098 12.258-19.616 8.41-38.284 17.253-47.5 38.063-1.859 5.195-2.291 10.452-2.5 15.937-6.219-2.871-11.466-7.933-16-13a69 69 0 0 1-1-4l-3-1c-3.317-4.102-6.148-8.566-9-13l-1.198-1.856a268 268 0 0 1-3.365-5.457l-2.003-3.3c-3.176-7.501-1.226-15.553 1.52-22.957 1.915-4.561 1.915-4.561 3.046-6.43h2l.188-2.437c1.205-5.285 4.332-8.505 7.812-12.563l2.008-2.414C112.785 242.383 122.736 233.692 135 228l3.48-1.621c16.963-7.581 35.94-10.665 52.403-.18"/><path fill="#7564c7" d="M36 128h1c.11 1.433.143 2.87.151 4.308l.026 2.893.012 3.216.026 3.355q.025 3.624.045 7.249.033 5.728.077 11.457.088 12.168.163 24.334c.06 9.385.121 18.77.192 28.155.027 3.77.047 7.541.068 11.312l.05 6.916.013 3.197.026 2.92.015 2.538C38 242 38 242 39 245c.108 2.35.156 4.702.174 7.054l.02 2.164q.021 2.325.036 4.65.026 3.683.065 7.365.105 10.47.182 20.938.049 6.405.12 12.81.024 2.439.037 4.878c.012 2.276.036 4.552.063 6.828l.031 3.923c.263 3.281.875 5.441 2.272 8.39l1.5 3.625C45 331 45 331 47 334c.379 1.875.379 1.875.563 4l.23 2.371c.149 1.887.273 3.775.383 5.664l.199 3.027.148 2.848L49 354h3v-2l3 1c.512 1.996.512 1.996.688 4.438l.199 2.433A78 78 0 0 1 56 364c2 2 2 2 4 2.75 2.93 1.831 3.185 3.991 4 7.25v2l2 .5 2 .5v2l2 .938L72 381v3c1.75.484 1.75.484 4 .75 2.219.445 2.219.445 4 1.25.5 3.625.5 3.625 0 7h4c2.05 2.226 3.646 4.293 5 7h4l3 1 1 3c3.777 3.613 7.63 3.662 12.637 4.18L112 409c.61 2.504.61 2.504 1 5a309 309 0 0 0 7 2v4h2l2 3 3 1a309 309 0 0 1-2 7l2 2a132 132 0 0 1-1 7 288 288 0 0 0-.387 8.086l-.077 2.25q-.078 2.331-.149 4.664c-.075 2.39-.165 4.779-.256 7.168q-.073 2.271-.143 4.543l-.088 2.171c-.044 1.706.018 3.414.1 5.118l2 1-1 5 11 1-1 6c2.938-.687 2.938-.687 6-2l.375-2.625L143 480h8c1-2.5 1-2.5 1-5l3 1 1-4 4 1-.375-2.375L160 468c2.75-1.187 2.75-1.187 6-2l2.125-1.062c1.875-.938 1.875-.938 4-1.188L174 463l.75-2.937L176 457c1.898-.7 1.898-.7 4.125-1.125L184 455v-4l1-3 5 2v-2h2v-4l2.875.25L198 444l.938-1.875L200 440l3.563-.937L207 438a75 75 0 0 0 1-5c2.5.313 2.5.313 5 1l1-2h5c2.75-.687 2.75-.687 5-2 .625-2.562.625-2.562 1-5 4.104-1.368 6.752-.766 11 0v2h4v-2c5.055 0 10.11.007 15.164.044q14.97.11 29.941.163c5.524.021 11.048.05 16.572.095q8.019.063 16.038.078 3.048.01 6.096.043c22.378.23 22.378.23 28.189-4.423v-3c3.54-.944 5.493-1.169 9 0 3.625.688 3.625.688 7 1l1-2c2.373-.593 4.724-.972 7.156-1.223 6.087-.882 6.087-.882 8.43-3.652 1.289-2.187 1.289-2.187 2.344-4.348C388 406 388 406 391 405l2-3c2.625-.687 2.625-.687 5-1v3l.75-1.937C400 400 400 400 401.938 399.438c.68-.145 1.36-.29 2.062-.438 2.418-1.97 2.985-2.955 4-6l2.938-1.437c3.062-1.563 3.062-1.563 4-3.5 1.274-2.474 2.186-2.776 4.625-4 3.315-1.752 3.315-1.752 4.437-4.625 0-2.438 0-2.438-1-5.438 2.076-.553 3.844-1 6-1 .781-1.969.781-1.969 1.5-4.5s.719-2.531 1.5-4.5h2l.313-2.625C435 358 435 358 437.5 355.063c2.865-3.51 2.973-5.671 3.5-10.063h3l3-1c.477-1.89.477-1.89.625-4.25.26-3.324.639-6.49 1.375-9.75h-1c-.176-3.873-.258-6.739 2-10h2c.318-2.86.476-5.627.563-8.5l.109-2.942c.124-3.519.227-7.038.328-10.558l.12-4.065c.498-16.99.857-33.98 1.13-50.974l.064-3.88q.157-9.598.293-19.198l.112-7.04.04-3.327.052-3.01.038-2.65L455 202h1q.106 21.438.155 42.876c.016 6.638.037 13.276.071 19.915.033 6.419.05 12.838.059 19.257q.008 3.654.032 7.307c.109 16.89-.256 33.594-5.942 49.707l-.758 2.208c-3.008 8.363-7.19 16.049-11.617 23.73l-1.64 2.98c-5.129 8.768-12.258 15.846-19.36 23.02l-2.684 2.758c-26.743 25.95-61.907 33.54-97.884 33.516-3.202 0-6.404.013-9.606.03q-13.638.067-27.276.077c-5.595.005-11.19.03-16.784.065q-3.167.015-6.335.007c-15.625-.038-29.978.681-43.431 9.547l-2.648 1.676c-7.433 4.812-14.478 10.097-21.532 15.441a491 491 0 0 1-9.507 7.008c-3.995 2.887-7.916 5.858-11.813 8.875-24.57 19.013-24.57 19.013-36.5 18-4.142-1.53-6.03-3.939-8.153-7.778-1.723-4.52-1.366-9.295-1.316-14.07l-.021-3.424c-.022-3.597-.02-7.193-.01-10.79.012-4.742-.002-9.482-.031-14.223l.034-3.287c-.041-6.152-.428-9.724-4.503-14.428l-1.344-1.672c-2.499-2.004-5.266-3.21-8.156-4.578C87.832 406.171 69.75 391.638 58 373l-1.727-2.535c-15.74-23.542-20.447-48.637-20.387-76.49v-5.444q.001-7.35.013-14.7c.006-5.13.006-10.26.008-15.39q.005-14.556.021-29.112.016-16.578.022-33.156.016-34.086.05-68.173"/><path fill="#c2a8e9" d="m171.124 5.71 5.585-.02a4639 4639 0 0 1 15.025-.025q4.712-.001 9.424-.01 16.491-.028 32.982-.026c10.193.002 20.385-.02 30.578-.051q13.198-.038 26.397-.036c5.234 0 10.468-.005 15.702-.026q7.392-.029 14.784-.005 2.688.004 5.374-.015c16.393-.104 32.337 2.225 47.775 7.941l2.414.83c4.766 1.708 8.878 3.835 13.108 6.611 2.538 1.648 5.223 2.872 7.966 4.13 1.945 1.095 3.214 2.397 4.762 3.992l2.687 1.562L408 32v2a141 141 0 0 0 4 2c4.206 3.335 8.433 6.987 12 11v2h3l.375 3.375L428 56c2.437 1.25 2.437 1.25 5 2 2 3 2 3 2 6h2c1.962 2.815 3.426 5.956 5 9l1.52 2.883C451.233 90.84 457.118 107.943 456 125h-2c-1.121-2.243-1.233-3.824-1.438-6.313-.481-4.682-1.145-8.27-4.562-11.687-.344-2.574-.344-2.574-.5-5.688-.325-4.74-.785-8.873-2.5-13.312h-2q-.509-3.498-1-7l-2-1a76 76 0 0 1-1-5l-1-3-2.5.125L433 72c-.688-2.188-.688-2.188-1-5-.938-2.813-.938-2.813-2-5h-2v-3l-2.798.016q-5.141.026-10.282.039-2.224.008-4.45.02-3.196.018-6.396.023l-3.888.016C397 59 397 59 394 58c-.285-3.125-.285-3.125-.063-7l.153-3.875L395 44c2.941-1 2.941-1 6-1l2 1 .312-1.938L404 40l3-1c0-2.438 0-2.438-1-5-2.063-.938-2.063-.938-5-2a100 100 0 0 1-4-2.938c-3.779-2.908-7.246-5.477-11.813-7-2.585-.861-4.626-1.786-7-3.062-6.092-3.122-12.346-4.35-19.187-4v-2h-4v-2c-2.922-.379-2.922-.379-6.75-.563-6.91-.348-6.91-.348-9.195-.946-2.209-.528-4.12-.605-6.388-.589l-2.595.01-2.81.025-6.053.026-3.22.018c-15.89.09-31.757.062-47.64-.466a649 649 0 0 0-42.71.001c-12.143.392-24.275.52-36.424.484l-2.21-.006c-7.366-.019-14.733-.049-22.1-.104q-3.142-.022-6.285-.033-3.897-.016-7.796-.058l-3.486-.01-3.064-.023L144 9l-1 2c-1.75.527-1.75.527-4 .937-4.007.81-7.752 1.932-11.605 3.282-2.67.87-5.359 1.54-8.083 2.218-4.54 1.194-7.542 2.83-11.312 5.563h-3a180 180 0 0 0-4 4 113 113 0 0 1-5 3q-2.07 1.239-4.125 2.5l-2.008 1.219C88.005 34.997 86.567 36.38 85 38l-2.625 2C80 42 80 42 79 45h-2v2l-2.375 1.375C71.727 50.169 71.428 51.055 70 54l-2.5 1.875C64.52 58.408 64.188 60.357 63 64a89 89 0 0 1-4 2c-3.105 3.979-5.094 8.228-7.059 12.836-.781 1.797-1.662 3.55-2.566 5.289-3.2 6.69-3.639 12.597-3.375 19.875h-2c-4.488 6.57-4.617 13.754-4.688 21.437l-.082 3.597q-.088 3.876-.153 7.753c-.119 6.885-.318 13.768-.514 20.651-.063 2.297-.117 4.595-.171 6.892l-.11 4.217-.093 3.776L38 175h-1a75 75 0 0 1-.253-4.763l-.09-3.16-.079-3.475-.084-3.57q-.085-3.771-.161-7.542c-.081-3.786-.185-7.571-.29-11.357-.312-13.408-.064-26.039 2.957-39.133l.637-2.822c.517-2.107 1.095-4.17 1.738-6.24l.634-2.113c1.475-4.706 3.316-8.914 5.975-13.063C49 76 49 76 49.516 73.77L50 72h2a664 664 0 0 0 2-6c5.651-9.93 13.28-17.756 21.51-25.567 1.294-1.245 2.543-2.536 3.783-3.835C81 35 81 35 83 35v-2c3.689-3.517 5.89-5.249 11-6v-2c2.742-1.91 5.479-3.202 8.562-4.5C106 19 106 19 107.773 17.562c4.98-3.493 11.443-4.77 17.227-6.562l2.867-.918C141.968 5.86 156.54 5.7 171.124 5.709"/><path fill="#3d2a25" d="M265.64 258.617c8.898 6.688 8.898 6.688 9.829 12.117.061 5.936-.138 10.624-3.715 15.516-7.257 7.24-16.366 10.162-26.379 10.188-8.908-.022-16.661-1.315-23.59-7.375-4.608-4.976-7.025-9.005-6.847-15.875.78-5.963 3.448-9.454 8.062-13.188 12.492-7.702 29.709-9.302 42.64-1.383"/><path fill="#8a74c9" d="M400 181c3 1.188 3 1.188 6 3 .375 2.688.375 2.688 0 5h2c.77 2.755 1.418 5.455 2 8.25q.493 2.322 1 4.64l.438 2.095c.608 2.181 1.539 4 2.562 6.015 3.114 12.127 3.3 24.434 3.313 36.875l.01 2.268c.042 16.11-2.189 30.592-8.42 45.525-.816 2.108-1.39 4.136-1.903 6.332l-1 3-1.98.86C402 306 402 306 401.2 308.39l-.512 2.86c-1.21 5.144-2.738 7.464-7.067 10.434C392 323 392 323 390.981 325.039 390 327 390 327 386.874 328.938L384 331a100 100 0 0 0 0 5l-2.25.375c-2.75.625-2.75.625-3.797 2.195L377 340.5c-.96 1.938-.96 1.938-2 3.5l-2.625.5-2.375.5a129 129 0 0 0-2 7h-3c-5.29.392-8.166 1.279-12 5l-1 2-2.375.438c-2.625.562-2.625.562-4.062 2C344 363 344 363 340.938 363.875 338 365 338 365 336.625 367.625L336 370l-3-2c-2.062.188-2.062.188-4 1l-2 3v-3c-4.754 2.57-4.754 2.57-6.25 5.188C319 376 319 376 317.027 376.184q-2.39-.06-4.777-.168c-3.04-.021-5.389.974-8.25 1.984-3.125.498-6.252.938-9.39 1.34C292 380 292 380 290 383c-3.152.04-3.152.04-6.937-.375-6.79-.716-6.79-.716-10.063.375a214 214 0 0 1-7.832.316l-2.365.064q-3.808.097-7.615.183l-2.603.06q-7.657.179-15.315.33-3.06.065-6.12.138c-3.05.07-6.1.12-9.15.159l-2.577.065c-4.95.028-8.05-.763-12.423-3.315-2.875-.687-2.875-.687-5-1v2c-2-.375-2-.375-4-1v-2l-2.062.688c-4.008.426-6.346-.956-9.938-2.688-3.92-1.867-5.804-2.076-10-1-5.929 0-5.929 0-8-1l-.062-3-.938-3c-2.888-.558-5.592-.624-8.531-.602L156 368c-.566-1.945-.566-1.945-1-4-1.996-.828-1.996-.828-4.437-1.25l-2.434-.453C146 362 146 362 144 362l-2-3-2.562-.375L137 358l-.437-2.5L136 353c-5.021-1.674-10.743-1.094-16-1l.14-1.898.11-2.477.14-2.46L120 343c-1.828-1.164-1.828-1.164-4-2-3-2-3-2-3.812-4.187L111 335l-3 .75-3 .25c-.933-2.028-1.255-3.912-1.578-6.117L103 328l-2-1v-3l-3-1c-1.886-3.213-3-5.246-3-9l-2.5-.812L90 312c-.312-3.125-.312-3.125 0-6h-2v-2h-2a126 126 0 0 1-3-7l-2 2c-2.049-4.219-2.212-7.654-2.125-12.312l.055-3.801L79 280c2.95 2.95 3.191 6.381 4.121 10.371.942 2.818 1.821 3.598 3.879 5.629 1.444 2.484 2.83 4.97 4.188 7.5 9.91 18.049 9.91 18.049 14.812 20.5l1 3a174 174 0 0 0 5 4l5 5q1.645 1.357 3.313 2.688L123 341v2l2 .75c2.68 1.117 4.211 2.103 6.438 3.875 26.678 20.533 64.691 31.906 98.03 32.34 1.959.027 3.918.072 5.877.125 44.981 1.16 90.997-7.725 127.475-35.586C365 343 365 343 367 343v-11h1c.24 1.325.416 2.662.563 4l.253 2.25L369 340q2.692-2.4 5.375-4.812l1.54-1.37c2.407-2.17 4.276-4.104 6.085-6.818h2a99 99 0 0 0 2-4c1.3-1.94 2.636-3.855 4-5.75l2.125-2.984L394 312h2c1.92-3.072 2.969-6.597 4.21-9.984 1.083-2.764 2.464-5.363 3.79-8.016l1.063-3.375L406 288h2c.27-1.892.53-3.786.727-5.687.426-3.605 1.16-6.85 2.273-10.313h3q.113-8.023.165-16.046.022-2.715.061-5.43c.181-12.765-.56-25.01-3.226-37.524l-1-1c-.299-1.85-.564-3.705-.812-5.562-.873-5.522-2.475-9.618-5.188-14.438l-2-5-2-3z"/><path fill="#4c3631" d="M291.61 298.184C294 299 294 299 296 301c-.126 3.575-.493 5.432-2.898 8.125-16.759 12.688-35.886 19.076-57.148 16.64-15.41-2.208-30.444-7.623-40.954-19.765-.687-3.187-.687-3.187 0-6 2.988-1.307 3.925-1.647 7-1 2.103 1.504 3.85 3.22 5.707 5.02 9.927 8.574 23.162 11.547 35.918 11.418l3.174-.023c16.425-.346 28.57-4.409 40.28-16.192C289 298 289 298 291.608 298.183"/><path fill="#b797d9" d="M240 49c3.072-.348 5.94-.502 9 0 2.25 2.438 2.25 2.438 3 6-.936 5.232-3.23 9.515-6 14v3q-1.988 1.025-4 2l-1 3 2.313-1.437C246.883 73.487 248.817 73 253 73l2-2c1.96-.125 1.96-.125 4.375 0 5.184.136 9.902-.677 14.96-1.758 2.985-.271 4.228.06 6.665 1.758 1 2.188 1 2.188 1 5-1.317 3.415-2.808 6.292-6 8.188L274 85a90 90 0 0 0-4 4h2v2c1.863.379 1.863.379 4.313.563 2.84.224 4.956.527 7.687 1.437h4l3 3c4.512 1.46 9.308 1.092 14 1v3l3.438-.125L312 100l1 2 3.5.438 3.5.562 1 3 1.75-.562L325 105a117 117 0 0 1 5 4h3l.875 2 1.125 2c2.625.25 2.625.25 5 0v4c2.75 1.063 2.75 1.063 6 2l2.25 1.75L350 122l2-2 .25 2 .75 2h4v3l2-1c3 3.346 3 3.346 3 6h2l1 2a84 84 0 0 0 4.438 1.75c4.384 1.828 4.384 1.828 5.937 5.5L376 144h3v3l3 1c3 5.222 3 5.222 3 8h2v3h2l2 4 3 2v3l3 1c1.125 2.813 1.125 2.813 2 6l.688 2.25C400 179 400 179 399 181l-.875-2.5L397 176h-2c-3-5.308-3-5.308-3-8h-2v-3h-2a100 100 0 0 1-3.312-5.687c-2.528-4.448-4.82-7.916-8.688-11.313a1312 1312 0 0 1-3.937-4.062c-2.394-2.412-4.689-4.499-7.563-6.313L362 136v-2l-1.875-.937C358 132 358 132 356 129c-2.059-1.281-2.059-1.281-4.437-2.5-4.246-2.182-4.246-2.182-6.086-4.027-2.247-2.241-4.967-3.223-7.832-4.508L336 117v-2c-1.329-.35-2.664-.678-4-1a244 244 0 0 1-6.625-3.312c-8.284-4.218-16.316-7.495-25.375-9.688q-1.952-.498-3.902-1c-8.193-2.05-16.23-3.577-24.652-4.316-3.574-.337-5.39-.647-8.446-2.684v-3h2l.813-1.687C268.26 83.547 272.298 80.414 277 78h2v-5c-28.214 1.75-28.214 1.75-40 10h-3c2.672-13.049 2.672-13.049 7-17l1-2h2c.633-2.406.633-2.406 1.125-5.5l.508-3.094L248 53h-6v2c-1.723.895-1.723.895-4.062 1.813-3.265 1.364-6.037 2.823-8.875 4.937C226 64 226 64 224 64l-1 3h-2v2h-2v2c-1.54 1.445-1.54 1.445-3.625 3.125-2.971 2.505-5.32 4.952-7.562 8.125-2.237 3.162-4.24 5.068-7.813 6.75.394-1.506.816-3.005 1.25-4.5l.703-2.531L203 80h4a78 78 0 0 0 2-5c3.226-3.871 3.226-3.871 6.25-4.375L217 70l-.125-3 .125-3q2.998-.51 6-1c.875-3.062.875-3.062 1-6l1 2c3-1 3-1 5-3 5.538-3 5.538-3 8-3v-2h2z"/><path fill="#7e6bd7" d="M36 128h1c.11 1.433.143 2.87.151 4.308l.026 2.893.012 3.216.026 3.355q.025 3.624.045 7.249.033 5.728.077 11.457.088 12.168.163 24.334c.06 9.385.121 18.77.192 28.155.027 3.77.047 7.541.068 11.312l.05 6.916.013 3.197.026 2.92.015 2.538C38 242 38 242 39 245c.108 2.35.156 4.702.174 7.054l.02 2.164q.021 2.325.036 4.65.026 3.683.065 7.365.105 10.47.182 20.938.049 6.405.12 12.81.024 2.439.037 4.878c.012 2.276.036 4.552.063 6.828l.031 3.923c.263 3.281.875 5.441 2.272 8.39l1.5 3.625C45 331 45 331 47 334c.379 1.875.379 1.875.563 4l.23 2.371c.149 1.887.273 3.775.383 5.664l.199 3.027.148 2.848L49 354h3v-2l3 1c.512 1.996.512 1.996.688 4.438l.199 2.433A78 78 0 0 1 56 364c2 2 2 2 4 2.75 2.93 1.831 3.185 3.991 4 7.25v2l2 .5 2 .5v2l2 .938L72 381v3c1.75.484 1.75.484 4 .75 2.219.445 2.219.445 4 1.25.5 3.625.5 3.625 0 7h4c2.05 2.226 3.646 4.293 5 7h4l3 1 1 3c3.777 3.613 7.63 3.662 12.637 4.18L112 409c.895 2.445.895 2.445 1 5l-1 2 1.688.75c3.841 2.077 6.664 4.039 8.75 7.938L123 427l-2 1a149 149 0 0 1-4-6c-2.59-3.178-5.835-4.515-9.5-6.25C87.832 406.171 69.75 391.638 58 373l-1.727-2.535c-15.74-23.542-20.447-48.637-20.387-76.49v-5.444q.001-7.35.013-14.7c.006-5.13.006-10.26.008-15.39q.005-14.556.021-29.112.016-16.578.022-33.156.016-34.086.05-68.173"/><path fill="#382622" d="M331.488 241.43c5.3 1.667 8.389 5.085 11.512 9.57 1.322 2.645 1.097 4.678 1.063 7.625l-.028 3.04L344 264h-2l-.687 2.313c-1.534 3.139-3.004 4-6.254 5.183-6.564 1.607-12.154.832-18.059-2.496-9.802-7.727-9.802-7.727-10.371-11.39-.201-8.67-.201-8.67 2.683-12.173 6.513-5.906 13.728-5.466 22.176-4.007"/><path fill="#8471cc" d="M79 280c2.95 2.95 3.191 6.381 4.121 10.371.942 2.818 1.821 3.598 3.879 5.629 1.444 2.484 2.83 4.97 4.188 7.5 9.91 18.049 9.91 18.049 14.812 20.5l1 3a174 174 0 0 0 5 4l5 5q1.645 1.357 3.313 2.688L123 341v2l2 .75c2.68 1.117 4.211 2.103 6.438 3.875 20.399 15.7 46.564 24.623 71.562 29.313l3.212.604c16.984 2.944 34.052 2.554 51.22 2.362 2.875-.03 5.75-.048 8.627-.064l2.682-.04c2.087-.01 4.175.084 6.259.2l1 2c-3.636 1.212-7.041 1.231-10.832 1.316l-2.365.064q-3.808.098-7.615.183l-2.603.06q-7.657.179-15.315.33-3.06.065-6.12.138c-3.05.07-6.1.12-9.15.159l-2.577.065c-4.95.028-8.05-.763-12.423-3.315-2.875-.687-2.875-.687-5-1v2c-2-.375-2-.375-4-1v-2l-2.062.688c-4.008.426-6.346-.956-9.938-2.688-3.92-1.867-5.804-2.076-10-1-5.929 0-5.929 0-8-1l-.062-3-.938-3c-2.888-.558-5.592-.624-8.531-.602L156 368c-.566-1.945-.566-1.945-1-4-1.996-.828-1.996-.828-4.437-1.25l-2.434-.453C146 362 146 362 144 362l-2-3-2.562-.375L137 358l-.437-2.5L136 353c-5.021-1.674-10.743-1.094-16-1l.14-1.898.11-2.477.14-2.46L120 343c-1.828-1.164-1.828-1.164-4-2-3-2-3-2-3.812-4.187L111 335l-3 .75-3 .25c-.933-2.028-1.255-3.912-1.578-6.117L103 328l-2-1v-3l-3-1c-1.886-3.213-3-5.246-3-9l-2.5-.812L90 312c-.312-3.125-.312-3.125 0-6h-2v-2h-2a126 126 0 0 1-3-7l-2 2c-2.049-4.219-2.212-7.654-2.125-12.312l.055-3.801z"/><path fill="#bea0f3" d="M404 33h3l1 4h3v2l1.875.875c2.59 1.371 2.91 2.533 4.125 5.125 3 2 3 2 5 3l1-2 1 3h3l.375 3.375L428 56c2.438 1.25 2.438 1.25 5 2 2 3 2 3 2 6h2c1.962 2.815 3.426 5.956 5 9l1.52 2.883C451.233 90.84 457.118 107.943 456 125h-2c-1.121-2.243-1.233-3.824-1.437-6.312-.482-4.683-1.146-8.271-4.563-11.688-.344-2.574-.344-2.574-.5-5.687-.325-4.741-.785-8.874-2.5-13.313h-2q-.509-3.498-1-7l-2-1a76 76 0 0 1-1-5l-1-3-2.5.125L433 72c-.687-2.187-.687-2.187-1-5-.937-2.812-.937-2.812-2-5h-2v-3l-2.798.016q-5.141.026-10.282.039-2.224.008-4.45.02-3.196.017-6.396.023l-3.888.016C397 59 397 59 394 58c-.285-3.125-.285-3.125-.062-7l.152-3.875L395 44c2.941-1 2.941-1 6-1l2 1 .313-1.937L404 40l3-1c-.187-2.5-.187-2.5-1-5z"/><path fill="#372522" d="m169.5 240.875 2.906.555c5.42 1.191 7.254 3.146 10.594 7.57v2h-2l.813 1.875L182 255c-2.437 1.25-2.437 1.25-5 2v-2l-3.187 1.5c-3.068 1.328-5.434 1.807-8.813 1.5 2.75 5.875 2.75 5.875 5 7 1.375 2.438 1.375 2.438 2 5-3.169 2.289-6.13 2.24-9.937 2.188l-3.09-.02c-4.046-.229-6.982-.397-10.223-2.918-3.773-4.85-3.09-11.343-2.75-17.25.999-2.997 1.651-4.027 4-6h2v-2c1.863-.816 1.863-.816 4.313-1.562.8-.25 1.6-.498 2.425-.754L161 241c3.426-1.142 5.001-.812 8.5-.125"/><path fill="#7f6fcd" d="M455 202h1q.106 21.438.155 42.876c.016 6.638.037 13.276.071 19.915.033 6.419.05 12.838.059 19.257q.008 3.654.032 7.307c.109 16.89-.256 33.594-5.942 49.707l-.758 2.208c-3.008 8.363-7.19 16.049-11.617 23.73l-1.64 2.98c-5.124 8.759-12.244 15.87-19.36 23.02l-1.486 1.499c-5.153 5.12-10.674 9.534-16.702 13.563l-1.69 1.16c-4.426 2.827-8.003 3.414-13.122 3.778 1.804-4.148 2.81-6.243 7-8l2-3c2.625-.687 2.625-.687 5-1v3l.75-1.937C400 400 400 400 401.938 399.438L404 399c2.418-1.97 2.985-2.955 4-6l2.938-1.437c3.062-1.563 3.062-1.563 4-3.5 1.274-2.474 2.186-2.776 4.625-4 3.315-1.752 3.315-1.752 4.437-4.625 0-2.438 0-2.438-1-5.438 2.076-.553 3.844-1 6-1 .781-1.969.781-1.969 1.5-4.5s.719-2.531 1.5-4.5h2l.313-2.625C435 358 435 358 437.5 355.063c2.865-3.51 2.973-5.671 3.5-10.063h3l3-1c.477-1.89.477-1.89.625-4.25.26-3.324.639-6.49 1.375-9.75h-1c-.176-3.873-.258-6.739 2-10h2c.318-2.86.476-5.627.563-8.5l.109-2.942c.124-3.519.227-7.038.328-10.558l.12-4.065c.498-16.99.857-33.98 1.13-50.974l.064-3.88q.157-9.598.293-19.198l.112-7.04.04-3.327c.01-.496.01-.496.052-3.01l.038-2.65z"/><path fill="#a688a1" d="m176 107-2 2h-4l-1 3c-5.747 4.378-12.105 7.04-19 9l-3 1-.937 1.938c-1.32 2.56-2.392 3.09-5.063 4.062h-3l-1 3c-2.432 2.084-4.985 3.957-7.555 5.867-2.523 2.201-3.785 4.26-5.445 7.133l-3 2-1 3c-1.67.902-3.34 1.803-5.016 2.695-4.451 2.927-8.3 7.251-9.984 12.305h-2l-.418 1.742c-.724 2.81-2.007 4.192-3.894 6.383-4.53 5.644-6.748 11.525-8.688 18.438-1.053 3.619-2.48 6.868-4.05 10.285-1.174 2.659-2.052 5.39-2.95 8.152l-1 1c-2.876 12.502-3.284 24.985-3.25 37.75l.003 2.254c.045 15.065.045 15.065 1.247 21.996h2a69 69 0 0 1 1 5q.765 2.723 1.563 5.438c1.105 3.97 1.774 7.409 1.437 11.562l-3-1c-1.098-2.941-1.098-2.941-2.062-6.562-.58-2.165-1.21-4.319-1.938-6.438h-2a93 93 0 0 1-1.062-7.562l-.473-4.254-.2-1.92a141 141 0 0 0-.784-5.55c-.77-5.95-.667-11.91-.666-17.902-.002-2.24-.02-4.48-.04-6.72q-.005-2.169-.005-4.338l-.013-3.928c.27-4.257.959-7.762 2.243-11.826h2c.75-2.505 1.372-4.952 1.938-7.5 2.656-11.25 2.656-11.25 5.062-16.5h2c.563-2.312.563-2.312 1-5l1-3h2l-.187-2.687c.208-3.678.97-5.413 3.187-8.313h2l.5-2.5.5-2.5h2l.688-2.5c1.554-4.145 3.768-6.563 6.753-9.766C108 154 108 154 109 152l3.25-1.625c3.846-2.1 5.377-4.608 7.508-8.348 3.365-5.492 7.538-8.236 13.242-11.027a281 281 0 0 0 5-5c5.073-4.353 9.77-7.604 16-10 2.756-1.566 5.362-3.241 8-5h4v-2c6.328-3.224 6.328-3.224 10-2"/><path fill="#796bbe" d="m231.625 424.313 2.477.238L236 425v2c3.088.221 6.088.301 9.18.303l2.955.026c3.247.025 6.493.038 9.74.05l6.726.051c5.918.046 11.837.081 17.755.113q14.212.078 28.426.188 4.986.033 9.971.055l6.067.04 2.834.008c2.116.018 4.231.085 6.346.166v1a242 242 0 0 1-8.85.142l-2.853.01q-3.087.011-6.173.017-4.902.012-9.804.041c-9.297.053-18.594.1-27.891.116-5.68.01-11.36.04-17.04.081q-3.234.019-6.469.015c-15.79-.012-30.321.616-43.92 9.578l-2.648 1.676c-6.013 3.893-11.761 8.075-17.477 12.387l-2.061 1.553-2.017 1.52-1.955 1.475q-2.508 1.89-5.014 3.784l-2.703 1.98c-.76.565-1.521 1.13-2.305 1.71-.6.303-1.201.604-1.82.915l-2-2c1.375-2.5 1.375-2.5 3-5v-2c2.066-.58 4.133-.897 6.25-1.242L184 455v-4l1-3 5 2v-2h2v-4l2.875.25L198 444l.938-1.875L200 440l3.563-.937L207 438a75 75 0 0 0 1-5c2.5.313 2.5.313 5 1l1-2h5c2.75-.687 2.75-.687 5-2 .688-2.562.688-2.562 1-5 2.496-1.248 3.87-.98 6.625-.687"/><path fill="#49332e" d="M202 299c1.816 1.32 1.816 1.32 3.563 3.125 11.947 11.115 26.421 13.358 42.062 13.063q2.1-.024 4.2-.042 5.087-.053 10.175-.146c-.867 2.016-.867 2.016-2 4-2.125-.25-2.125-.25-4-1l1-1q-4.626.212-9.25.438l-2.645.119-2.558.127-2.349.11c-2.211.207-4.107.448-6.198 1.206-2 3-2 3-3 5l3 1c-14.493-.87-26.675-7.619-37.344-17.078C195 306 195 306 194.625 302.812L195 300c2.56-1.28 4.159-1.282 7-1"/><path fill="#bda5e6" d="m76 40 1 3a381 381 0 0 1-6 5v3c-1 3-1 3-3.437 4.813C64.54 58.392 64.206 60.303 63 64a89 89 0 0 1-4 2c-3.105 3.979-5.094 8.228-7.059 12.836-.781 1.797-1.662 3.55-2.566 5.289-3.2 6.69-3.639 12.597-3.375 19.875h-2c-4.488 6.57-4.617 13.754-4.687 21.438l-.083 3.596q-.088 3.876-.153 7.753c-.119 6.885-.318 13.768-.514 20.651-.063 2.297-.117 4.595-.171 6.892l-.11 4.217-.093 3.776L38 175h-1a75 75 0 0 1-.253-4.763l-.09-3.16-.079-3.475-.084-3.57q-.085-3.771-.161-7.542c-.081-3.786-.185-7.571-.29-11.357-.312-13.408-.064-26.039 2.957-39.133l.637-2.822c.517-2.107 1.095-4.17 1.738-6.24l.634-2.113c1.475-4.706 3.316-8.914 5.975-13.063C49 76 49 76 49.516 73.77L50 72h2c.676-1.997 1.34-3.998 2-6 5.808-10.115 13.579-18.047 22-26"/><path fill="#9980d5" d="M400 181c3 1.188 3 1.188 6 3 .375 2.688.375 2.688 0 5h2c.77 2.755 1.418 5.455 2 8.25q.493 2.322 1 4.64l.438 2.095c.608 2.181 1.539 4 2.562 6.015 3.114 12.127 3.3 24.434 3.313 36.875l.01 2.268c.042 16.11-2.189 30.592-8.42 45.525-.816 2.108-1.39 4.136-1.903 6.332l-1 3-1.906.934c-3.18 1.619-4.112 4.228-5.75 7.289C397 314 397 314 394.844 314.746L393 315l1-3h2c1.92-3.072 2.969-6.597 4.21-9.984 1.083-2.764 2.464-5.363 3.79-8.016l1.063-3.375L406 288h2c.27-1.892.53-3.786.727-5.687.426-3.605 1.16-6.85 2.273-10.313h3q.113-8.023.165-16.046.022-2.715.061-5.43c.181-12.765-.56-25.01-3.226-37.524l-1-1c-.299-1.85-.564-3.705-.812-5.562-.873-5.522-2.475-9.618-5.188-14.438l-2-5-2-3z"/><path fill="#b797de" d="M200 89c-2.324 4.815-4.297 7.375-9 10l-2.437 1.563C184.317 102.944 180.877 104 176 104v2c-2.568.917-5.172 1.544-7.812 2.219L166 109v2c-1.7.767-3.405 1.524-5.137 2.215C159 114 159 114 156.5 115.5s-2.5 1.5-5.687 2.688c-4.484 1.823-7.919 4.967-11.579 8.07C137 128 137 128 134 129l-1 3c-1.637 1.14-1.637 1.14-3.687 2.25-5.316 3.163-8.808 7.202-11.938 12.5-1.52 2.488-2.876 3.766-5.375 5.25h-3c-1 1.813-1 1.813-2 4-1.625 1.75-1.625 1.75-3 3-.437-2.562-.437-2.562 0-6 2.07-2.637 4.495-4.785 7-7l1.605-1.707C114 143 114 143 116 143v-3a70 70 0 0 1 4-1v-2l2.938-1.937C126 133 126 133 127 130c1.672-1.465 1.672-1.465 3.75-2.937 2.416-1.735 4.72-3.458 7-5.376C140 120 140 120 142.125 119.5c1.875-.5 1.875-.5 3.125-2.375 3.106-3.772 7.912-4.845 12.625-5.562L160 111l.813-1.875c1.951-3.493 5.51-3.982 9.187-5.125 5.544-1.774 10.334-3.834 15.125-7.187C188 95 188 95 192 95l1-3c4.333-3 4.333-3 7-3"/><path fill="#9682cc" d="M36 128h1c.11 1.433.143 2.87.151 4.308l.026 2.893.012 3.216.026 3.355q.025 3.624.045 7.249.033 5.728.077 11.457.088 12.168.163 24.334c.06 9.385.121 18.77.192 28.155.027 3.77.047 7.541.068 11.312l.05 6.916.013 3.197.026 2.92.015 2.538C38 242 38 242 39 245c.114 2.513.175 5 .19 7.513l.025 2.312q.025 2.485.045 4.97.033 3.934.077 7.868.088 8.355.163 16.712.089 9.673.192 19.345.038 3.873.068 7.746l.05 4.762.013 2.17c.046 3.665.396 7.027 1.177 10.602.038 2.333.046 4.667 0 7-1.559-2.857-2.444-5.434-3.062-8.625l-.473-2.352c-1.59-10.342-1.601-20.611-1.579-31.049v-5.443q.001-7.35.013-14.7c.006-5.13.006-10.26.008-15.39q.005-14.556.021-29.112.016-16.578.022-33.156.016-34.086.05-68.173"/><path fill="#8b74c2" d="M79 280c2.95 2.95 3.191 6.381 4.121 10.371.942 2.818 1.821 3.598 3.879 5.629 1.444 2.484 2.83 4.97 4.188 7.5 9.91 18.049 9.91 18.049 14.812 20.5l1 3a174 174 0 0 0 5 4l5 5q1.645 1.357 3.313 2.688L123 341v2l2.5.938L128 345v3c1.531 1.168 1.531 1.168 3.5 2.188L135 352l-3 1-2-1a95 95 0 0 0-5.125-.062l-2.758.027L120 352l.14-1.898.11-2.477.14-2.46L120 343c-1.828-1.164-1.828-1.164-4-2-3-2-3-2-3.812-4.187L111 335l-3 .75-3 .25c-.933-2.028-1.255-3.912-1.578-6.117L103 328l-2-1v-3l-3-1c-1.886-3.213-3-5.246-3-9l-2.5-.812L90 312c-.312-3.125-.312-3.125 0-6h-2v-2h-2a126 126 0 0 1-3-7l-2 2c-2.049-4.219-2.212-7.654-2.125-12.312l.055-3.801z"/><path fill="#8f7ecb" d="M455 202h1q.106 21.438.155 42.876c.016 6.638.037 13.276.071 19.915.033 6.419.05 12.838.059 19.257q.008 3.654.032 7.307c.109 16.89-.259 33.592-5.942 49.707l-.747 2.186C441.79 365.105 441.79 365.105 436 368c.592-4.079 1.943-7.007 4-10.562 2.902-5.03 2.902-5.03 3.563-7.778L444 348h2c.502-1.652.502-1.652.852-3.937l.39-2.461.383-2.602.406-2.602c.332-2.131.651-4.264.969-6.398h-1c-.176-3.873-.258-6.739 2-10h2c.318-2.86.476-5.627.563-8.5l.109-2.942c.124-3.519.227-7.038.328-10.558l.12-4.065c.498-16.99.857-33.98 1.13-50.974l.064-3.88q.157-9.598.293-19.198l.112-7.04.04-3.327.052-3.01.038-2.65z"/><path fill="#a1849d" d="M395 176h2c4.74 7.062 7.887 15.127 11 23l1.105 2.586c.854 2.303 1.24 4.23 1.457 6.664C411 212 411 212 412 213c4.052 17.194 7.12 41.897 2 59h-3c-.304 1.89-.588 3.785-.758 5.691-.376 3.584-1.212 6.855-2.242 10.309l-2 1c-.364 1.66-.7 3.327-1 5h-1c-.125-5.75-.125-5.75 1-8 .177-1.434.319-2.872.438-4.312.364-3.535.872-6.507 2.562-9.688l2-1c4.155-17.34 4.988-43.029-2.125-59.625-.918-2.493-.91-4.003-.812-6.625L407 201l-3-1c-.844-1.82-.844-1.82-1.5-4.125-3.052-9.998-3.052-9.998-6.187-14.062C395 180 395 180 395 176"/><path fill="#bd9ce4" d="M240 49c3.072-.348 5.94-.502 9 0 2.25 2.438 2.25 2.438 3 6-.936 5.232-3.23 9.515-6 14v3q-1.988 1.025-4 2l-1 3 3 1-4 1c.616-10.94.616-10.94 4-15h2c.633-2.406.633-2.406 1.125-5.5l.508-3.094L248 53h-6v2c-1.723.895-1.723.895-4.062 1.813-3.265 1.364-6.037 2.823-8.875 4.937C226 64 226 64 224 64l-1 3h-2v2h-2v2c-1.54 1.445-1.54 1.445-3.625 3.125-2.971 2.505-5.32 4.952-7.562 8.125-2.237 3.162-4.24 5.068-7.813 6.75.394-1.506.816-3.005 1.25-4.5l.703-2.531L203 80h4a78 78 0 0 0 2-5c3.226-3.871 3.226-3.871 6.25-4.375L217 70l-.125-3 .125-3q2.998-.51 6-1c.875-3.062.875-3.062 1-6l1 2c3-1 3-1 5-3 5.538-3 5.538-3 8-3v-2h2z"/><path fill="#a58899" d="M238 72c1 2 1 2 .441 4.164l-.879 2.461-.87 2.477L236 83l2.09-1.207C251.83 74.046 263.489 72.818 279 73c.2 2.375.2 2.375 0 5-3.187 2-3.187 2-5.117 2.965-3.901 2.145-6.453 5.39-8.883 9.035h-2l1 3c3.013 1.507 6.25 1.487 9.563 1.813 9.019.957 17.666 2.926 26.437 5.187-3.526 1.138-6.577.985-10.25.688-1.078-.08-2.155-.158-3.266-.239L284 100v-2l-2.055.07c-6.379.124-12.855.07-18.945-2.07v-2h-2c-.312-2.875-.312-2.875 0-6 2.375-1.062 2.375-1.062 5-2a125 125 0 0 0 2-5l4-2v-4q-3.689.423-7.375.875l-2.117.238c-5.281.66-5.281.66-7.508 2.887-2.276.85-4.58 1.524-6.906 2.219C246 82 246 82 244 84c-2.164.195-2.164.195-4.625.125l-2.477-.055L235 84v-8h2c.625-2 .625-2 1-4"/><path fill="#f3e4fe" d="m173.408 3.741 5.533-.01a4824 4824 0 0 1 14.944 0c5.23.005 10.46 0 15.69-.002q13.172-.005 26.345.01 15.195.015 30.39-.003 13.08-.013 26.161-.006 7.797.007 15.594-.003 7.335-.007 14.67.01 2.679.004 5.359-.002C348.686 3.688 348.686 3.688 356 6v2l-1.964-.214c-9.623-.934-19.192-.927-28.849-.915l-5.626-.006q-7.593-.005-15.186 0c-5.314.003-10.63 0-15.944 0q-13.38-.003-26.763.005-15.441.006-30.882-.002-13.292-.007-26.585-.003-7.924.003-15.847-.001-7.45-.004-14.9.005-2.724 0-5.448-.002c-9.054-.01-18.002.03-27.006 1.133 8.985-5.99 22-4.285 32.408-4.259"/><path fill="#b7a0e4" d="m427 54 1 2 2.438.938C433 58 433 58 435 61v3h2c1.962 2.815 3.426 5.956 5 9l1.52 2.883C451.233 90.84 457.118 107.943 456 125h-2c-1.121-2.243-1.233-3.824-1.437-6.312-.482-4.683-1.146-8.271-4.563-11.688-.344-2.574-.344-2.574-.5-5.687-.325-4.741-.785-8.874-2.5-13.313h-2q-.509-3.498-1-7l-2-1a76 76 0 0 1-1-5l-1-3-2.5.125L433 72c-1.04-2.86-1.055-5.654-1.312-8.687L431 60c-2.062-1.187-2.062-1.187-4-2z"/><path fill="#a385c6" d="M76 216h1v48h2c.409 2.081.51 4.135.656 6.25L80 272h2a69 69 0 0 1 1 5q.765 2.723 1.563 5.438c1.105 3.97 1.774 7.409 1.437 11.562l-3-1c-1.098-2.941-1.098-2.941-2.062-6.562-.58-2.165-1.21-4.319-1.938-6.438h-2a93 93 0 0 1-1.062-7.562l-.473-4.254-.2-1.92a141 141 0 0 0-.784-5.55c-.77-5.95-.667-11.91-.666-17.902-.002-2.24-.02-4.48-.04-6.72q-.005-2.169-.005-4.338l-.013-3.928c.269-4.232 1.033-7.769 2.243-11.826"/><path fill="#55403b" d="M291.688 298.063C294 299 294 299 296 301c-.115 3.664-.51 5.463-3.004 8.195-5.125 3.866-9.995 7.448-15.996 9.805l-2-2 1.563-1.312L278 314l-1-3c-2.062-.687-2.062-.687-4-1l2.23-1.355c8.943-5.54 8.943-5.54 11.645-8.645 2.125-2 2.125-2 4.813-1.937"/><path fill="#978cd0" d="m231.625 424.313 2.477.238L236 425v2c3.088.221 6.088.301 9.18.303l2.955.026c3.247.025 6.493.038 9.74.05l6.726.051c5.918.046 11.837.081 17.755.113q14.212.078 28.426.188 4.986.033 9.971.055l6.067.04 2.834.008c2.116.018 4.231.085 6.346.166v1a242 242 0 0 1-8.85.142l-2.853.01q-3.087.011-6.173.017-4.902.012-9.804.041c-9.297.053-18.594.1-27.891.116-5.68.01-11.36.04-17.04.081q-3.234.019-6.469.015c-12.171-.01-23.39.298-34.92 4.578l-1 1c-2.67.141-5.324.042-8 0l1-3a99 99 0 0 1 5 0c2.75-.687 2.75-.687 5-2 .688-2.562.688-2.562 1-5 2.496-1.248 3.87-.98 6.625-.687"/><path fill="#8776c9" d="M39 319c2.975 3.38 3.79 6.722 5 11l2 1c2.019 5.938 2.347 11.84 2.483 18.07.076 1.93.076 1.93.517 4.93h3v-2l3 1c.512 1.996.512 1.996.688 4.438l.199 2.433A78 78 0 0 1 56 364l2 2v2c-1.754-.082-1.754-.082-4-1a57 57 0 0 1-3.937-6.687l-1.05-2.043C42.784 345.85 38.713 333.027 39 319"/><path fill="#8f7ad7" d="M367 332h1l-.07 1.934-.055 2.503-.07 2.497L368 341l2 1c-2 3-2 3-5 4l-1 3-2.437.438L359 350c-1 1.75-1 1.75-2 4-3.245 3.77-5.14 5.233-10 6l-1.437 1.438C344 363 344 363 340.938 363.875 338 365 338 365 336.625 367.625L336 370c-3.62-1.502-6.732-2.821-10-5l3.375-1.398c11.866-5.03 23.397-10.723 33.45-18.899C365 343 365 343 367 343z"/><path fill="#a98cd8" d="M400 181c3 1.188 3 1.188 6 3 .375 2.688.375 2.688 0 5h2c.77 2.755 1.418 5.455 2 8.25q.493 2.322 1 4.64l.438 2.095c.608 2.181 1.538 4 2.562 6.015 3.236 12.232 3.186 24.454 2.813 37l-.063 2.325a620 620 0 0 1-.23 6.613l-.154 3.902C416 263 416 263 414 266l.048-2.82c.522-35.695.522-35.695-3.048-50.18l-1-1c-.299-1.85-.564-3.705-.812-5.562-.873-5.522-2.475-9.618-5.188-14.438l-2-5-2-3z"/><path fill="#d4bdf9" d="m422 48 1-2 1 3h3c1.054 3.25 1.095 4.715 0 8h-4v-7h-3v7q-2.937.118-5.875.188l-3.305.105L408 57c-2-3-2-3-1.687-6.125C407 48 407 48 408 47c5.247-1.073 9.068-1.312 14 1"/><path fill="#664e59" d="M90 302h2v2h2v3l3 1v4h4c1.07 1.72 2.132 3.45 3.05 5.254.95 1.746.95 1.746 2.7 3.496C108 322 108 322 108 325h2l1 3 2 1v2l2.5.438 2.5.562v3l3-2c.074-1.945.074-1.945-.312-4.125L120 325h2l2-2c1.125 4.75 1.125 4.75 0 7-.228 1.87-.41 3.747-.562 5.625l-.254 3.04L123 341c-6.219-2.871-11.466-7.933-16-13a69 69 0 0 1-1-4l-3-1a89 89 0 0 1-4.437-6.062l-1.21-1.775C94.514 310.93 92.1 306.653 90 302"/><path fill="#a591d7" d="M454 125h2q.07 14.981.104 29.963.014 6.957.047 13.913.032 6.71.039 13.421.004 2.563.021 5.126c.015 2.39.017 4.778.016 7.168l.022 2.15c-.016 3.655-.16 5.126-2.249 8.259-.928-15.454-1.157-30.865-1.13-46.345.005-3.837 0-7.674-.007-11.51q0-3.67.004-7.34l-.006-3.466.01-3.191.002-2.803C453 128 453 128 454 125"/><path fill="#342420" d="M181 251h2c.469 8.126.469 8.126-1.375 11.563C180 264 180 264 178 264l-.812 1.938C176 268 176 268 173.438 269H171c-.562-1.812-.562-1.812-1-4l-2-.937c-2-1.063-2-1.063-3.312-3.5L165 258c3.41-1.933 7.235-3.463 11.113-2.445L178 256l3-2z"/><path fill="#a5879c" d="M345 122c13.28 7.35 13.28 7.35 17 12v2c1.32.691 2.657 1.353 4 2 4.608 3.637 9.038 7.667 13 12v2l3 1c1.605 2.215 1.605 2.215 3.188 4.938l1.605 2.714C388 163 388 163 388 165h2v3h2c1.688 2.875 1.688 2.875 3 6l-1 2c-3.2-1.6-4.093-4.766-5.684-7.871C387 166 387 166 384 164l-.937-3c-1.063-3-1.063-3-3-4.062L378 156a113 113 0 0 1-3-5l-2-1-.312-1.937L372 146c-2.5-1.125-2.5-1.125-5-2l-1-2 1-2-2.125-.687c-3.491-1.594-5.96-3.833-8.875-6.313l-2.312-1.125C352 131 352 131 351 128l-1.937-.375L347 127c-1.129-2.54-1.129-2.54-2-5"/><path fill="#af98e1" d="m46 89 1 3-1 2a95 95 0 0 0-.062 5.125l.027 2.758L46 104h-2c-4.488 6.57-4.617 13.754-4.687 21.438l-.083 3.596q-.088 3.876-.153 7.753c-.119 6.885-.318 13.768-.514 20.651-.063 2.297-.117 4.595-.171 6.892l-.11 4.217-.093 3.776L38 175h-1a79 79 0 0 1-.237-4.89l-.08-3.24-.07-3.55-.077-3.627q-.078-3.821-.149-7.642a2529 2529 0 0 0-.256-11.621q-.073-3.711-.143-7.422l-.088-3.49c-.1-6.53-.174-13.297 2.1-19.518h2l-.125-2.062c.223-5.24 2.24-15.054 6.125-18.938"/><path fill="#e8dcf9" d="m287.125 374.938 3.883.027L294 375c-17.375 11.583-58.158 7.643-78 5v-1c10.576-1.688 21.55-1.056 32.222-.904 13.228.175 26.09-3.275 38.903-3.159"/><path fill="#f8f5f5" d="M172 246c2.563 1.688 2.563 1.688 4 4 .063 2.563.063 2.563-1 5-2.707 2.243-4.583 2.94-8.062 3.438C164 258 164 258 161.563 256.375 160 254 160 254 160.063 250.875c1.859-5.701 6.675-5.73 11.937-4.875"/><path fill="#8c77d3" d="M101 324c5.75 4.625 5.75 4.625 8 8l1.797.441c3.1.787 4.979 2.496 7.453 4.497l2.703 2.152L123 341v2l2.5.938L128 345v3c1.531 1.168 1.531 1.168 3.5 2.188L135 352l-3 1-2-1a95 95 0 0 0-5.125-.062l-2.758.027L120 352l.14-1.898.11-2.477.14-2.46L120 343c-1.828-1.164-1.828-1.164-4-2-3-2-3-2-3.812-4.187L111 335l-3 .75-3 .25c-.933-2.028-1.255-3.912-1.578-6.117L103 328l-2-1z"/><path fill="#664b66" d="M402 294h2c-.571 3.999-1.873 6.597-4 10q-1.01 2.495-2 5l-2 3h-2a656 656 0 0 0-2 5c-6.518 9.21-14.623 16.534-23 24-.633-1.84-.633-1.84-1-4 2.928-3.53 6.075-5.71 10-8l1-2h2l.438-2 .562-2h3c1-1.687 1-1.687 2-4 1.5-2.75 1.5-2.75 3-5h2v-3h2l.438-2.312c.562-2.688.562-2.688 2-4.063 2.359-2.454 2.68-5.391 3.562-8.625z"/><path fill="#faf8f9" d="M333 247c2.375 1.688 2.375 1.688 4 4 .438 3.125.438 3.125 0 6-3.518 2.345-4.858 2.58-9 2-3.08-2.343-4.742-3.796-5.562-7.625.562-2.375.562-2.375 2.187-4.25 3.263-1.546 4.957-1.193 8.375-.125"/><path fill="#b393d5" d="m136 125 3 1c-1.375 1.5-1.375 1.5-3 3h-2l-1 3c-1.637 1.14-1.637 1.14-3.687 2.25-5.316 3.163-8.808 7.202-11.938 12.5-1.52 2.488-2.876 3.766-5.375 5.25h-3c-1 1.813-1 1.813-2 4-1.625 1.75-1.625 1.75-3 3-.437-2.562-.437-2.562 0-6 2.07-2.637 4.495-4.785 7-7l1.605-1.707C114 143 114 143 116 143v-3a70 70 0 0 1 4-1v-2c5.412-4 5.412-4 8-4v-2l1.75-.312c2.25-.688 2.25-.688 4.313-3.313z"/><path fill="#3a2824" d="m169.5 240.875 2.906.555c5.42 1.191 7.254 3.146 10.594 7.57v2h-2l.813 1.875L182 255c-2.437 1.25-2.437 1.25-5 2v-2h-2l.563-3.375L175 248c-2.253-.997-4.298-1.31-6.738-1.613C166 246 166 246 163 244l-1 1c-.687-1.937-.687-1.937-1-4 3.426-1.142 5.001-.812 8.5-.125"/><path fill="#e2cafe" d="M402.813 43.813c2.577 2.577 2.764 3.689 3.125 7.25-.102 2.675-.102 2.675-.938 4.937-3.22 1.7-6.374 2.174-10 2-1.397-2.794-1.045-4.958-.875-8.062l.133-3.286L395 44c3.1-1.201 4.613-1.112 7.813-.187"/><path fill="#48302c" d="M202 299c2.133 1.426 2.133 1.426 4.125 3.313l2.008 1.863A421 421 0 0 1 213 309h-3l2 2c-1.875 1.063-1.875 1.063-4 2l-2-1-.187-2.125L205 308c-2.337.303-4.67.639-7 1-1.937-1.062-1.937-1.062-3-3-.312-3.125-.312-3.125 0-6 2.574-1.287 4.14-1.293 7-1"/><path fill="#a5869b" d="M302 102c6.889.437 11.87 1.906 18 5l3.094 1.527A1228 1228 0 0 1 332 113l2.355 1.055L336 115v2a78 78 0 0 0 5 2c1.34.652 2.677 1.314 4 2-3.597 1.199-4.104.744-7.375-.875-2.715-1.302-4.69-2.136-7.687-2.625L328 117v-4c-3.937-.625-3.937-.625-6.152-.727L320 112l-1-2c-1.785-.71-1.785-.71-4.062-1.375-4.612-1.449-8.694-3.31-12.938-5.625z"/><path fill="#af90dd" d="m102 159 2 1a396 396 0 0 1-2.375 4c-.44.743-.882 1.485-1.336 2.25L99 168h-2l-.5 2.5-.5 2.5h-2c-.5 1.563-.5 1.563-1 4a103 103 0 0 1-2 7h-2c-.562 2.313-.562 2.313-1 5l-1 3h-2c-.36 1.661-.69 3.329-1 5l-2 3c.04-8.732 3.103-15.313 7-23 .4-.86.802-1.72 1.215-2.605.86-1.833 1.811-3.621 2.785-5.395h2v-2l3-3 1.063-2.125C100 160 100 160 102 159"/><path fill="#a28597" d="M83 203h1c.125 2.375.125 2.375 0 5l-2 2a93 93 0 0 0-1.562 8l-.395 2.554c-1.466 10.73-1.564 21.554-1.752 32.368l-.042 2.218q-.052 3.029-.091 6.056L78 264h-1c-1.485-7.92-1.145-15.978-1-24l.038-2.95c.049-3.184.127-6.366.212-9.55l.042-3.074c.216-6.483 1.436-10.867 4.708-16.426l1.188-3z"/><path fill="#ece3f3" d="M132 345c4.594 2.188 4.594 2.188 6 5h2v-2h3l.188 3.063L144 354c2.776.266 5.311-.326 8-1l-.875 1.813L151 357a101 101 0 0 0 6 3l1 3c-10.683-3.278-20.086-9.38-29-16z"/><path fill="#432e28" d="m262 315 2 1v4c-2.117.793-2.117.793-4.875 1.188-5.035.767-5.035.767-7.125 1.812-2.04.07-4.083.084-6.125.063l-3.32-.028L240 323v-3l-3-3 23-1-2 2 3-1z"/><path fill="#846de2" d="M445 344h2c-.375 2-.375 2-1 4h-2l-.25 2.875c-.495 4.665-2.872 8.017-5.375 11.89C437 365 437 365 436 368h-2c-1.125 2-1.125 2-2 4-.965-3.003-1.168-5.026 0-8h2l.313-2.625C435 358 435 358 437.5 355.063c2.865-3.51 2.973-5.671 3.5-10.063h3z"/><path fill="#aa8a9e" d="M226 64v3l-3 2v2h-2l-.812 1.875C218.61 75.696 216.934 75.826 214 77c-1 1.813-1 1.813-2 4l-2.5 2.438C207 86 207 86 205.938 88.812L205 91h-4c-.75 2.5-.75 2.5-1 5l-3-1c1.867-4.201 4.318-7.777 8.063-10.5C207 83 207 83 208.313 80.75c2.32-3.78 5.283-6.904 8.687-9.75h2v-2h2v-2c2.538-3 2.538-3 5-3"/><path fill="#614e48" d="m226 314 2.553.494c3.589.527 6.97.62 10.595.604l1.993-.005c2.078-.005 4.156-.018 6.234-.03q2.127-.008 4.254-.014 5.185-.017 10.371-.049c-.867 2.016-.867 2.016-2 4-2.125-.25-2.125-.25-4-1l1-1q-4.626.212-9.25.438l-2.645.119-2.558.127-2.349.11c-2.211.207-4.107.448-6.198 1.206-2 3-2 3-3 5l3 1-8-1 .688-1.75c.312-2.25.312-2.25-1.125-4.5L224 316h2z"/><path fill="#efded5" d="m393 248 2 2 2-2h2v21l-4-5-1.812-2.125c-1.895-4.586-.889-9.054-.188-13.875"/><path fill="#957cd5" d="M79 280c2.95 2.95 3.191 6.381 4.121 10.371.924 2.765 1.744 3.737 3.879 5.629 2.754 3.887 4.594 7.099 4 12l-1-2h-2v-2h-2a126 126 0 0 1-3-7l-2 2c-2.049-4.219-2.212-7.654-2.125-12.312l.055-3.801z"/><path fill="#a185ca" d="M410 208c1.5 1 1.5 1 3 3 .273 2.718.135 5.257 0 8h2c3.156 7.744 2.134 16.93 1.833 25.116a655 655 0 0 0-.204 7.023q-.07 2.241-.145 4.482l-.054 2.112c-.146 3.602-.377 5.187-2.43 8.267l.048-2.82c.497-33.96.497-33.96-3.048-50.18q-.501-2.5-1-5"/><path fill="#f0ecfb" d="M121 480h2c.967 1.74 1.929 3.485 2.805 5.273 1.516 2.19 2.698 2.826 5.195 3.727 5.002.48 10.131.298 15-1-.714 1.976-.714 1.976-2 4-2.063.454-2.063.454-4.57.39l-2.715-.038-2.84-.102-2.863-.055A469 469 0 0 1 124 492l1-4h-3c-2-3-2-3-1.75-5.687z"/><path fill="#9d82ae" d="M78 264c1.765 3.088 2 4.233 2 8h2a69 69 0 0 1 1 5q.765 2.723 1.563 5.438c1.105 3.97 1.774 7.409 1.437 11.562l-3-1c-4.364-9.164-4.744-19.047-5-29"/><path fill="#a98ba4" d="M242 53h6a764 764 0 0 1-.437 4.375l-.247 2.46C247 62 247 62 246 64h-2l-1 2v-3h2v-7c-2 .375-2 .375-4 1v2l-2.875.438L235 60l-2 3c-3.625.688-3.625.688-7 1 3.992-4.636 8.235-6.973 14-9h2z"/><path fill="#efe3da" d="m121 233 3 1a236 236 0 0 1-5 5l-2.383 2.336-2.617 2.476-2.5 2.395c-2.812 2.017-4.121 2.197-7.5 1.793 1.75-3.875 1.75-3.875 4-5v-2l2.438.375L113 241q.57-2.988 1-6c2.16-.976 3.65-1 6-1z"/><path fill="#b99bd7" d="M240 69c1.238 3.576.75 6.337 0 10 3-1 3-1 4.64-3.543 2.6-2.708 2.944-2.818 6.47-2.945q2.32.05 4.64.175l2.402.069c1.95.059 3.9.148 5.848.244v1c-1.639.31-3.287.57-4.937.813-6.67 1.15-12.176 3.43-17.938 6.937C239 83 239 83 236 83c.99-4.836 1.957-9.476 4-14"/><path fill="#e7d9f6" d="M183.953 369.953c4.595.594 8.67 1.471 13.047 3.047q2.745.766 5.5 1.5c3.883 1.044 7.705 2.166 11.5 3.5-3.459 1.162-5.89.83-9.43.074l-3.16-.666-3.285-.72-3.262-.686c-5.06-1.082-10.001-2.198-14.863-4.002 2-2 2-2 3.953-2.047"/><path fill="#6a534d" d="m298 265 1 2h3l-.562 1.875C301 271 301 271 302 273l3 1c.188 3.063.188 3.063 0 6-5.135-2.49-8.622-6.496-12-11l-1-3c3-1 3-1 6-1"/><path fill="#8e7ccd" d="M367 332h1l-.07 1.934-.055 2.503-.07 2.497L368 341l2 1c-2 3-2 3-5 4l-1 3-2.437.438L359 350c-1.062 1.938-1.062 1.938-2 4-2.999 2.068-5.413 2.2-9 2 3.2-3.436 6.769-6.108 10.625-8.75l1.773-1.246C364.75 343 364.75 343 367 343z"/><path fill="#6d554e" d="M349.625 297.063 352 298c.625 2 .625 2 1 4l3 1v2h3l-1 2h2l-2 5-14-12c2.672-3.008 2.672-3.008 5.625-2.937"/><path fill="#43302a" d="m280 312-4 8c-2.441-.407-4.648-1.216-7-2v2l-3-1 2-1-1-3h3v-3c3.927-2.356 6.007-2.053 10 0"/><path fill="#3e3028" d="M236 255v2c-2.721 1.546-5.164 2.837-8.25 3.438-1.75.562-1.75.562-2.875 2.312a149 149 0 0 0-1.812 4.938L222 270l-3 1-2-1c.19-2.985.672-4.608 2.602-6.914C224.57 258.884 229.2 255 236 255"/><path fill="#f3e1d8" d="M92 246h1l-.14 2.152-.11 2.786-.14 2.777L93 256c1.89 1.004 1.89 1.004 4 1l2-3 3 1q-1.65 2.66-3.312 5.313l-1.864 2.988C95 266 95 266 92 269z"/><path fill="#a788ae" d="m109 152 2 1c-.949 1.838-1.91 3.67-2.875 5.5l-1.617 3.094L105 164h-2l-.383 1.68c-.83 3.117-2.461 4.953-4.492 7.445l-2.117 2.633C94 178 94 178 91 180l.938-1.812C93 176 93 176 94 173h2l.5-2.5.5-2.5h2l.688-2.5c1.554-4.145 3.768-6.563 6.753-9.766C108 154 108 154 109 152"/><path fill="#ebe6f8" d="M56 370c3.343 3.098 5.878 6.78 8.572 10.437 2.102 2.837 4.252 5.564 6.615 8.188L73 391l-2 2a91 91 0 0 1-4-4v-2h-2a125 125 0 0 1-4-6l-1 2h-2c-1.939-4.416-2.191-8.217-2-13"/><path fill="#4d3a33" d="M270 312v3l-2 1-1 3 2 1v-2c1.938.375 1.938.375 4 1l1 2a647 647 0 0 1-4.75 1.5l-2.672.844C264 324 264 324 260 324c.573-2.867.861-3.861 3-6l-.75-2-.25-2c2.728-1.212 4.998-2 8-2"/><path fill="#e3d6d0" d="M280 317c1 3 1 3 0 6-2.375 1.75-2.375 1.75-5 3l-3-1c-2.52-.709-4.341-1-7-1l-1 2c-1.666.044-3.334.04-5 0l-3 1c-2.187-.937-2.187-.937-4-2l2.895-.516c8.7-1.63 17.12-3.491 25.105-7.484"/><path fill="#9277c4" d="M406 288h2c-1.342 9.701-2.858 16.793-10 24l-1.594 1.797L395 315l-2-1 1-2h2c1.92-3.072 2.969-6.597 4.21-9.984 1.083-2.764 2.464-5.363 3.79-8.016l1.063-3.375z"/><path fill="#deccf9" d="m422 46 2 1v2h3c1.054 3.25 1.095 4.715 0 8h-4v-7h-3v7h-3v-9h5z"/><path fill="#3e2e2b" d="m328 241 9 3-1 3c-3 1-3 1-6 .438-3-.438-3-.438-6 1.562-1.187 2.125-1.187 2.125-2 4l.125-2.437L322 248l-2-1 2-4 1 2h2l-1-3 4 1z"/><path fill="#4f3e37" d="M284 306c2.125.375 2.125.375 4 1l-1 3 3 1q-2.402 1.724-4.812 3.438l-2.708 1.933C280 318 280 318 277 319l-2-2c1.634-1.708 2.87-2.935 5-4v-2c2-1.125 2-1.125 4-2l-2-1z"/><path fill="#58433e" d="m205 307 1 2 2 1-1 1h3l-1-3 7 1c.063 3 .063 3-1 6-3.89 1.225-7.56.702-11.187-1.066-1.938-1.309-1.938-1.309-4.813-3.934l1-2c2.5-.75 2.5-.75 5-1"/><path fill="#7e6bd5" d="M72 385c2.802-.044 5.366-.016 8 1 .5 3.563.5 3.563 0 7h4c2.25 2.5 2.25 2.5 4 5-1.75.688-1.75.688-4 1-5.173-3.004-9.232-7.754-12-13z"/><path fill="#6a554a" d="M378 244c3.923 3.203 7.608 6.48 11.063 10.188l1.847 1.98L392 258l-2 3-2-3-2 1v-2l-3-1v-4h-2v-3l-2.062-1-1.938-1z"/><path fill="#a38691" d="m128 135 3 1c-2.564 2.564-5.127 5.121-7.75 7.625C121 146 121 146 120 149c-1.703.982-3.41 1.96-5.145 2.883-2.758 1.66-4.686 3.751-6.855 6.117 1.406-4.921 4.118-6.83 8-10l1.375-2.375c2.47-3.99 6.047-6.641 9.625-9.625z"/><path fill="#664b67" d="M90 302h2v2h2v3l3 1v4h3c1.387 1.898 1.387 1.898 2.688 4.375l1.324 2.46C105 321 105 321 105 323h2c.625 2.5.625 2.5 1 5l-2-1v-3l-3-1a89 89 0 0 1-4.437-6.062l-1.21-1.775C94.514 310.93 92.1 306.653 90 302"/><path fill="#ede9f8" d="M437 367c1.607 3.215.85 5.601 0 9l-2.5.875L432 378c-.779 2.981-.93 5.927-1 9l-2-3-2 2c-2.125.625-2.125.625-4 1l2.625-3.5 1.648-2.203a610 610 0 0 1 3.391-4.469l1.586-2.078 1.453-1.89c1.314-1.884 2.323-3.784 3.297-5.86"/><path fill="#f0e1f9" d="M336 361c-4.085 2.723-8.46 4.355-13 6.188l-2.773 1.154-2.664 1.076-2.434.993C313 371 313 371 310 370c3.378-2.22 6.065-3.235 10-4l1-2c2.11-1.105 2.11-1.105 4.75-2.187l2.61-1.106c2.957-.792 4.723-.53 7.64.293"/><path fill="#8375bf" d="M59 374c1.938.813 1.938.813 4 2l1 3 2.5.375L69 380l.348 2.246c.885 3.738 2.686 4.988 5.59 7.442l2.714 2.324L80 394l2 2-3 1c-1.53-1.029-1.53-1.029-3.145-2.648l-1.794-1.787-1.874-1.94-1.904-1.936C65.909 384.161 62.07 379.526 59 374"/><path fill="#7661de" d="m361.125 417.375 2.633.273C366 418 366 418 368 419l1-2h4v2c-4.105 2.251-8.177 2.335-12.75 2.313l-2.074.048c-1.973.002-1.973.002-5.176-.361l-1-3c3.218-1.003 5.786-.994 9.125-.625"/><path fill="#eee2f7" d="M364 341h3v2a139 139 0 0 1-7.25 5.063l-2.066 1.392c-3.234 2.138-5.846 3.761-9.684 4.545l1-3h3q.53-1.992 1-4c3-2 3-2 6.063-3 2.937-1 2.937-1 4.937-3"/><path fill="#f0e2d9" d="M378 241c1.938.813 1.938.813 4 2l1 3c2.563.188 2.563.188 5 0l-1 4 2.563.125L392 251c-.187 3.063-.187 3.063-1 6a1134 1134 0 0 1-3.426-3.437 187 187 0 0 0-3.43-3.313l-1.894-1.812-1.797-1.692c-1.598-1.92-2.047-3.306-2.453-5.746"/><path fill="#725ed9" d="m169 464 3 2a617 617 0 0 1-3.875 3l-2.18 1.688C164 472 164 472 162 472v2q-3.467 1.115-7 2l1-4 4 1-.375-2.375L160 468c2.813-1.187 2.813-1.187 6-2z"/><path fill="#8874e3" d="M120 343c5.092 2.864 10.066 5.873 15 9l-3 1-2-1a95 95 0 0 0-5.125-.062l-2.758.027L120 352z"/><path fill="#8d73de" d="M399 309c1.162 3.487 1.274 4.575 0 8-1.682 1.636-3.435 3.06-5.309 4.473-1.869 1.687-2.707 3.228-3.691 5.527-1-2-1-2-.187-5.125L391 319h2v-4l1.875-.437L397 314c1.25-2.562 1.25-2.562 2-5m-12 18 2 1-2 1z"/><path fill="#aa8dd0" d="M89 180h2v4h-2c-.562 2.313-.562 2.313-1 5l-1 3h-2c-.36 1.661-.69 3.329-1 5l-2 3c.313-7.635 1.412-14.412 7-20"/><path fill="#725ddb" d="m127 480 10 1-.75 2.938L136 487l4 1h-9v-2l-2-1-2-2z"/><path fill="#7561dc" d="M192 444h5v3h-3l-.375 1.938L193 451q-2.488.56-5 1l-1 3c-1.562-1.25-1.562-1.25-3-3 .313-2.187.313-2.187 1-4l5 2v-2h2z"/><path fill="#b698f0" d="m46 89 1 3-1 2a95 95 0 0 0-.062 5.125l.027 2.758L46 104h-2c-1.07 1.969-1.07 1.969-2.125 4.5l-1.07 2.531L40 113c-1.09-3.271-.922-4.157-.074-7.379l.666-2.54.72-2.644.686-2.654C43.741 91.26 43.741 91.26 46 89"/><path fill="#8677c7" d="M80 397h4v2c2.313.563 2.313.563 5 1l3 1v2l2 1a187 187 0 0 1 4 6c-3.228-1.51-6.08-3.336-9-5.375l-2.562-1.773c-2.364-1.796-4.395-3.704-6.438-5.852"/><path fill="#493936" d="M172 241c2.063 2 2.063 2 3 4l-1 1 2 1-1 3v-2c-1.863-.562-1.863-.562-4.312-1-3.324-.6-4.786-1.065-7.688-3l-1 1c-.687-1.937-.687-1.937-1-4 3.893-1.298 7.055-1.09 11 0"/><path fill="#8b75e2" d="M42 331h4c2.067 5.684 2.25 11.002 2 17l-2-1a257 257 0 0 1-2-7l-1.125-2.125c-1.11-2.379-1.019-4.282-.875-6.875"/><path fill="#fcf0ea" d="m206 238 2 3a201 201 0 0 1-3 6l1 3c.222 1.892.406 3.789.563 5.688l.253 3.011L207 261l-2-2-2 1c-.554-15.93-.554-15.93 3-22"/><path fill="#b190e2" d="m114 143 2 1a396 396 0 0 1-2.375 4c-.44.743-.882 1.485-1.336 2.25L111 152h-2a178 178 0 0 0-2 4c-1.625 1.75-1.625 1.75-3 3-.437-2.562-.437-2.562 0-6 2.07-2.637 4.495-4.785 7-7l1.605-1.77z"/><path fill="#eadfd6" d="m189 277 2 1c-.062 2.5-.062 2.5-1 5a88 88 0 0 1-5 1c-1.312 2.063-1.312 2.063-2 4-2.13-1.065-3.366-2.292-5-4l2.152-1.277 2.786-1.66 2.777-1.653C188 278 188 278 189 277"/><path fill="#f2e3dc" d="M361 224.188c2 .812 2 .812 3.25 2.75C365 229 365 229 365 231c-1.687.813-1.687.813-4 1-2.812-1.187-2.812-1.187-5-3 .063-2.125.063-2.125 1-4 2-1 2-1 4-.812"/><path fill="#8c7cd0" d="M39 319c3.477 3.635 4.484 8.112 5 13l-1 4 1 3.5c.978 3.424 1.009 4.306 0 7.5-3.396-8.953-5.235-18.392-5-28"/><path fill="#bc9ed6" d="M250 51c1.813 2.813 1.813 2.813 2 6-2.375 1.875-2.375 1.875-5 3l1-7h-6v2c-2 .625-2 .625-4 1 2.433-5.388 6.296-6.291 12-5"/><path fill="#7567be" d="m389 411 2 1c-5.623 4.338-12.185 7.072-19 9-2.398-.363-2.398-.363-4-1l2.438-.875C373 418 373 418 374 416c1.855-.527 1.855-.527 4.188-.937 4.009-.792 7.168-2.197 10.812-4.063"/><path fill="#6f5952" d="m108 248 2 1v3l2-1c-.687 2.5-.687 2.5-2 5-2.5.125-2.5.125-5 0l-2 3c-2.125-.312-2.125-.312-4-1a651 651 0 0 1 4.375-5.062l2.46-2.848z"/><path fill="#a98aa4" d="m196 95 1 2h-3l-.328 1.828C193 101 193 101 190.453 102.484l-3.203 1.266-3.172 1.297c-2.91.9-5.062 1.154-8.078.953v-2c2.45-.93 2.45-.93 5.688-1.875 4.571-1.436 7.768-2.81 11.312-6.125z"/><path fill="#796cbc" d="M125 483c2.033.932 4.034 1.935 6 3v2l15-1c-3.026 3.026-5.77 3.175-9.875 3.25-4.165-.049-6.92-.355-10.125-3.25-.812-2.187-.812-2.187-1-4"/><path fill="#c3aceb" d="M81 35c1.188 1.813 1.188 1.813 2 4-1.312 1.563-1.312 1.563-3 3l-1 3h-2v2q-3.467 1.116-7 2l2.313-2.062c2.28-2.493 3.151-3.658 4.312-6.626C78 37 78 37 81 35"/><path fill="#cab6e7" d="M141 8v2c-1.864.702-1.864.702-4.453 1.324l-2.817.678-2.98.685-2.934.721-2.832.666-2.602.612c-2.46.324-4.044.086-6.382-.686l2.852-.805 3.773-1.07 3.727-1.055a162 162 0 0 0 6.93-2.195c2.744-.883 4.857-1.043 7.718-.875"/><path fill="#f6f2ff" d="M237 429c2.867-.34 2.867-.34 6.66-.293l2.014.013c2.13.017 4.259.054 6.388.092q2.161.024 4.323.042 5.307.051 10.615.146v1c-2.921.22-5.824.38-8.75.5-7.434.344-14.839.805-22.25 1.5z"/><path fill="#edddf7" d="m287.375 374.875 3.773.055L294 375c-5.65 3.767-13.3 4.362-20 4v-2c4.526-1.991 8.475-2.217 13.375-2.125"/><path fill="#bda8de" d="M407 33c5.687 3.021 11.533 7.128 14.5 12.938L422 48c-2.937-.187-2.937-.187-6-1-.625-2.375-.625-2.375-1-5-2.062-1.687-2.062-1.687-4-3v-2h-3c-.687-2-.687-2-1-4"/><path fill="#7663d9" d="m208 433 5 2c-1.42 2.838-3.442 4.173-6 6h-3v2l-3 2-3-1c.563-1.875.563-1.875 2-4l3.563-.937L207 438c.938-2.625.938-2.625 1-5"/><path fill="#7e71bd" d="m107 412 3 1v2l2.125.813c4.611 1.904 7.974 4.535 10.375 8.937l.5 2.25-2 1a149 149 0 0 1-4-6c-2.353-2.769-4.93-4.122-8.187-5.687l-2.731-1.325L104 414z"/><path fill="#e3d6ce" d="M275 271h1q.56 2.488 1 5l2-1c.813 2.75.813 2.75 1 6-2.69 2.844-5.11 4.424-9 5l1.438-2.437c1.653-3.77 2.07-6.75 2.351-10.805z"/><path fill="#a5868d" d="M245 56v7h-2l.188 2.438L243 68l-3 1-1 3v-4h2l-.324-1.863-.363-2.45-.387-2.425C240 59 240 59 241.356 57.207 243 56 243 56 245 56"/><path fill="#836de0" d="M167 369h2v2c2.322.402 4.659.727 7 1 2.438.375 2.438.375 4 1v3l-3.25-.5C173 375 173 375 169 375c-1.415-2.123-2-3.442-2-6"/><path fill="#7560dd" d="m231.625 424.313 2.477.238L236 425v2l4 1-16 1 1-4c2.496-1.248 3.87-.98 6.625-.687"/><path fill="#f1edf9" d="m83 400 11 7c-3 2-3 2-5.043 2.004-2.221-.457-3.994-.855-5.957-2.004-.5-3.625-.5-3.625 0-7"/><path fill="#8a74d0" d="m353 356-1 3c-1.661.36-3.329.69-5 1-2.312 1.563-2.312 1.563-4 3l-1-2-3-1c4.91-3.927 7.74-4.432 14-4"/><path fill="#8973e5" d="m369 342 2 2-2 2-.437 3.125L368 352h-3q-3.005.47-6 1v-3l2.438-.437L364 349c.625-2 .625-2 1-4l3-1z"/><path fill="#b995c0" d="M240 69c1.238 3.576.75 6.337 0 10l5-1c-1.933 2.025-3.632 3.421-6 5h-3c.99-4.836 1.957-9.476 4-14"/><path fill="#f9edfd" d="M336 4c6.74-.26 13.464.235 20 2v2q-6.002-.471-12-1l-2.578-.219c-1.817-.183-3.623-.47-5.422-.781z"/><path fill="#e7def9" d="M451 336h2c.188 3.375.188 3.375 0 7l-3 2c-.844 2.094-.844 2.094-1.5 4.5-1.167 4.278-1.167 4.278-4.5 6.5.98-3.007 1.986-6.004 3-9l1.02-3.047 1.043-3.015.972-2.848z"/><path fill="#6d5149" d="M130 305c2 0 2 0 4.438 2.125L136 310c-1.294 2.523-2.936 3.983-5 6-2.363-2.363-2.747-3.709-3-7l3-1z"/><path fill="#402e28" d="M290 299c2.5-.125 2.5-.125 5 1 .813 2.563.813 2.563 1 5-2.375.625-2.375.625-5 1l-2-2c.063-2.687.063-2.687 1-5"/><path fill="#69534b" d="M177 281c2 1 2 1 3 3q-2.934 1.256-5.875 2.5l-3.305 1.406C168 289 168 289 166 289v-3l5-1v-3l2.438.063C176 282 176 282 177 281"/><path fill="#6a534a" d="M350 226c3.967.97 6.888 2.367 10 5l-2.875.938C354 233 354 233 352 234a101 101 0 0 1-3-6z"/><path fill="#cdb7f2" d="M397 47c2.563-.312 2.563-.312 5 0v3l-3 1 3 1c.688 2.563.688 2.563 1 5-3.419-1.14-4.8-2.171-7-5-.062-2.75-.062-2.75 1-5"/><path fill="#7362cb" d="M143 480c3.438-.125 3.438-.125 7 0l1 2h-2v2l-2 2v1h-6l1-1.812c1-2.188 1-2.188 1-5.188"/><path fill="#e7e2f8" d="m183 459 2 1c0 3 0 3-1 5l-4-1-1 2h-2l-1.375 2.063L174 470c-2.102-.379-2.102-.379-4-1l1.574-1.172c.698-.52 1.395-1.041 2.113-1.578l2.208-1.645c1.7-1.296 3.349-2.66 4.98-4.043.701-.515 1.403-1.03 2.125-1.562"/><path fill="#8b75e3" d="m450 320 2 1c.448 5.377-.13 10.908-2 16h-2l1-7h-1c-.18-3.947-.094-6.598 2-10"/><path fill="#efe0d9" d="M286.688 295.75 289 296a217 217 0 0 1-2.25 3.938l-1.266 2.214c-1.74 2.167-2.78 2.484-5.484 2.848.647-4.656 1.457-8.763 6.688-9.25"/><path fill="#5a4039" d="M145 254h1c.515 3.28.906 6.568 1.305 9.863.698 3.149 1.177 4.231 3.695 6.137l-6 1c-.952-5.817-1.211-11.186 0-17"/><path fill="#786bb9" d="M174 465c-1.311 3.933-3.825 5.368-7.062 7.688-.568.415-1.136.83-1.721 1.26Q163.114 475.481 161 477l-1-3h2v-2c2.117-1.727 2.117-1.727 4.875-3.625l2.742-1.914C172 465 172 465 174 465"/><path fill="#eeeaf8" d="M99.375 410.75c2.498 1.19 4.487 2.508 6.625 4.25-3.017.627-5.912 1.152-9 1-1.687-2.375-1.687-2.375-2-5 2-1 2-1 4.375-.25"/><path fill="#8676c0" d="M445 349c1 3 1 3-.582 6.54a311 311 0 0 1-2.23 4.085l-1.12 2.102c-2.793 5.136-2.793 5.136-5.068 6.273.598-4.062 1.928-7.058 3.938-10.625l1.59-2.852A109 109 0 0 1 445 349"/><path fill="#f0e3dc" d="M342 298q2.041 1.423 4.063 2.875l2.285 1.617L350 304l-1 2c-3.26-.176-4.836-.874-7.437-2.875L340 301z"/><path fill="#9c8294" d="M80 272h2a69 69 0 0 1 1 5q.765 2.723 1.563 5.438c1.105 3.97 1.774 7.409 1.437 11.562l-.937-1.937C84 290 84 290 83 289a232 232 0 0 1-.621-5.992C82 281 82 281 80 278c-.125-3.187-.125-3.187 0-6"/><path fill="#a38692" d="M384 160h2l2 5h2v3h2c1.688 2.875 1.688 2.875 3 6l-1 2c-3.2-1.6-4.093-4.766-5.684-7.871C387 166 387 166 384 164z"/><path fill="#d5bcfc" d="M403 45h-7a241 241 0 0 0 .813 4.375l.457 2.46C398 54 398 54 401 56l-7 2c.033-2.313.102-4.626.188-6.937l.105-3.903L395 44c3.685-1.663 4.6-1.267 8 1"/><path fill="#eae5fb" d="M372 422c-2.497 3.286-3.732 3.958-7.89 4.61q-2.18.098-4.36.14l-2.258.09c-1.83.07-3.661.117-5.492.16 3.555-1.974 7.228-3.06 11.125-4.187l3.758-1.106C370 421 370 421 372 422"/><path fill="#8875dd" d="M101 324c5.875 4.625 5.875 4.625 7 8l3 2-6 2-.367-1.715-.508-2.223-.492-2.214C103 328 103 328 101 327z"/><path fill="#46352e" d="m271 281 2 3c-2.623 3.163-5.182 5.444-9 7 .625-2.917 1.378-5.477 3-8h3z"/><path fill="#6c564f" d="M307 278c3 .875 3 .875 6 2v2h3c.688 2 .688 2 1 4-3.794-1.45-7.505-2.92-11-5z"/><path fill="#e7ddd4" d="M226 257c0 2 0 2-1.68 3.762l-2.195 1.925-2.18 1.95L218 266l-2-1c.75-2.562.75-2.562 2-5h2v-2c2-1 2-1 6-1"/><path fill="#7260d0" d="m182 457-1 3h-3l1 3c-2.437 1.688-2.437 1.688-5 3 0-3.441.69-5.828 2-9 3-1 3-1 6 0"/><path fill="#eee1d9" d="M304 281c2.066.559 2.066.559 4.563 1.438l2.503.87L313 284c-1.75 2.063-1.75 2.063-4 4-2.25-.25-2.25-.25-4-1l2-1h-2c-1.187-1.937-1.187-1.937-2-4z"/><path fill="#70564d" d="M392 260c3.394 3.126 5.606 5.565 7 10-2.437.688-2.437.688-5 1-1-3-1-3-1-5a449 449 0 0 0-1-6"/><path fill="#f0e5dc" d="M106 206h4v10h-2v-4c-2-.75-2-.75-4-1 .75-2.5.75-2.5 2-5"/><path fill="#b497e5" d="m351 120 2 1v3h4v3l2-1c1.625 2.438 1.625 2.438 3 5-3.375-.547-5.082-1.055-8-3v-3l-3-1z"/><path fill="#866de5" d="m52 352 3 1c.617 1.813.617 1.813.875 4l.305 2.188L56 361l-3 1c-1.673-2.844-2.063-4.53-1.625-7.812z"/><path fill="#9c7ec7" d="M76 264h2c.484 2.738.484 2.738.75 6.313l.297 3.55C79 277 79 277 77 280c-1.067-3.462-1.102-6.64-1.062-10.25l.027-3.266z"/><path fill="#e5d7cf" d="M290 262c2.524 2.524 3.276 4.524 4 8-2.073 1.629-3.376 2-6 2-.18-3.947-.094-6.598 2-10"/><path fill="#4a3835" d="m337 252 1 4c2-.375 2-.375 4-1v-2h2v11l-2-4-3-1-1 2z"/><path fill="#473831" d="M236 255v2c-3.287 1.868-6.347 3.118-10 4l-3 2v-3c2.082-1.387 2.082-1.387 4.813-2.687l2.707-1.325C233 255 233 255 236 255"/><path fill="#8b70e5" d="M379 333c2.625-.187 2.625-.187 5 0l-1 3-1.812.25c-2.754.944-2.937 1.791-4.25 4.313-.64 1.134-1.28 2.268-1.938 3.437h-3l1-3h2a104 104 0 0 0 2-5z"/><path fill="#957add" d="m408 288 3 1-5 15-2-1a88 88 0 0 1 1.875-7.562l.605-2.155A637 637 0 0 1 408 288"/><path fill="#705b56" d="M366 235c4.044 1.78 7.46 4.395 11 7l-2 2-3-3-1 2-6-6z"/><path fill="#f0e2d8" d="m141 171 3 1-1 2-2-1v2c-2.812 1.25-2.812 1.25-6 2l-3-2c4.5-4 4.5-4 9-4"/><path fill="#ac948a" d="M235 163c2.941-.195 2.941-.195 6.563-.125l3.628.055L248 163v1q-2.99.56-6 1l1 3c-3.735-.498-5.812-.875-9-3z"/><path fill="#f3e3d8" d="M222 160c4.234 1.31 8.074 2.944 12 5l-1 2c-2.682.283-5.298.086-8 0l1-2a91 91 0 0 0-4-4z"/><path fill="#dec9fc" d="M409 48h7v8h-5l.688-2.875L412 50z"/><path fill="#826bdf" d="M292 379c-.5 2.063-.5 2.063-2 4-2.765.17-5.348-.215-8-1l-2-2c4.053-.982 7.839-1.082 12-1"/><path fill="#f6e9fc" d="M208 376c6.808-.262 13.35.481 20 2v1q-3.312.079-6.625.125l-3.727.07c-3.601-.192-6.328-.816-9.648-2.195z"/><path fill="#483831" d="M250.063 291.25C252 292 252 292 254 294q-2.812.508-5.625 1l-3.164.563c-3.117.424-6.07.512-9.211.437 2.223-1.235 4.051-2.01 6.563-2.5 2.989-.613 4.452-2.62 7.5-2.25"/><path fill="#e3d7cf" d="M268 288c2 1 2 1 3 3l-1 3h-3l-1-1c-.64.35-1.279.701-1.937 1.063L262 295l-2-2a351 351 0 0 1 3.875-2.562l2.18-1.442z"/><path fill="#e5dede" d="M333 247c-2 2-2 2-4.625 2.125L326 249v5h-3c-.25-2.312-.25-2.312 0-5 3.13-3.612 5.595-3.101 10-2"/><path fill="#a68ad2" d="M79 200h3c-.601 5.65-2.075 10.662-4 16-1.228-3.614-.845-6.515-.25-10.25l.484-3.266z"/><path fill="#eeded7" d="M363 323h2c1.725 3.354 2.523 6.236 2 10l-3 1-.437-2.75C363 328 363 328 362.375 325.688L362 324z"/><path fill="#6a5170" d="M99 314c3.97 2.382 4.657 4.684 6 9h2c.625 2.5.625 2.5 1 5l-2-1v-3l-3-1c-1.422-1.559-1.422-1.559-2.75-3.437l-1.36-1.872L98 316z"/><path fill="#3e2923" d="M226 314v2l3 2c-.812 2.125-.812 2.125-2 4l2 1c-1.937-.25-1.937-.25-4-1l-.437-2.062L224 318c-2.562-.25-2.562-.25-5 0 4.75-4 4.75-4 7-4"/><path fill="#47312c" d="M284 306c2.125.375 2.125.375 4 1l-1 3 3 1-2 2c-3.125-.25-3.125-.25-6-1v-2l2-1-2-1z"/><path fill="#eee1d8" d="M352 218c-6.5 3.104-10.89 4.58-18 3 3.693-2.462 5.638-2 10-2 5.095-1.968 5.095-1.968 8-1"/><path fill="#efdfd6" d="M376 194c2.969 2.545 4.362 5.49 6 9l-1.875.375C378 204 378 204 376 206l.563-2.75c.4-2.98.33-4.47-.563-7.25z"/><path fill="#b5a1da" d="M42 94c1.352 3.738.654 6.458-.312 10.25l-.801 3.266L40 110h-2q.426-2.877.875-5.75l.492-3.234C39.932 98.323 40.634 96.364 42 94"/><path fill="#bc9ef3" d="M432 64c3.81 1.27 4.176 2.511 6 6a123 123 0 0 1 2 5l-2-1v-2l-2.437.5L433 72c-.82-2.634-.933-5.253-1-8"/><path fill="#e9e5f8" d="M168 472c-1.29 2.878-2.454 5.09-5 7-3.187.688-3.187.688-6 1 7.784-8 7.784-8 11-8"/><path fill="#776abc" d="M242 428v1a148 148 0 0 1-6.812 1.625l-3.833.852C228 432 228 432 225 431c5.575-3.616 10.606-3.307 17-3"/><path fill="#eae5fa" d="M414 395c1 4 1 4 0 6l-2.375.438c-2.876.616-3.789 1.34-5.625 3.562l-2-2z"/><path fill="#412b26" d="m196 301 7 2-2 1v2h-2l1 3c-2-.625-2-.625-4-2-.25-3.125-.25-3.125 0-6"/><path fill="#6d5147" d="M90 276h3c-.414 4.833-2.464 6.827-6 10 .75-6.625.75-6.625 3-10"/><path fill="#f0e9ec" d="m326 249 3 1h-2l.938 2.25c.871 2.257 1.539 4.395 2.062 6.75-2.5-.75-2.5-.75-5-2 0-3.113.174-5.108 1-8"/><path fill="#7c68e6" d="M394 405c-.246 1.922-.246 1.922-1 4-1.848.828-1.848.828-4.062 1.25-.734.15-1.467.3-2.223.453L385 411c2.444-4.54 3.627-6 9-6"/><path fill="#e4d7f4" d="M165 366a669 669 0 0 1 15 2l-1 3c-4.979-.243-9.442-2.114-14-4z"/><path fill="#a190c4" d="M367 332h1l-.07 1.934-.055 2.503-.07 2.497L368 341l2 1c-2 3-2.738 3.814-6 5l-3-1c3.75-3 3.75-3 6-3z"/><path fill="#614c59" d="m374 331 1 2c-1.762 3.617-3.643 5.8-7 8 .414-4.833 2.464-6.827 6-10"/><path fill="#34241d" d="M263 258q1.79.921 3.563 1.875l2.003 1.055L270 262l-1 2c-2.562.625-2.562.625-5 1v-2c-1.5-1.625-1.5-1.625-3-3h2z"/><path fill="#705d53" d="M117 240c1 3 1 3 1 6l-1.875-.812L114 245c-1.25 2.438-1.25 2.438-2 5l-1-2-2-1z"/><path fill="#eee1fa" d="m304.688 370.938 2.449.027L309 371c-3.837 2.558-7.757 4.345-12.437 3.625L295 374h2v-2c2.882-.96 4.699-1.106 7.688-1.062"/><path fill="#5e4a44" d="M270 312v3l-2 1v2c-2.437-.312-2.437-.312-5-1l-1-3c5.75-2 5.75-2 8-2"/><path fill="#3d2e31" d="M323 254c2.563 2.375 2.563 2.375 5 5l-1 2h-2v-2l-3 1v-2l-2-1zm-1 7 3 1-4 1z"/><path fill="#a487bc" d="M410 208c2.807 1.953 3.036 3.191 3.688 6.625.414 4.455.405 8.905.312 13.375h-1a176 176 0 0 1-1-7.187c-.527-4.305-1.078-8.572-2-12.813"/><path fill="#eee2d8" d="m139 224 3 2-12 5v-3c1.863-1.238 1.863-1.238 4.313-2.312l2.425-1.114z"/><path fill="#f1dfd5" d="m156 161-1 3h-3l1 3h-8c2.76-3.22 6.647-6 11-6"/><path fill="#f4e8fd" d="m74 38 4 1-7 7-2-3c2.125-2.75 2.125-2.75 5-5"/><path fill="#bfa2e9" d="M104 23v2c-6.083 4.094-6.083 4.094-9.437 3.75L93 28h2v-2h3v-2c2-1 2-1 6-1"/><path fill="#efe9f8" d="M42 342c2.686 2.686 3.06 5.376 4 9h-2c-1.125 2-1.125 2-2 4l-1-5h2l-1-3-1-3z"/><path fill="#f7f1ed" d="m133 345 3.938-.187 2.214-.106L141 345l1 3h-2v2l-3 1-1-3c-1.562-1.687-1.562-1.687-3-3"/><path fill="#dfd1ca" d="M197 298h12v2h-2c-.625 2-.625 2-1 4l-1.687-1.937c-2.544-2.269-4.01-2.604-7.313-3.063z"/><path fill="#faf1e8" d="m224 290 1 2c-2.25 1.813-2.25 1.813-5 3-1.812-1.187-1.812-1.187-3-3v-2c2.698-1.349 4.152-.803 7 0"/><path fill="#efe4dc" d="M297 275c2.884 1.293 4.872 2.66 7 5l-3 2-2-2-3 2z"/><path fill="#75615b" d="m164 220-2 3v-2l-3.125 1.563c-3.6 1.56-6.05 1.557-9.875.437v-1c4.955-1.509 9.815-2.266 15-2"/><path fill="#beaae0" d="M444 78c2.381 2.381 3.002 4.339 4.125 7.5l1.07 2.969C450 91 450 91 450 93h-2c-.816-1.715-.816-1.715-1.562-3.937-1.355-3.98-1.355-3.98-2.438-5.063-.04-2-.043-4 0-6"/><path fill="#d6c2f4" d="M423 50c2.563.688 2.563.688 5 2 .063 2.625.063 2.625-1 5h-4z"/><path fill="#d7c1fb" d="M404 46h1v10h-3v-4c-2-.75-2-.75-4-1 2.438.313 2.438.313 5 0 .75-2.5.75-2.5 1-5"/><path fill="#806be6" d="M427.188 373.125 429 374c-.062 2.438-.062 2.438-1 5l-3 2c-1.125-3.437-1.125-3.437-2-7 2-1 2-1 4.188-.875"/><path fill="#442f2a" d="M208 306c2.625.938 2.625.938 5 2l-3 1 2 2c-1.875 1.063-1.875 1.063-4 2l-2-1c-.25-2.5-.25-2.5 0-5z"/><path fill="#6c514d" d="M403 283h1c.08 1.812.139 3.625.188 5.438l.105 3.058L404 294l-3 1a280 280 0 0 1-.125-4.312l-.07-2.426C401 286 401 286 403 283"/><path fill="#9b7f74" d="M90 267c2.063.188 2.063.188 4 1v2h-2c-.598 1.75-.598 1.75-1.062 4a78 78 0 0 1-.938 4h-1c-.125-7.625-.125-7.625 1-11"/><path fill="#a687d4" d="M414 219h1a70 70 0 0 1 1.125 4.75l.57 2.672c.302 2.549.106 4.165-.695 6.578l-2-1c-.195-2.941-.195-2.941-.125-6.562l.055-3.63z"/><path fill="#c4aee4" d="m111 17 1 2c-4.708 3.237-8.34 4.538-14 5 1.594-3.188 4.846-3.742 8-5l2.875-1.312z"/><path fill="#7763d7" d="M357 422v1c-4.985 1.4-9.867 2.358-15 3 1-2 1-2 3-3.125 4.04-1.178 7.822-1.039 12-.875"/><path fill="#816be6" d="m321 373-2 3c-3.625.188-3.625.188-7 0v-2c3.353-1.77 5.41-2.33 9-1"/><path fill="#705951" d="m123 323 2 2c-.25 2.625-.25 2.625-1 5h-2l-1 3-1-8h2z"/><path fill="#f1e3da" d="m147 299 2 4-7 3c.398-2.886.79-3.822 3.063-5.75z"/><path fill="#786059" d="M292 235c1.563 1.875 1.563 1.875 3 4l-1 2-2-1-.375 2-.625 2h-2c.498-3.735.875-5.812 3-9"/><path fill="#ab9286" d="M265 154c2.063.438 2.063.438 4 1h-2v2l2 1-1 3h-3c-.75-2.937-.75-2.937-1-6z"/><path fill="#a68896" d="m148 120 2 1-3 1-.812 1.938C145 126 145 126 141.875 127.25L139 128c5.93-6.094 5.93-6.094 9-8"/><path fill="#e6e1f9" d="m422 387 1 4h-2l-.875 2.063L419 395l-4-1z"/><path fill="#7f6ae4" d="M72 385c1.335.06 2.668.148 4 .25l2.25.14L80 386v4c-2.5-.375-2.5-.375-5-1v-2l-3-1z"/><path fill="#efe2f5" d="M123 338c2.563.813 2.563.813 5 2l-1 3 2 1-1 2c-2.5-1.187-2.5-1.187-5-3-.312-2.687-.312-2.687 0-5"/><path fill="#604c46" d="M289 298c2.125.375 2.125.375 4 1l-3 1-1 3 3 1h-3l-1 2-2-2c.367-2.935.864-3.864 3-6"/><path fill="#e8d9d2" d="M172 287c0 2.563 0 2.563-1 5-2.757.163-5.32-.384-8-1 2.566-2.566 5.315-4 9-4"/><path fill="#987f90" d="M407 280h1c.195 6.152.195 6.152 0 8l-2 1c-.364 1.66-.7 3.327-1 5h-1c-.406-5.419.885-9.094 3-14"/><path fill="#cfbcb6" d="M202 246h1c.353 2.45.611 4.85.813 7.313l.232 2.091c.162 2.022.162 2.022-.045 5.596-1.988 1.98-1.988 1.98-4 3q.46-4.5.938-9l.263-2.602c.23-2.137.51-4.268.799-6.398"/><path fill="#dfd8d9" d="m164 246 2 1-4 4h2v2h-2l-1 2c-.75-2.25-.75-2.25-1-5 1.813-2.375 1.813-2.375 4-4"/><path fill="#e9dad1" d="m127 179 2 1c-.75 2.563-.75 2.563-2 5h-2l-1 2-3-2c.949-1.03 1.91-2.048 2.875-3.062l1.617-1.723z"/><path fill="#b093c3" d="M386 160c1.875.313 1.875.313 4 1 2 3 2 3 2 7h-2v-3h-2c-1.125-2.5-1.125-2.5-2-5"/><path fill="#f6ecfd" d="M448 86c4 2 4 2 5.438 5.563L454 95l-3 1z"/><path fill="#c0aae4" d="m427 54 1 2 2.438.813C433 58 433 58 434.313 60.625L435 63l-3 1a156 156 0 0 1-2-5l-3-1z"/><path fill="#715b54" d="M347 297c2.188.75 2.188.75 4 2v2h-2l-1 2-4-4z"/><path fill="#5e463f" d="M385 257h3c3 3.333 3 3.333 3 6h-5l1-3h-2z"/><path fill="#ebddd5" d="m198 225 1 2-2 2zm-3 3a99 99 0 0 1 5 3l-3 3a99 99 0 0 1-3-5z"/><path fill="#f3e2da" d="m100 218 1 2h2c-.349 3.255-1.021 4.019-3.562 6.25L97 228z"/><path fill="#eee8fb" d="m74 392 6 5-3 2c-2.25-1.125-2.25-1.125-4-3 .25-2.187.25-2.187 1-4"/><path fill="#927ec9" d="M118 340c2.5.375 2.5.375 5 1v2c2.5 1.125 2.5 1.125 5 2l-3 2c-2.687-1.75-2.687-1.75-5-4v-2z"/><path fill="#e9d9d2" d="M269 308c2.625.375 2.625.375 5 1-2 3-2 3-4.625 3.688L267 313c0-3 0-3 2-5"/><path fill="#523d38" d="m205 307 1 2 2 1h-4v2l-5-2 1-2c2.5-.75 2.5-.75 5-1"/><path fill="#e5d8ce" d="m140 304 1 3 2 1-1 2-2-1v2h-2v-2l-2-1z"/><path fill="#54413b" d="m202 299-1 3c-2.562-.312-2.562-.312-5-1v2l2 1h-2l-1 2c-.125-2.937-.125-2.937 0-6 2.463-1.231 4.28-1.072 7-1"/><path fill="#735a50" d="m323 283 2 2c-.375 2.125-.375 2.125-1 4l-6-2c2.375-2.125 2.375-2.125 5-4"/><path fill="#59453c" d="M290 259c2 .875 2 .875 4 2v2h2l-2 4c-2.9-2.395-3.502-4.312-4-8"/><path fill="#ece8e8" d="M166 253c2.188 2.438 2.188 2.438 4 5-2.937.25-2.937.25-6 0-1.062-1.937-1.062-1.937-1-4z"/><path fill="#ece7e3" d="m174 248 2 2c-.25 2.563-.25 2.563-1 5l-2 1c-.625-3.437-.625-3.437-1-7z"/><path fill="#a48c83" d="M242 165c3.438-.187 3.438-.187 7 0l1 3c-3.437.188-3.437.188-7 0z"/><path fill="#bfa3f4" d="M77 42h2v3h-2v2q-3.467 1.116-7 2z"/><path fill="#f9fbf1" d="m121 486 1 2h3c-.25 2-.25 2-1 4h-4z"/><path fill="#796bc3" d="M182 456c2.063.313 2.063.313 4 1-2.312 2.5-2.312 2.5-5 5h-3v-2l3-1z"/><path fill="#e3def5" d="M219.438 436.75 221 438l-2.312.375C216 439 216 439 213 441l-3-1c6.4-4.185 6.4-4.185 9.438-3.25"/><path fill="#e9e5fa" d="M237 429c2.066-.293 2.066-.293 4.563-.187l2.503.082L246 429l-1 2c-2.066.414-2.066.414-4.562.625l-2.504.227L236 432z"/><path fill="#846edd" d="m196 378 10 1-4 1v2c-2-.375-2-.375-4-1v-2z"/><path fill="#e9e3f7" d="M51 362c4 4.625 4 4.625 4 8-1.937-.187-1.937-.187-4-1-.812-2.437-.812-2.437-1-5z"/><path fill="#e1d4f5" d="M148 358c5.461.352 5.461.352 8 1 1.5 2.063 1.5 2.063 2 4-3.912-1.156-6.875-2.355-10-5"/><path fill="#faf2e8" d="M200 314c2 1.313 2 1.313 4 3v3h-5z"/><path fill="#6a554d" d="M186 224c2.688 1.188 2.688 1.188 5 3l-1 3-6-4z"/><path fill="#bea7ef" d="m410 49 3 1c-.312 2.563-.312 2.563-1 5l-3-1c.313-2.562.313-2.562 1-5"/><path fill="#ded4f2" d="M132 345c2.188 1.25 2.188 1.25 4 3v3c-3.653-1.25-4.78-1.671-7-5z"/><path fill="#54413c" d="M220 319c2.5.125 2.5.125 5 1l1 3-7-1z"/><path fill="#eaddd4" d="m354 311 2 2h3c1.188 2 1.188 2 2 4l-1.937-.625L357 316l-1 2c-1.46-2.647-2-3.894-2-7"/><path fill="#5d4c45" d="M280 308v2l2 1c-3.325 1.108-5.622.845-9 0 2.5-3 2.738-3 7-3"/><path fill="#f0e4d8" d="m338 296 3 2c-1.375 2.063-1.375 2.063-3 4-2-1-2-1-3-3 1.25-1.75 1.25-1.75 3-3"/><path fill="#6d5749" d="m340 291 3 2h-2v2h2l-1 2c-2.5-.25-2.5-.25-5-1l-1-2 3-1z"/><path fill="#a589b7" d="M406 197c2.034 1.415 2.904 2.55 3.422 4.98.24 2.002.413 4.011.578 6.02h-2c-1.339-3.867-2-6.89-2-11"/><path fill="#aa8cb9" d="m117 144 1 2c-4.111 4.556-4.111 4.556-7 6 1.477-5.662 1.477-5.662 4.125-7.375z"/><path fill="#735de3" d="M143 480c3.438-.125 3.438-.125 7 0l1 2-7 2z"/><path fill="#7661d3" d="M101 407c2 .375 2 .375 4 1v2l2 1v2c-2-.375-2-.375-4-1v-2l-2-1z"/><path fill="#8376bf" d="M410 394c2.563-.312 2.563-.312 5 0a105 105 0 0 1-4 5h-2c.188-2.5.188-2.5 1-5"/><path fill="#e5dff6" d="M429 379c0 3.15-.279 4.418-2 7l-4 1z"/><path fill="#f3e8fc" d="M161 363q2.503.422 5 .875l2.813.492L171 365v2l-3.875-.312-2.18-.176C163 366 163 366 161 363"/><path fill="#6a5174" d="M111 330c2.438.75 2.438.75 5 2 .813 2.125.813 2.125 1 4-2.622-1.049-3.794-1.65-5.25-4.125z"/><path fill="#614e48" d="M207 315c3.375.25 3.375.25 7 1 1.438 2.063 1.438 2.063 2 4-3.46-1.25-6.147-2.675-9-5"/><path fill="#755f58" d="m132 309 4 1-5 6-2-4h3z"/><path fill="#4c3a34" d="m289 305 6 1c-1.875 2.063-1.875 2.063-4 4l-2-1z"/><path fill="#6b534c" d="M331 290c2.69.176 5.329.618 8 1-1 2-1 2-2.812 2.813-2.188.187-2.188.187-4.438-1.25L330 291z"/><path fill="#6e5b52" d="M142 226v3c-2.375.813-2.375.813-5 1l-2-2c2.647-1.46 3.894-2 7-2"/><path fill="#aa8aa8" d="M320 108c7.571 1.857 7.571 1.857 10 5-2.437.188-2.437.188-5 0l-1-3c-2.062-.625-2.062-.625-4-1z"/><path fill="#ddd8f3" d="m398 407 2 1a278 278 0 0 1-3.875 3.125l-2.18 1.758L392 414l-2-2a351 351 0 0 1 3.875-2.562l2.18-1.442z"/><path fill="#8371d3" d="M97 406c3 0 3 0 5.25 1.813L104 410l-1 3c-3.166-2.11-4.196-3.735-6-7"/><path fill="#7e73b6" d="M422 385c0 3 0 3-1.312 4.387L416 393c0-3 0-3 1.313-4.387z"/><path fill="#8172bd" d="M126 346c4.248.472 6.2 2.967 9 6-3.937-1.312-6.227-2.92-9-6"/><path fill="#8973c6" d="M116 336c2 1.813 2 1.813 4 4v3c-2-.687-2-.687-4-2-.25-2.625-.25-2.625 0-5"/><path fill="#6b5152" d="M89 296a141 141 0 0 1 5 5v2c-1.937-.125-1.937-.125-4-1-.75-3.062-.75-3.062-1-6"/><path fill="#9980b7" d="M406 288h2c-.28 1.336-.575 2.669-.875 4l-.492 2.25L406 296h-2c.875-6.875.875-6.875 2-8"/><path fill="#efe1d7" d="m99 254 3 1-4 6c-.625-1.812-.625-1.812-1-4z"/><path fill="#fdfdfc" d="M167 250c2.063.938 2.063.938 4 2l-1 2 1 3c-1.937-.75-1.937-.75-4-2-.812-2.062-.812-2.062-1-4z"/><path fill="#e5e2e0" d="m333 248 3 1 1 3-5 1z"/><path fill="#ecdcd5" d="m202 238 2 1c.25 3 .25 3 0 6l-2 1c-.8-3.287-1.097-4.71 0-8"/><path fill="#e5dad0" d="m296 226 2 3c-1.875 1.688-1.875 1.688-4 3v-2h-2v-2c1.875-1.312 1.875-1.312 4-2"/><path fill="#6e5e55" d="m342 222-1 2c-2.285.012-2.285.012-5.062-.312l-2.786-.301L331 223v-1c3.943-1.16 7.011-.835 11 0"/><path fill="#eeded5" d="M387 212c3 3.75 3 3.75 3 6h-2l-1 3c-1.16-3.478-.708-5.459 0-9"/><path fill="#a99187" d="M120 183c.75 1.813.75 1.813 1 4-1.812 1.875-1.812 1.875-4 3l-2-2z"/><path fill="#a98caa" d="M176 107c-3.006 3.006-5.824 2.596-10 3 3.156-3.156 5.69-4.437 10-3"/><path fill="#bf9bec" d="m203 80 2 1c-.964 4.118-1.405 5.603-5 8z"/><path fill="#bd9bd8" d="M244 64c.688 1.688.688 1.688 1 4-1.437 2.75-1.437 2.75-3 5-.687-1.687-.687-1.687-1-4 1.438-2.75 1.438-2.75 3-5"/><path fill="#a38689" d="M226 64h2c-.25 2.438-.25 2.438-1 5-2 .938-2 .938-4 1l-1-2 2-.312 2-.688z"/></svg>