<svg width="24" height="24" viewBox="0 0 24 24" xmlns="http://www.w3.org/2000/svg">
<path d="M4.5 2.67188H10.5C10.7859 2.67188 11.0605 2.78512 11.2627 2.9873C11.4649 3.18949 11.5781 3.46406 11.5781 3.75C11.5781 4.03594 11.4649 4.31051 11.2627 4.5127C11.0605 4.71488 10.7859 4.82812 10.5 4.82812H5.57812V19.1719H10.5C10.7859 19.1719 11.0605 19.2851 11.2627 19.4873C11.4649 19.6895 11.5781 19.9641 11.5781 20.25C11.5781 20.5359 11.4649 20.8105 11.2627 21.0127C11.0605 21.2149 10.7859 21.3281 10.5 21.3281H4.5C4.21406 21.3281 3.93949 21.2149 3.7373 21.0127C3.53512 20.8105 3.42188 20.5359 3.42188 20.25V3.75C3.42188 3.46406 3.53512 3.18949 3.7373 2.9873C3.93949 2.78512 4.21406 2.67188 4.5 2.67188ZM17.249 7.1709C17.5355 7.1709 17.8101 7.28475 18.0127 7.4873L21.7627 11.2373C21.8631 11.3375 21.9427 11.4568 21.9971 11.5879C22.0513 11.7189 22.0792 11.8592 22.0791 12.001C22.079 12.1427 22.0514 12.2832 21.9971 12.4141C21.9561 12.5125 21.9006 12.6046 21.833 12.6865L21.7617 12.7646L18.0117 16.5146C17.8092 16.7172 17.5345 16.8311 17.248 16.8311C16.9616 16.831 16.6869 16.7172 16.4844 16.5146C16.2818 16.3121 16.168 16.0374 16.168 15.751C16.168 15.4646 16.2819 15.1899 16.4844 14.9873L18.3145 13.1582L18.3945 13.0781H10.5C10.2141 13.0781 9.93949 12.9649 9.7373 12.7627C9.53512 12.5605 9.42188 12.2859 9.42188 12C9.42188 11.7141 9.53512 11.4395 9.7373 11.2373C9.93949 11.0351 10.2141 10.9219 10.5 10.9219H18.3945L18.3145 10.8418L16.4854 9.01465C16.2828 8.8121 16.169 8.53742 16.1689 8.25098C16.1689 7.96454 16.2828 7.68985 16.4854 7.4873C16.6879 7.28476 16.9626 7.17091 17.249 7.1709Z" stroke="#475569" stroke-width="0.09375"/>
</svg>
