<svg width="24" height="24" viewBox="0 0 24 24" xmlns="http://www.w3.org/2000/svg">
<path d="M16.1267 2.29785C16.6129 2.29798 17.0945 2.39396 17.5437 2.58008C17.993 2.76631 18.402 3.03884 18.7458 3.38281C19.0896 3.72676 19.3616 4.13565 19.5476 4.58496C19.7336 5.03421 19.8299 5.51574 19.8298 6.00195C19.8297 6.48831 19.7338 6.97064 19.5476 7.41992C19.3615 7.86881 19.0885 8.2765 18.7449 8.62012L18.7292 8.63477V8.63574L9.7478 17.2812C9.64577 17.3794 9.52513 17.4562 9.39331 17.5078C9.26151 17.5594 9.12077 17.5848 8.97925 17.582C8.83773 17.5793 8.69782 17.5489 8.56812 17.4922C8.43841 17.4355 8.32153 17.353 8.22339 17.251C8.12522 17.1489 8.04749 17.0283 7.99585 16.8965C7.94433 16.7648 7.91888 16.6238 7.92163 16.4824C7.92443 16.3411 7.95584 16.2018 8.01245 16.0723C8.06917 15.9425 8.15063 15.8247 8.25269 15.7266L17.2253 7.09082L17.2263 7.08984C17.5155 6.79882 17.6768 6.40444 17.6755 5.99414C17.6742 5.58389 17.5105 5.19057 17.2195 4.90137C17.0755 4.75828 16.9043 4.6455 16.7166 4.56836C16.5286 4.49119 16.3269 4.45152 16.1238 4.45215C15.7138 4.45348 15.3211 4.61749 15.032 4.9082L5.82886 14.083C5.18731 14.7249 4.82675 15.5954 4.8269 16.5029C4.82699 16.9523 4.91564 17.3974 5.08765 17.8125C5.2597 18.2277 5.51202 18.6051 5.82983 18.9229C6.14759 19.2405 6.52509 19.4922 6.94019 19.6641C7.35545 19.836 7.80129 19.9249 8.25073 19.9248C9.15815 19.9245 10.0281 19.5636 10.6697 18.9219L18.363 11.2344C18.4633 11.1341 18.5826 11.0543 18.7136 11C18.8446 10.9458 18.985 10.918 19.1267 10.918C19.2684 10.918 19.4089 10.9459 19.5398 11C19.6708 11.0543 19.7901 11.1342 19.8904 11.2344C19.9907 11.3347 20.0705 11.4539 20.1248 11.585C20.179 11.7159 20.2068 11.8563 20.2068 11.998C20.2068 12.1398 20.179 12.2802 20.1248 12.4111C20.0719 12.5388 19.9939 12.6543 19.8972 12.7529L19.8962 12.7539L19.8865 12.7627L12.1941 20.4502C11.1477 21.4962 9.72834 22.0842 8.24878 22.084C6.76934 22.0837 5.35047 21.4954 4.30444 20.4492C3.25842 19.4028 2.67045 17.9835 2.67065 16.5039C2.67092 15.0244 3.25912 13.6056 4.30542 12.5596L13.5076 3.38184C14.2022 2.68753 15.1446 2.29766 16.1267 2.29785Z" stroke="#475569" stroke-width="0.09375"/>
</svg>
