<svg width="24" height="24" viewBox="0 0 24 24" xmlns="http://www.w3.org/2000/svg">
<path d="M5.08057 1.18243C5.45017 1.1476 5.82211 1.22659 6.146 1.40802L21.9009 10.3983L21.9116 10.4041H21.9146C22.1917 10.5632 22.4224 10.792 22.5835 11.0682C22.7464 11.3476 22.8325 11.6656 22.8325 11.9891C22.8325 12.3126 22.7465 12.6305 22.5835 12.91C22.4205 13.1894 22.1863 13.4205 21.9048 13.5799L6.15479 22.5867L6.15186 22.5887L6.14697 22.5926C5.87312 22.7466 5.5637 22.8263 5.24951 22.827C4.95763 22.8267 4.66985 22.7581 4.41064 22.6238C4.15138 22.4896 3.92798 22.2948 3.75928 22.0565C3.59054 21.818 3.4813 21.5421 3.44092 21.2527C3.40055 20.9635 3.42995 20.6688 3.52686 20.3934V20.3924L6.35693 12.0154L6.36182 11.9998L6.35693 11.9852L3.52686 3.60724L3.48584 3.47443C3.40247 3.16221 3.40384 2.83259 3.48975 2.51935C3.58794 2.16132 3.79237 1.8411 4.07666 1.60236C4.36085 1.36376 4.71114 1.21731 5.08057 1.18243ZM5.87842 3.83282L8.26318 10.8904L8.27393 10.9217H13.5005C13.7862 10.9218 14.0601 11.036 14.2622 11.2381C14.4643 11.4402 14.5786 11.714 14.5786 11.9998C14.5786 12.2858 14.4644 12.5603 14.2622 12.7625C14.0601 12.9645 13.7862 13.0778 13.5005 13.0779H8.27393L8.26318 13.1102L5.87939 20.1658L5.84033 20.283L5.94775 20.2215L20.2681 12.0301L20.3394 11.9901L20.2681 11.949L5.94678 3.77716L5.83936 3.71564L5.87842 3.83282Z" stroke="#4F46E5" stroke-width="0.09375"/>
</svg>
