<svg width="24" height="24" viewBox="0 0 24 24" xmlns="http://www.w3.org/2000/svg">
<path d="M12 1.92188C14.672 1.92485 17.2337 2.98758 19.123 4.87695C21.0124 6.76632 22.0751 9.32803 22.0781 12C22.0781 13.9931 21.4871 15.9414 20.3799 17.5986C19.2725 19.256 17.698 20.5478 15.8564 21.3105C14.015 22.0733 11.989 22.2735 10.0342 21.8848C8.07922 21.4959 6.28347 20.5354 4.87402 19.126C3.46457 17.7165 2.5041 15.9208 2.11523 13.9658C1.72647 12.011 1.92674 9.98495 2.68945 8.14355C3.45224 6.30202 4.74403 4.72752 6.40137 3.62012C7.95506 2.58209 9.76455 1.99768 11.627 1.92871L12 1.92188ZM15.0312 4.68066C13.5838 4.08123 11.9906 3.92483 10.4541 4.23047C8.91757 4.53619 7.50623 5.29065 6.39844 6.39844C5.29065 7.50623 4.53619 8.91757 4.23047 10.4541C3.92483 11.9906 4.08123 13.5838 4.68066 15.0312C5.28024 16.4787 6.29593 17.7165 7.59863 18.5869C8.82005 19.403 10.2429 19.8618 11.707 19.916L12 19.9219C14.1003 19.9196 16.1145 19.0848 17.5996 17.5996C19.0848 16.1145 19.9196 14.1003 19.9219 12C19.9219 10.4332 19.4574 8.90138 18.5869 7.59863C17.7165 6.29593 16.4787 5.28024 15.0312 4.68066ZM15.8965 13.1631C16.0385 13.1812 16.1759 13.2273 16.2998 13.2988C16.4236 13.3704 16.5316 13.4662 16.6182 13.5801C16.7048 13.6941 16.7679 13.8242 16.8037 13.9629C16.8395 14.1016 16.8478 14.246 16.8271 14.3877C16.8065 14.5294 16.7575 14.6654 16.6836 14.7881V14.7891C15.6602 16.5623 13.9511 17.5781 12 17.5781C10.0494 17.5781 8.34364 16.5635 7.31738 14.79C7.18059 14.5429 7.14612 14.2517 7.22168 13.9795C7.29724 13.7073 7.47616 13.4753 7.7207 13.334C7.96524 13.1928 8.25586 13.1532 8.5293 13.2236C8.80261 13.2942 9.03784 13.4692 9.18359 13.7109C9.55167 14.3477 10.4096 15.4219 12 15.4219C13.5904 15.4219 14.4484 14.3467 14.8164 13.7109L14.8174 13.71C14.8867 13.5848 14.9804 13.4744 15.0928 13.3857C15.2051 13.2972 15.3338 13.2316 15.4717 13.1934C15.6097 13.155 15.7544 13.145 15.8965 13.1631ZM8.06934 8.78223C8.33468 8.67242 8.62655 8.64421 8.9082 8.7002C9.19008 8.75626 9.44912 8.89443 9.65234 9.09766C9.85557 9.30088 9.99374 9.55992 10.0498 9.8418C10.1058 10.1235 10.0776 10.4153 9.96777 10.6807C9.85784 10.9461 9.67143 11.1733 9.43262 11.333C9.19365 11.4927 8.9124 11.5781 8.625 11.5781C8.23961 11.5781 7.87017 11.4249 7.59766 11.1523C7.32514 10.8798 7.17188 10.5104 7.17188 10.125C7.17188 9.8376 7.25732 9.55635 7.41699 9.31738C7.57665 9.07857 7.80393 8.89216 8.06934 8.78223ZM15.375 8.67188C15.7604 8.67188 16.1298 8.82514 16.4023 9.09766C16.6749 9.37017 16.8281 9.73961 16.8281 10.125C16.8281 10.4124 16.7427 10.6937 16.583 10.9326C16.4233 11.1714 16.1961 11.3578 15.9307 11.4678C15.6653 11.5776 15.3735 11.6058 15.0918 11.5498C14.8099 11.4937 14.5509 11.3556 14.3477 11.1523C14.1444 10.9491 14.0063 10.6901 13.9502 10.4082C13.8942 10.1265 13.9224 9.83468 14.0322 9.56934C14.1422 9.30393 14.3286 9.07665 14.5674 8.91699C14.8063 8.75732 15.0876 8.67188 15.375 8.67188Z" stroke="#475569" stroke-width="0.09375"/>
</svg>
