<svg width="20" height="20" viewBox="0 0 20 20" xmlns="http://www.w3.org/2000/svg">
<path d="M16.875 5.31251H14.8484C15.1384 4.8907 15.2996 4.39375 15.3125 3.88204C15.3241 3.49222 15.2558 3.10415 15.1119 2.74167C14.968 2.3792 14.7516 2.04996 14.4758 1.7742C14.2 1.49843 13.8708 1.28196 13.5083 1.13808C13.1459 0.994195 12.7578 0.925941 12.368 0.937507C12.0079 0.945191 11.6533 1.02723 11.3265 1.17848C10.9997 1.32973 10.7076 1.54692 10.4688 1.81641C10.2925 2.01741 10.1356 2.23451 10 2.46485C9.86439 2.23451 9.70745 2.01741 9.53125 1.81641C9.29236 1.54692 9.00032 1.32973 8.67349 1.17848C8.34666 1.02723 7.99208 0.945191 7.63203 0.937507C7.24221 0.925941 6.85414 0.994195 6.49167 1.13808C6.12919 1.28196 5.79996 1.49843 5.52419 1.7742C5.24843 2.04996 5.03195 2.3792 4.88807 2.74167C4.74419 3.10415 4.67593 3.49222 4.6875 3.88204C4.70036 4.39375 4.86158 4.8907 5.15156 5.31251H3.125C2.7106 5.31251 2.31317 5.47713 2.02015 5.77015C1.72712 6.06318 1.5625 6.46061 1.5625 6.87501V9.37501C1.56243 9.73521 1.68681 10.0844 1.91459 10.3634C2.14238 10.6425 2.45957 10.8342 2.8125 10.9063V15.625C2.8125 16.0394 2.97712 16.4368 3.27015 16.7299C3.56317 17.0229 3.9606 17.1875 4.375 17.1875H15.625C16.0394 17.1875 16.4368 17.0229 16.7299 16.7299C17.0229 16.4368 17.1875 16.0394 17.1875 15.625V10.9063C17.5404 10.8342 17.8576 10.6425 18.0854 10.3634C18.3132 10.0844 18.4376 9.73521 18.4375 9.37501V6.87501C18.4375 6.46061 18.2729 6.06318 17.9799 5.77015C17.6868 5.47713 17.2894 5.31251 16.875 5.31251ZM16.5625 9.06251H10.9375V7.18751H16.5625V9.06251ZM11.875 3.06016C11.9442 2.98341 12.0284 2.92179 12.1225 2.87917C12.2167 2.83655 12.3186 2.81385 12.4219 2.81251H12.4492C12.5814 2.81213 12.7124 2.83835 12.8342 2.88961C12.9561 2.94086 13.0664 3.0161 13.1586 3.11085C13.2508 3.20561 13.323 3.31794 13.3709 3.44116C13.4188 3.56438 13.4415 3.69598 13.4375 3.82813C13.4362 3.93144 13.4135 4.03335 13.3708 4.12746C13.3282 4.22157 13.2666 4.30585 13.1898 4.37501C12.6508 4.85313 11.7641 5.09844 11.0312 5.21563C11.1484 4.48594 11.3938 3.59923 11.875 3.06016ZM6.85156 3.10157C7.03701 2.91811 7.2868 2.81438 7.54766 2.81251H7.57812C7.68143 2.81385 7.78334 2.83655 7.87745 2.87917C7.97157 2.92179 8.05585 2.98341 8.125 3.06016C8.60312 3.59923 8.84844 4.48516 8.96484 5.21719C8.23828 5.09923 7.34375 4.85391 6.81016 4.37501C6.7334 4.30585 6.67178 4.22157 6.62916 4.12746C6.58654 4.03335 6.56384 3.93144 6.5625 3.82813C6.55904 3.69377 6.58288 3.56011 6.63256 3.43522C6.68225 3.31034 6.75675 3.19683 6.85156 3.10157ZM3.4375 7.18751H9.0625V9.06251H3.4375V7.18751ZM4.6875 10.9375H9.0625V15.3125H4.6875V10.9375ZM10.9375 15.3125V10.9375H15.3125V15.3125H10.9375Z" />
</svg>
