<svg width="20" height="20" viewBox="0 0 20 20" xmlns="http://www.w3.org/2000/svg">
<path d="M19.5156 6.67891L10.4531 1.67891C10.3144 1.60231 10.1585 1.56213 9.99999 1.56213C9.84151 1.56213 9.68561 1.60231 9.54687 1.67891L0.484367 6.67891C0.337835 6.75999 0.215694 6.87883 0.130642 7.02309C0.04559 7.16735 0.000732422 7.33176 0.000732422 7.49922C0.000732422 7.66669 0.04559 7.8311 0.130642 7.97536C0.215694 8.11962 0.337835 8.23846 0.484367 8.31954L2.18749 9.25704V12.9883C2.18688 13.3724 2.32854 13.7431 2.58515 14.0289C3.64296 15.2109 6.01562 17.1875 9.99999 17.1875C11.0581 17.1932 12.1113 17.0418 13.125 16.7383V18.75C13.125 18.9986 13.2238 19.2371 13.3996 19.4129C13.5754 19.5887 13.8139 19.6875 14.0625 19.6875C14.3111 19.6875 14.5496 19.5887 14.7254 19.4129C14.9012 19.2371 15 18.9986 15 18.75V15.9469C15.9054 15.4467 16.7215 14.7997 17.4148 14.032C17.6714 13.7462 17.8131 13.3755 17.8125 12.9914V9.26016L19.5156 8.32266C19.6621 8.24159 19.7843 8.12274 19.8693 7.97848C19.9544 7.83422 19.9992 7.66981 19.9992 7.50235C19.9992 7.33488 19.9544 7.17047 19.8693 7.02621C19.7843 6.88196 19.6621 6.76311 19.5156 6.68204V6.67891ZM9.99999 3.5711L17.1219 7.50001L14.5312 8.92969C14.5264 8.92684 14.5217 8.92371 14.5172 8.92032L10.4547 6.67891C10.2378 6.56681 9.98571 6.54375 9.75207 6.61463C9.51843 6.68551 9.32166 6.84474 9.20361 7.05845C9.08556 7.27217 9.05553 7.52351 9.11993 7.75902C9.18433 7.99453 9.33806 8.19562 9.54843 8.31954L12.5953 9.99844L9.99999 11.4297L2.87812 7.50001L9.99999 3.5711ZM9.99999 15.3125C6.84218 15.3125 4.94921 13.8227 4.06249 12.8695V10.2914L9.54687 13.318C9.68561 13.3946 9.84151 13.4348 9.99999 13.4348C10.1585 13.4348 10.3144 13.3946 10.4531 13.318L13.125 11.8469V14.7555C12.1267 15.1328 11.0671 15.3217 9.99999 15.3125ZM15.9375 12.8695C15.65 13.1776 15.3363 13.4602 15 13.7141V10.8117L15.9375 10.2945V12.8695Z" />
</svg>
