<svg width="20" height="20" viewBox="0 0 20 20" xmlns="http://www.w3.org/2000/svg">
<path d="M1.93675 9.49923C2.03517 9.5733 2.14722 9.62725 2.2665 9.65799C2.38579 9.68874 2.50996 9.69568 2.63192 9.67841C2.75389 9.66114 2.87125 9.62001 2.97731 9.55736C3.08337 9.49471 3.17604 9.41177 3.25003 9.31329C3.59932 8.84741 4.05229 8.46926 4.57308 8.20881C5.09386 7.94836 5.66814 7.81277 6.25042 7.81277C6.8327 7.81277 7.40698 7.94836 7.92776 8.20881C8.44855 8.46926 8.90153 8.84741 9.25081 9.31329C9.40011 9.51208 9.62226 9.64343 9.8684 9.67844C10.1145 9.71346 10.3645 9.64928 10.5633 9.50001C10.6336 9.44665 10.6962 9.38381 10.7492 9.31329C11.0985 8.84741 11.5515 8.46926 12.0723 8.20881C12.5931 7.94836 13.1674 7.81277 13.7496 7.81277C14.3319 7.81277 14.9062 7.94836 15.427 8.20881C15.9478 8.46926 16.4007 8.84741 16.75 9.31329C16.8233 9.4135 16.9157 9.49817 17.0219 9.56239C17.1282 9.6266 17.2461 9.66908 17.3689 9.68735C17.4917 9.70563 17.6168 9.69934 17.7372 9.66885C17.8575 9.63836 17.9706 9.58428 18.0698 9.50974C18.1691 9.4352 18.2526 9.34169 18.3154 9.23464C18.3782 9.12759 18.4192 9.00912 18.4359 8.88612C18.4526 8.76312 18.4447 8.63802 18.4126 8.5181C18.3806 8.39817 18.3251 8.2858 18.2492 8.18751C17.7277 7.48924 17.0511 6.92171 16.2727 6.5297C16.6133 6.06382 16.8183 5.51272 16.8648 4.93748C16.9114 4.36225 16.7978 3.78535 16.5366 3.27075C16.2753 2.75614 15.8767 2.32393 15.3848 2.02202C14.893 1.7201 14.3271 1.56029 13.75 1.56029C13.1729 1.56029 12.6071 1.7201 12.1152 2.02202C11.6234 2.32393 11.2247 2.75614 10.9635 3.27075C10.7023 3.78535 10.5886 4.36225 10.6352 4.93748C10.6818 5.51272 10.8868 6.06382 11.2274 6.5297C10.7825 6.7528 10.3697 7.03475 10 7.36798C9.63042 7.03448 9.2176 6.75226 8.77269 6.52891C9.11331 6.06304 9.31826 5.51194 9.36484 4.9367C9.41141 4.36147 9.29778 3.78457 9.03655 3.26997C8.77532 2.75536 8.37668 2.32315 7.88484 2.02123C7.39299 1.71932 6.82715 1.55951 6.25003 1.55951C5.67291 1.55951 5.10707 1.71932 4.61522 2.02123C4.12338 2.32315 3.72474 2.75536 3.46351 3.26997C3.20228 3.78457 3.08865 4.36147 3.13522 4.9367C3.1818 5.51194 3.38675 6.06304 3.72737 6.52891C2.94899 6.92093 2.27234 7.48846 1.75081 8.18673C1.60146 8.38545 1.53715 8.63535 1.57202 8.88148C1.60688 9.12761 1.73808 9.34981 1.93675 9.49923ZM13.75 3.43751C13.9973 3.43751 14.2389 3.51082 14.4445 3.64817C14.6501 3.78552 14.8103 3.98075 14.9049 4.20915C14.9995 4.43756 15.0242 4.68889 14.976 4.93137C14.9278 5.17385 14.8087 5.39658 14.6339 5.57139C14.4591 5.74621 14.2364 5.86526 13.9939 5.91349C13.7514 5.96172 13.5001 5.93697 13.2717 5.84236C13.0433 5.74775 12.848 5.58753 12.7107 5.38197C12.5733 5.17641 12.5 4.93473 12.5 4.68751C12.5 4.35599 12.6317 4.03805 12.8661 3.80362C13.1006 3.5692 13.4185 3.43751 13.75 3.43751ZM6.25003 3.43751C6.49726 3.43751 6.73893 3.51082 6.94449 3.64817C7.15005 3.78552 7.31027 3.98075 7.40488 4.20915C7.49949 4.43756 7.52424 4.68889 7.47601 4.93137C7.42778 5.17385 7.30873 5.39658 7.13391 5.57139C6.9591 5.74621 6.73637 5.86526 6.49389 5.91349C6.25142 5.96172 6.00008 5.93697 5.77168 5.84236C5.54327 5.74775 5.34805 5.58753 5.21069 5.38197C5.07334 5.17641 5.00003 4.93473 5.00003 4.68751C5.00003 4.35599 5.13173 4.03805 5.36615 3.80362C5.60057 3.5692 5.91851 3.43751 6.25003 3.43751ZM16.2727 15.2789C16.6133 14.813 16.8183 14.2619 16.8648 13.6867C16.9114 13.1115 16.7978 12.5346 16.5366 12.02C16.2753 11.5054 15.8767 11.0731 15.3848 10.7712C14.893 10.4693 14.3271 10.3095 13.75 10.3095C13.1729 10.3095 12.6071 10.4693 12.1152 10.7712C11.6234 11.0731 11.2247 11.5054 10.9635 12.02C10.7023 12.5346 10.5886 13.1115 10.6352 13.6867C10.6818 14.2619 10.8868 14.813 11.2274 15.2789C10.7827 15.5023 10.3699 15.7842 10 16.1172C9.63019 15.7842 9.21741 15.5023 8.77269 15.2789C9.11331 14.813 9.31826 14.2619 9.36484 13.6867C9.41141 13.1115 9.29778 12.5346 9.03655 12.02C8.77532 11.5054 8.37668 11.0731 7.88484 10.7712C7.39299 10.4693 6.82715 10.3095 6.25003 10.3095C5.67291 10.3095 5.10707 10.4693 4.61522 10.7712C4.12338 11.0731 3.72474 11.5054 3.46351 12.02C3.20228 12.5346 3.08865 13.1115 3.13522 13.6867C3.1818 14.2619 3.38675 14.813 3.72737 15.2789C2.94899 15.6709 2.27234 16.2385 1.75081 16.9367C1.60142 17.1355 1.53712 17.3855 1.57207 17.6318C1.60701 17.878 1.73833 18.1002 1.93714 18.2496C2.13595 18.399 2.38596 18.4633 2.63217 18.4284C2.87839 18.3934 3.10064 18.2621 3.25003 18.0633C3.59932 17.5974 4.05229 17.2193 4.57308 16.9588C5.09386 16.6984 5.66814 16.5628 6.25042 16.5628C6.8327 16.5628 7.40698 16.6984 7.92776 16.9588C8.44855 17.2193 8.90153 17.5974 9.25081 18.0633C9.40011 18.2621 9.62226 18.3934 9.8684 18.4284C10.1145 18.4635 10.3645 18.3993 10.5633 18.25C10.6336 18.1966 10.6962 18.1338 10.7492 18.0633C11.0985 17.5974 11.5515 17.2193 12.0723 16.9588C12.5931 16.6984 13.1674 16.5628 13.7496 16.5628C14.3319 16.5628 14.9062 16.6984 15.427 16.9588C15.9478 17.2193 16.4007 17.5974 16.75 18.0633C16.8233 18.1635 16.9157 18.2482 17.0219 18.3124C17.1282 18.3766 17.2461 18.4191 17.3689 18.4374C17.4917 18.4556 17.6168 18.4493 17.7372 18.4188C17.8575 18.3884 17.9706 18.3343 18.0698 18.2597C18.1691 18.1852 18.2526 18.0917 18.3154 17.9846C18.3782 17.8776 18.4192 17.7591 18.4359 17.6361C18.4526 17.5131 18.4447 17.388 18.4126 17.2681C18.3806 17.1482 18.3251 17.0358 18.2492 16.9375C17.728 16.2388 17.0513 15.6709 16.2727 15.2789ZM6.25003 12.1875C6.49726 12.1875 6.73893 12.2608 6.94449 12.3982C7.15005 12.5355 7.31027 12.7307 7.40488 12.9592C7.49949 13.1876 7.52424 13.4389 7.47601 13.6814C7.42778 13.9238 7.30873 14.1466 7.13391 14.3214C6.9591 14.4962 6.73637 14.6153 6.49389 14.6635C6.25142 14.7117 6.00008 14.687 5.77168 14.5924C5.54327 14.4977 5.34805 14.3375 5.21069 14.132C5.07334 13.9264 5.00003 13.6847 5.00003 13.4375C5.00003 13.106 5.13173 12.788 5.36615 12.5536C5.60057 12.3192 5.91851 12.1875 6.25003 12.1875ZM13.75 12.1875C13.9973 12.1875 14.2389 12.2608 14.4445 12.3982C14.6501 12.5355 14.8103 12.7307 14.9049 12.9592C14.9995 13.1876 15.0242 13.4389 14.976 13.6814C14.9278 13.9238 14.8087 14.1466 14.6339 14.3214C14.4591 14.4962 14.2364 14.6153 13.9939 14.6635C13.7514 14.7117 13.5001 14.687 13.2717 14.5924C13.0433 14.4977 12.848 14.3375 12.7107 14.132C12.5733 13.9264 12.5 13.6847 12.5 13.4375C12.5 13.106 12.6317 12.788 12.8661 12.5536C13.1006 12.3192 13.4185 12.1875 13.75 12.1875Z" />
</svg>
