<svg xmlns="http://www.w3.org/2000/svg" width="40" height="40" viewBox="0 0 492 492">
  <path fill="#f5ebe3" d="M233.9 164.8c6.3 3 11.7 3.5 18.4 1.5q3.9-1.5 7.7-3.3l8.6-3.6 2-1a82 82 0 0 1 57.4-.4l3.2 1.1A98 98 0 0 1 384 206v2h2c11.1 19 13.6 39.4 13 61q-4.2-5.2-8-10.6c-13.6-18-34.2-33.6-57-37.4-12-1.2-24.1-1.7-34 6a31 31 0 0 0-11.3 21.4 38 38 0 0 0 8.6 25.4c7.4 7.6 18.2 11.1 27.8 15.3 17 7.4 32.7 18.2 40.7 35.5 2.2 6.3 3.3 12 1.2 18.4-3.5 4-8.2 6.4-12.8 8.8l-7 4.2c-34.9 21-75.4 26-115.2 25h-4.6c-32.5-1.2-68.6-12-95-31.3-2.4-1.7-2.4-1.7-4.7-2.8-2-1-2-1-4.7-3.9q-2.2-12.2 4-23 3.3-4.6 7-9l1.4-1.8c9.7-12.5 25.7-19 40.1-24.3A45 45 0 0 0 199 266c2.9-8.1 3.7-18.2.8-26.5-4.7-9-10-13.6-19.5-17.6-17.9-4.7-35.8 1.6-51.3 10.1a110 110 0 0 0-36 37h-1c-.4-23.3 1.6-47.4 16-67h2l1-4a101 101 0 0 1 58.6-42.6c22.6-5.4 44-.7 64.3 9.4"/>
  <path fill="#a7877c" d="M242 53h6l-.4 4.4-.3 2.4C247 62 247 62 246 64h-2l-1 2.5-1 2.5h-2l-1 5-3 9 2-1.2c13.8-7.8 25.5-9 41-8.8.2 2.4.2 2.4 0 5-3.2 2-3.2 2-5.1 3a26 26 0 0 0-8.9 9h-2l1 3c3 1.5 6.2 1.5 9.6 1.8a170 170 0 0 1 29.6 6c10.3 2.6 19.4 7.4 28.8 12.2l2.4 1 1.6 1v2l5 2q5.4 3.1 10.3 6.8l4.4 2.8q3.6 2.2 6.3 5.4v2l4 2q7 5.5 13 12v2l3 1a39 39 0 0 1 3.2 5l1.6 2.7c1.2 2.3 1.2 2.3 1.2 4.3h2v3h2c3 5.3 3 5.3 3 8h2c4.7 7 7.9 15.1 11 23l1.1 2.6a24 24 0 0 1 1.5 6.7c.4 3.7.4 3.7 1.4 4.7 4 17.2 7.1 41.9 2 59h-3l-.8 5.7q-.6 5.2-2.2 10.3l-2 1-1.4 4.8A36 36 0 0 1 400 304l-2 5-2 3h-2l-2 5a133 133 0 0 1-23 24h-1l-.7-5.7C365 320 355.8 309 344 299.9c-7.8-5.1-16.5-9-25.1-12.5-13-5.3-23.2-11.6-28.8-24.8-3.1-9-3.2-17.9 1-26.6 5.2-7.7 12-13.6 21-16 11.9-1.5 24-.9 35 4l1.9.8c20.8 9.3 36.8 23 49.1 42.2.6-19.5-2.4-35-10.2-53-.8-2-.8-2-1.3-4.3l-.5-1.7h-2l-3.4-6.2A88 88 0 0 0 362 179a91 91 0 0 0-66-24.3 69 69 0 0 0-31.3 7.5c-16 7.4-16 7.4-25.6 5.9l-7-3.1a91 91 0 0 0-64-8.2l-6 2.3-3.1 1.2a100 100 0 0 0-30.1 18.6 66 66 0 0 0-17.4 20.5L110 202h-2l-2 5-2.8 6A116 116 0 0 0 93 268l1.1-2a100 100 0 0 1 57-44.6c12.7-3 26.5-3.2 37.9 3.6a29 29 0 0 1 13 19c1 13-.5 20.8-8.9 30.7-5.7 6.2-12.5 9-20.1 12.3-19.6 8.4-38.3 17.3-47.5 38a52 52 0 0 0-2.5 16 53 53 0 0 1-16-13l-1-4-3-1a158 158 0 0 1-13.6-20.7l-1-1.8c-2.4-4.2-2.4-4.2-2.4-6.5l-3-1c-1.1-3-1.1-3-2-6.6l-2-6.4h-2a93 93 0 0 1-1.5-11.8l-.2-2-.8-5.5c-.8-6-.7-11.9-.7-17.9v-15A47 47 0 0 1 76 216h2q1.2-3.7 2-7.5c2.6-11.2 2.6-11.2 5-16.5h2c.6-2.3.6-2.3 1-5l1-3h2l-.2-2.7c.2-3.7 1-5.4 3.2-8.3h2l.5-2.5.5-2.5h2l.7-2.5c1.5-4.1 3.8-6.6 6.7-9.8 1.6-1.7 1.6-1.7 2.6-3.7l3.3-1.6c3.8-2.1 5.3-4.6 7.5-8.4a28 28 0 0 1 13.2-11l5-5c5-4.4 9.8-7.6 16-10q4.2-2.3 8-5h4v-2c6.1-3 6.1-3 10-3v-2c2.4-1 2.4-1 5.7-1.9 4.6-1.4 7.8-2.8 11.3-6.1l3-1c1.7-2 1.7-2 3.4-4.4A32 32 0 0 1 207 83l1.3-2.2A40 40 0 0 1 217 71h2v-2h2v-2l5-4 1.8-1.5c4.7-3.8 8.4-5.2 14.2-6.5z"/>
  <path fill="#674c42" d="m347 224 1.9.8c22.6 10 43.3 26.6 52.7 50.1a35 35 0 0 1 1.6 24.4c-1 1.8-1 1.8-3.2 4.7l-2 5-2 3h-2l-2 5a133 133 0 0 1-23 24h-1l-.7-5.7C365 320 355.8 309 344 299.9c-7.8-5.1-16.5-9-25.1-12.5-13-5.3-23.2-11.6-28.8-24.8-3.1-9-3.2-17.9 1-26.6 12.7-18.8 36.3-20.7 56-12"/>
  <path fill="#664b41" d="M190.9 226.2A29 29 0 0 1 202 244c1 13-.5 20.8-8.9 30.7-5.7 6.2-12.5 9-20.1 12.3-19.6 8.4-38.3 17.3-47.5 38a52 52 0 0 0-2.5 16 53 53 0 0 1-16-13l-1-4-3-1q-4.8-6.3-9-13l-1.2-1.9-3.4-5.4-2-3.3c-3.1-7.5-1.2-15.6 1.6-23 1.9-4.5 1.9-4.5 3-6.4h2l.2-2.4c1.2-5.3 4.3-8.5 7.8-12.6l2-2.4a93 93 0 0 1 31-24.6l3.5-1.6c17-7.6 36-10.7 52.4-.2"/>
  <path fill="#7564c7" d="M36 128h1l.2 4.3v9.5l.3 43 .3 46.4v8.7c.2 2.1.2 2.1 1.2 5.1l.2 7v14.2l.5 45.5v4c.3 3.2.9 5.4 2.3 8.3l1.5 3.6C45 331 45 331 47 334c.4 1.9.4 1.9.6 4l.2 2.4.4 5.6.2 3 .1 3 .5 2h3v-2l3 1c.5 2 .5 2 .7 4.4l.2 2.5.1 4.1c2 2 2 2 4 2.8 3 1.8 3.2 4 4 7.2v2l2 .5 2 .5v2l2 1 2 1v3c1.8.5 1.8.5 4 .8s2.2.4 4 1.2c.5 3.6.5 3.6 0 7h4q3 3.1 5 7h4l3 1 1 3c3.8 3.6 7.6 3.7 12.6 4.2l2.4.8 1 5 7 2v4h2l2 3 3 1-2 7 2 2-1 7-.4 8v2.3l-.6 16.4-.1 2.2.1 5.1 2 1-1 5 11 1-1 6c3-.7 3-.7 6-2l.4-2.6.6-2.4h8c1-2.5 1-2.5 1-5l3 1 1-4 4 1-.4-2.4.4-2.6c2.8-1.2 2.8-1.2 6-2l2.1-1c1.9-1 1.9-1 4-1.2l1.9-.8.8-3 1.2-3c1.9-.7 1.9-.7 4.1-1.1l3.9-.9v-4l1-3 5 2v-2h2v-4q1.5 0 2.9.3l3.1-.3 1-1.9 1-2.1 3.6-1 3.4-1 1-5c2.5.3 2.5.3 5 1l1-2h5c2.8-.7 2.8-.7 5-2l1-5c4.1-1.4 6.8-.8 11 0v2h4v-2h15.2l68.6.4c22.4.3 22.4.3 28.2-4.4v-3c3.5-1 5.5-1.2 9 0 3.6.7 3.6.7 7 1l1-2q3.5-.9 7.2-1.2c6-1 6-1 8.4-3.7 1.3-2.2 1.3-2.2 2.3-4.3 1.1-1.8 1.1-1.8 4.1-2.8l2-3c2.6-.7 2.6-.7 5-1v3l.8-2c1.2-2 1.2-2 3.1-2.6l2.1-.4c2.4-2 3-3 4-6l3-1.4c3-1.6 3-1.6 4-3.5 1.2-2.5 2.1-2.8 4.6-4 3.3-1.8 3.3-1.8 4.4-4.7 0-2.4 0-2.4-1-5.4q2.9-1 6-1c.8-2 .8-2 1.5-4.5s.7-2.5 1.5-4.5h2l.3-2.6c.7-3.4.7-3.4 3.2-6.3 2.9-3.5 3-5.7 3.5-10.1h3l3-1c.5-1.9.5-1.9.6-4.2q.4-5 1.4-9.8h-1c-.2-3.9-.3-6.7 2-10h2q.5-4.2.6-8.5v-3l.5-14.6q.8-25.5 1.1-51l.1-3.8.4-26.3v-3.3l.1-3V204l.2-1.9h1l.3 89.4a144 144 0 0 1-6.7 51.9c-3 8.3-7.2 16-11.6 23.7l-1.6 3c-5.2 8.7-12.3 15.8-19.4 23l-2.7 2.8c-26.7 26-61.9 33.5-97.9 33.5h-9.6l-50.4.2c-15.6 0-30 .6-43.4 9.5l-2.6 1.7a359 359 0 0 0-21.6 15.4l-9.5 7-11.8 8.9c-24.6 19-24.6 19-36.5 18-4.1-1.5-6-4-8.2-7.8-1.7-4.5-1.3-9.3-1.3-14v-31.8c0-6.1-.4-9.7-4.5-14.4l-1.3-1.7c-2.5-2-5.3-3.2-8.2-4.6A121 121 0 0 1 58 373l-1.7-2.5c-15.8-23.6-20.5-48.7-20.4-76.5v-35.6z"/>
  <path fill="#c2a8e9" d="M171.1 5.7h30l90-.2H327c16.4-.1 32.3 2.2 47.7 8l2.5.8q6.9 2.5 13 6.6 4 2.4 8 4.1c2 1.1 3.3 2.4 4.8 4l2.7 1.6L408 32v2l4 2a95 95 0 0 1 12 11v2h3l.4 3.4.6 3.6a19 19 0 0 0 5 2c2 3 2 3 2 6h2q2.8 4.4 5 9l1.5 2.9A96 96 0 0 1 456 125h-2c-1.1-2.2-1.2-3.8-1.4-6.3-.5-4.7-1.2-8.3-4.6-11.7l-.5-5.7A43 43 0 0 0 445 88h-2l-1-7-2-1-1-5-1-3-2.5.1-2.5-.1c-.7-2.2-.7-2.2-1-5-1-2.8-1-2.8-2-5h-2v-3h-2.8l-21.1.1h-4C397 59 397 59 394 58c-.3-3.1-.3-3.1 0-7v-3.9l1-3.1c3-1 3-1 6-1l2 1 .3-2 .7-2 3-1c0-2.4 0-2.4-1-5-2-1-2-1-5-2l-4-3c-3.8-2.8-7.2-5.4-11.8-7a42 42 0 0 1-7-3q-9-4.6-19.2-4v-2h-4v-2c-3-.4-3-.4-6.8-.6-6.9-.3-6.9-.3-9.1-1q-3.3-.6-6.4-.5H318q-23.9.3-47.7-.4a649 649 0 0 0-42.7 0q-18.1.6-36.4.5H189l-36.2-.2h-6.5L144 9l-1 2-4 1q-6 1.1-11.6 3.2l-8 2.2A31 31 0 0 0 108 23h-3l-4 4a113 113 0 0 1-9.1 5.5l-2 1.2A31 31 0 0 0 85 38l-2.6 2C80 42 80 42 79 45h-2v2l-2.4 1.4C71.7 50.2 71.4 51 70 54l-2.5 1.9c-3 2.5-3.3 4.5-4.5 8.1l-4 2c-3.1 4-5 8.2-7 12.8l-2.6 5.3A39 39 0 0 0 46 104h-2c-4.5 6.6-4.6 13.8-4.7 21.4v3.6l-.2 7.8-.5 20.6-.3 11.1-.1 3.8-.2 2.7h-1a75 75 0 0 1-.3-8l-.1-3.4-.1-3.6-.5-18.9c-.3-13.4 0-26 3-39.1l.6-2.8 2.4-8.4q2.1-7 6-13c1-1.8 1-1.8 1.5-4L50 72h2l2-6c5.7-10 13.3-17.8 21.5-25.6l3.8-3.8C81 35 81 35 83 35v-2c3.7-3.5 5.9-5.2 11-6v-2c2.7-2 5.5-3.2 8.6-4.5 3.4-1.5 3.4-1.5 5.2-3 5-3.4 11.4-4.7 17.2-6.5l2.9-1c14-4.1 28.6-4.3 43.2-4.3"/>
  <path fill="#3d2a25" d="M265.6 258.6c9 6.7 9 6.7 9.9 12.1 0 6-.2 10.7-3.7 15.6a36 36 0 0 1-26.4 10.1c-9 0-16.7-1.3-23.6-7.3-4.6-5-7-9-6.9-16 .8-5.9 3.5-9.4 8.1-13.1a42 42 0 0 1 42.6-1.4"/>
  <path fill="#8a74c9" d="M400 181c3 1.2 3 1.2 6 3 .4 2.7.4 2.7 0 5h2a125 125 0 0 1 3 12.9l.4 2c.6 2.3 1.6 4 2.6 6.1a147 147 0 0 1 3.3 39.1c0 16.2-2.2 30.6-8.4 45.6q-1.2 3-1.9 6.3l-1 3-2 .9c-2 1.1-2 1.1-2.8 3.5l-.5 2.9a15 15 0 0 1-7 10.4C392 323 392 323 391 325s-1 2-4.1 4l-2.9 2v5l-2.2.4c-2.8.6-2.8.6-3.8 2.2l-1 1.9c-1 2-1 2-2 3.5l-2.6.5-2.4.5-2 7h-3c-5.3.4-8.2 1.3-12 5l-1 2-2.4.4c-2.6.6-2.6.6-4 2-1.6 1.6-1.6 1.6-4.7 2.5-2.9 1.1-2.9 1.1-4.3 3.7l-.6 2.4-3-2c-2 .2-2 .2-4 1l-2 3v-3c-4.8 2.6-4.8 2.6-6.2 5.2-1.8 1.8-1.8 1.8-3.8 2l-4.7-.2c-3 0-5.4 1-8.3 2q-4.7.8-9.4 1.3c-2.6.7-2.6.7-4.6 3.7-3.2 0-3.2 0-7-.4-6.7-.7-6.7-.7-10 .4l-10.2.4-7.6.2h-2.6l-30.6.6-2.6.1c-5 0-8-.7-12.4-3.3-2.9-.7-2.9-.7-5-1v2l-4-1v-2l-2 .7c-4 .4-6.4-1-10-2.7a12 12 0 0 0-10-1c-6 0-6 0-8-1v-3l-1-3a42 42 0 0 0-8.5-.6l-2.5-.4-1-4c-2-.8-2-.8-4.4-1.2l-2.5-.5c-2.1-.3-2.1-.3-4.1-.3l-2-3-2.6-.4-2.4-.6-.4-2.5-.6-2.5c-5-1.7-10.7-1-16-1l.1-1.9.2-2.5v-2.4q0-1.2-.3-2.2c-1.8-1.2-1.8-1.2-4-2-3-2-3-2-3.8-4.2L111 335l-3 .8-3 .2q-1.3-3-1.6-6.1l-.4-1.9-2-1v-3l-3-1c-1.9-3.2-3-5.2-3-9l-2.5-.8L90 312c-.3-3.1-.3-3.1 0-6h-2v-2h-2l-3-7-2 2c-2-4.2-2.2-7.7-2.1-12.3v-3.8l.1-2.9c3 3 3.2 6.4 4.1 10.4 1 2.8 1.8 3.6 3.9 5.6l4.2 7.5c9.9 18 9.9 18 14.8 20.5l1 3 5 4 5 5 3.3 2.7 2.7 2.3v2l2 .8c2.7 1 4.2 2 6.4 3.8a172 172 0 0 0 104 32.5c45 1.1 91-7.7 127.4-35.6 2.2-1.5 2.2-1.5 4.2-1.5v-11h1l.6 4 .2 2.3.2 1.7 7-6.2c2.3-2.2 4.2-4 6-6.8h2l2-4 4-5.7 2.1-3 1.9-2.3h2c2-3 3-6.6 4.2-10q1.7-4 3.8-8l1-3.4 1-2.6h2l.7-5.7q.7-5.2 2.3-10.3h3l.2-21.5c.2-12.7-.5-25-3.2-37.5l-1-1-.8-5.6c-.9-5.5-2.5-9.6-5.2-14.4l-2-5-2-3z"/>
  <path fill="#4c3631" d="M291.6 298.2c2.4.8 2.4.8 4.4 2.8-.1 3.6-.5 5.4-2.9 8.1a78 78 0 0 1-57.1 16.7 64 64 0 0 1-41-19.8c-.7-3.2-.7-3.2 0-6 3-1.3 4-1.6 7-1q3 2.3 5.7 5a54 54 0 0 0 39.1 11.4 53 53 0 0 0 40.3-16.2c1.9-1.2 1.9-1.2 4.5-1"/>
  <path fill="#b797d9" d="M240 49q4.5-.6 9 0c2.3 2.4 2.3 2.4 3 6-1 5.2-3.2 9.5-6 14v3l-4 2-1 3 2.3-1.4c3.6-2.1 5.5-2.6 9.7-2.6l2-2h4.4a62 62 0 0 0 15-1.8c3-.2 4.2.1 6.6 1.8 1 2.2 1 2.2 1 5-1.3 3.4-2.8 6.3-6 8.2l-2 .8-4 4h2v2c1.9.4 1.9.4 4.3.6 2.9.2 5 .5 7.7 1.4h4l3 3c4.5 1.5 9.3 1 14 1v3l3.4-.1 3.6.1 1 2 3.5.4 3.5.6 1 3 1.8-.6 2.2-.4 5 4h3l.9 2 1.1 2c2.6.3 2.6.3 5 0v4l6 2 2.3 1.8 1.7 1.2 2-2q0 1 .3 2l.7 2h4v3l2-1c3 3.3 3 3.3 3 6h2l1 2 4.4 1.8c4.4 1.8 4.4 1.8 6 5.4l.6 2.8h3v3l3 1c3 5.2 3 5.2 3 8h2v3h2l2 4 3 2v3l3 1c1.1 2.8 1.1 2.8 2 6l.7 2.3c.3 1.7.3 1.7-.7 3.7l-.9-2.5-1.1-2.5h-2c-3-5.3-3-5.3-3-8h-2v-3h-2l-3.3-5.7A40 40 0 0 0 376 148l-4-4a42 42 0 0 0-7.5-6.4L362 136v-2l-1.9-1c-2.1-1-2.1-1-4.1-4-2-1.3-2-1.3-4.4-2.5-4.3-2.2-4.3-2.2-6.1-4-2.3-2.3-5-3.2-7.9-4.5l-1.6-1v-2l-4-1-6.6-3.3A114 114 0 0 0 296 100q-12.1-3.1-24.7-4.3A15 15 0 0 1 263 93v-3h2l.8-1.7c2.5-4.8 6.5-7.9 11.2-10.3h2v-5c-28.2 1.7-28.2 1.7-40 10h-3c2.7-13 2.7-13 7-17l1-2h2c.6-2.4.6-2.4 1.1-5.5l.5-3 .4-2.5h-6v2c-1.7.9-1.7.9-4 1.8a40 40 0 0 0-9 5c-3 2.2-3 2.2-5 2.2l-1 3h-2v2h-2v2l-3.6 3.1q-4.3 3.6-7.6 8.2c-2.2 3.1-4.2 5-7.8 6.7l1.3-4.5.7-2.5 1-2h4l2-5c3.2-3.9 3.2-3.9 6.3-4.4l1.7-.6-.1-3 .1-3 6-1c.9-3 .9-3 1-6l1 2c3-1 3-1 5-3 5.5-3 5.5-3 8-3v-2h2z"/>
  <path fill="#7e6bd7" d="M36 128h1l.2 4.3v9.5l.3 43 .3 46.4v8.7c.2 2.1.2 2.1 1.2 5.1l.2 7v14.2l.5 45.5v4c.3 3.2.9 5.4 2.3 8.3l1.5 3.6C45 331 45 331 47 334c.4 1.9.4 1.9.6 4l.2 2.4.4 5.6.2 3 .1 3 .5 2h3v-2l3 1c.5 2 .5 2 .7 4.4l.2 2.5.1 4.1c2 2 2 2 4 2.8 3 1.8 3.2 4 4 7.2v2l2 .5 2 .5v2l2 1 2 1v3c1.8.5 1.8.5 4 .8s2.2.4 4 1.2c.5 3.6.5 3.6 0 7h4q3 3.1 5 7h4l3 1 1 3c3.8 3.6 7.6 3.7 12.6 4.2l2.4.8a11 11 0 0 1 1 5l-1 2 1.7.8c3.8 2 6.7 4 8.7 7.9l.6 2.3-2 1-4-6c-2.6-3.2-5.8-4.5-9.5-6.2A121 121 0 0 1 58 373l-1.7-2.5c-15.8-23.6-20.5-48.7-20.4-76.5v-35.6z"/>
  <path fill="#382622" d="M331.5 241.4c5.3 1.7 8.4 5.1 11.5 9.6 1.3 2.6 1.1 4.7 1 7.6v5.4h-2l-.7 2.3c-1.5 3.2-3 4-6.2 5.2-6.6 1.6-12.2.8-18.1-2.5-9.8-7.7-9.8-7.7-10.4-11.4-.2-8.7-.2-8.7 2.7-12.2 6.5-5.9 13.7-5.4 22.2-4"/>
  <path fill="#8471cc" d="M79 280c3 3 3.2 6.4 4.1 10.4 1 2.8 1.8 3.6 3.9 5.6l4.2 7.5c9.9 18 9.9 18 14.8 20.5l1 3 5 4 5 5 6 5v2l2 .8c2.7 1 4.2 2 6.4 3.8 20.4 15.7 46.6 24.6 71.6 29.3l3.2.6c17 3 34 2.6 51.2 2.4h8.7l2.6-.1q3.2 0 6.3.2l1 2c-3.6 1.2-7 1.2-10.8 1.3h-2.4l-7.6.3h-2.6l-30.6.6-2.6.1c-5 0-8-.7-12.4-3.3-2.9-.7-2.9-.7-5-1v2l-4-1v-2l-2 .7c-4 .4-6.4-1-10-2.7a12 12 0 0 0-10-1c-6 0-6 0-8-1v-3l-1-3a42 42 0 0 0-8.5-.6l-2.5-.4-1-4c-2-.8-2-.8-4.4-1.2l-2.5-.5c-2.1-.3-2.1-.3-4.1-.3l-2-3-2.6-.4-2.4-.6-.4-2.5-.6-2.5c-5-1.7-10.7-1-16-1l.1-1.9.2-2.5v-2.4q0-1.2-.3-2.2c-1.8-1.2-1.8-1.2-4-2-3-2-3-2-3.8-4.2L111 335l-3 .8-3 .2q-1.3-3-1.6-6.1l-.4-1.9-2-1v-3l-3-1c-1.9-3.2-3-5.2-3-9l-2.5-.8L90 312c-.3-3.1-.3-3.1 0-6h-2v-2h-2l-3-7-2 2c-2-4.2-2.2-7.7-2.1-12.3v-3.8z"/>
  <path fill="#bea0f3" d="M404 33h3l1 4h3v2l1.9.9c2.6 1.3 2.9 2.5 4.1 5.1 3 2 3 2 5 3l1-2 1 3h3l.4 3.4.6 3.6a19 19 0 0 0 5 2c2 3 2 3 2 6h2c2 2.8 3.4 6 5 9l1.5 2.9A96 96 0 0 1 456 125h-2c-1.1-2.2-1.2-3.8-1.4-6.3-.5-4.7-1.2-8.3-4.6-11.7l-.5-5.7A43 43 0 0 0 445 88h-2l-1-7-2-1-1-5-1-3-2.5.1-2.5-.1c-.7-2.2-.7-2.2-1-5-1-2.8-1-2.8-2-5h-2v-3h-2.8l-21.1.1h-4C397 59 397 59 394 58c-.3-3.1-.3-3.1 0-7v-3.9l1-3.1c3-1 3-1 6-1l2 1 .3-2 .7-2 3-1c-.2-2.5-.2-2.5-1-5z"/>
  <path fill="#372522" d="m169.5 240.9 3 .5c5.3 1.2 7.2 3.2 10.5 7.6v2h-2l.8 1.9.2 2.1c-2.4 1.3-2.4 1.3-5 2v-2l-3.2 1.5c-3 1.3-5.4 1.8-8.8 1.5 2.8 5.9 2.8 5.9 5 7 1.4 2.4 1.4 2.4 2 5-3.2 2.3-6.1 2.2-10 2.2h-3c-4-.3-7-.4-10.2-3-3.8-4.8-3.1-11.3-2.8-17.2 1-3 1.7-4 4-6h2v-2l4.3-1.6 2.4-.7 2.3-.7c3.4-1.1 5-.8 8.5-.1"/>
  <path fill="#7f6fcd" d="M455 202h1l.3 89.4a144 144 0 0 1-6.7 51.9c-3 8.3-7.2 16-11.6 23.7l-1.6 3a122 122 0 0 1-19.4 23l-1.5 1.5a111 111 0 0 1-18.4 14.7c-4.4 2.8-8 3.4-13.1 3.8 1.8-4.1 2.8-6.2 7-8l2-3c2.6-.7 2.6-.7 5-1v3l.8-2c1.2-2 1.2-2 3.1-2.6l2.1-.4c2.4-2 3-3 4-6l3-1.4c3-1.6 3-1.6 4-3.5 1.2-2.5 2.1-2.8 4.6-4 3.3-1.8 3.3-1.8 4.4-4.7 0-2.4 0-2.4-1-5.4q2.9-1 6-1c.8-2 .8-2 1.5-4.5s.7-2.5 1.5-4.5h2l.3-2.6c.7-3.4.7-3.4 3.2-6.3 2.9-3.5 3-5.7 3.5-10.1h3l3-1c.5-1.9.5-1.9.6-4.2q.4-5 1.4-9.8h-1c-.2-3.9-.3-6.7 2-10h2q.5-4.2.6-8.5v-3l.5-14.6q.8-25.5 1.1-51l.1-3.8.4-26.3v-3.3l.1-3V204z"/>
  <path fill="#a688a1" d="m176 107-2 2h-4l-1 3c-5.7 4.4-12.1 7-19 9l-3 1-1 2c-1.3 2.5-2.3 3-5 4h-3l-1 3q-3.7 3-7.6 5.9a25 25 0 0 0-5.4 7.1l-3 2-1 3-5 2.7c-4.5 3-8.3 7.2-10 12.3h-2l-.4 1.7c-.7 2.9-2 4.2-4 6.4a49 49 0 0 0-8.6 18.5q-1.6 5.3-4 10.2-1.7 4-3 8.2l-1 1c-2.9 12.5-3.3 25-3.2 37.8v2.2c0 15 0 15 1.2 22h2l1 5 1.6 5.4c1 4 1.7 7.4 1.4 11.6l-3-1c-1.1-3-1.1-3-2-6.6l-2-6.4h-2a93 93 0 0 1-1.5-11.8l-.2-2-.8-5.5c-.8-6-.7-11.9-.7-17.9v-15A47 47 0 0 1 76 216h2q1.2-3.7 2-7.5c2.6-11.2 2.6-11.2 5-16.5h2c.6-2.3.6-2.3 1-5l1-3h2l-.2-2.7c.2-3.7 1-5.4 3.2-8.3h2l.5-2.5.5-2.5h2l.7-2.5c1.5-4.1 3.8-6.6 6.7-9.8 1.6-1.7 1.6-1.7 2.6-3.7l3.3-1.6c3.8-2.1 5.3-4.6 7.5-8.4a28 28 0 0 1 13.2-11l5-5c5-4.4 9.8-7.6 16-10q4.2-2.3 8-5h4v-2c6.3-3.2 6.3-3.2 10-2"/>
  <path fill="#796bbe" d="m231.6 424.3 2.5.3 1.9.4v2q4.4.3 9.2.3h12.7l52.9.4 16 .1h2.9l6.3.2v1l-8.8.1h-2.9l-16 .1-51.4.2c-15.8 0-30.3.6-43.9 9.6l-2.6 1.7q-9 5.8-17.5 12.4l-2 1.5-2.1 1.5-2 1.5-5 3.8-2.7 2-2.3 1.7-1.8.9-2-2 3-5v-2q3-.8 6.3-1.2l1.7-.8v-4l1-3 5 2v-2h2v-4q1.5 0 2.9.3l3.1-.3 1-1.9 1-2.1 3.6-1 3.4-1 1-5c2.5.3 2.5.3 5 1l1-2h5c2.8-.7 2.8-.7 5-2 .7-2.6.7-2.6 1-5 2.5-1.2 3.9-1 6.6-.7"/>
  <path fill="#49332e" d="M202 299c1.8 1.3 1.8 1.3 3.6 3.1 12 11.1 26.4 13.4 42 13l14.4-.1-2 4c-2.1-.2-2.1-.2-4-1l1-1-9.2.4-2.7.2h-2.6l-2.3.2q-3.2.1-6.2 1.2c-2 3-2 3-3 5l3 1a62 62 0 0 1-37.3-17c-1.7-2-1.7-2-2-5.2q0-1.4.3-2.8c2.6-1.3 4.2-1.3 7-1"/>
  <path fill="#bda5e6" d="m76 40 1 3-6 5v3c-1 3-1 3-3.4 4.8-3 2.6-3.4 4.5-4.6 8.2l-4 2c-3.1 4-5 8.2-7 12.8l-2.6 5.3A39 39 0 0 0 46 104h-2c-4.5 6.6-4.6 13.8-4.7 21.4v3.6l-.2 7.8-.5 20.6-.3 11.1-.1 3.8-.2 2.7h-1l-.3-4.8v-3.1l-.1-3.5-.1-3.6-.5-18.9c-.3-13.4 0-26 3-39.1l.6-2.8 1.8-6.3.6-2q2.1-7 6-13.1c1-1.8 1-1.8 1.5-4L50 72h2l2-6c5.8-10.1 13.6-18 22-26"/>
  <path fill="#9980d5" d="M400 181c3 1.2 3 1.2 6 3 .4 2.7.4 2.7 0 5h2a125 125 0 0 1 3 12.9l.4 2c.6 2.3 1.6 4 2.6 6.1a147 147 0 0 1 3.3 39.1c0 16.2-2.2 30.6-8.4 45.6q-1.2 3-1.9 6.3l-1 3-2 1c-3 1.6-4 4.2-5.7 7.2-1.3 1.8-1.3 1.8-3.5 2.5l-1.8.3 1-3h2c2-3 3-6.6 4.2-10q1.7-4 3.8-8l1-3.4 1-2.6h2l.7-5.7q.7-5.2 2.3-10.3h3l.2-21.5c.2-12.7-.5-25-3.2-37.5l-1-1-.8-5.6c-.9-5.5-2.5-9.6-5.2-14.4l-2-5-2-3z"/>
  <path fill="#b797de" d="M200 89a19 19 0 0 1-9 10l-2.4 1.6A23 23 0 0 1 176 104v2q-3.9 1.3-7.8 2.2l-2.2.8v2l-5.1 2.2c-1.9.8-1.9.8-4.4 2.3s-2.5 1.5-5.7 2.7c-4.5 1.8-8 5-11.6 8-2.2 1.8-2.2 1.8-5.2 2.8l-1 3-3.7 2.3a33 33 0 0 0-12 12.4 14 14 0 0 1-5.3 5.3h-3l-2 4c-1.6 1.8-1.6 1.8-3 3-.4-2.6-.4-2.6 0-6a54 54 0 0 1 7-7l1.6-1.7c1.4-1.3 1.4-1.3 3.4-1.3v-3l4-1v-2l3-2c3-2 3-2 4-5 1.7-1.5 1.7-1.5 3.8-3l7-5.3c2.2-1.7 2.2-1.7 4.3-2.2 1.9-.5 1.9-.5 3.2-2.4 3-3.7 7.9-4.8 12.6-5.5l2.1-.6.8-1.9c2-3.5 5.5-4 9.2-5.1a54 54 0 0 0 15.1-7.2C188 95 188 95 192 95l1-3c4.3-3 4.3-3 7-3"/>
  <path fill="#9682cc" d="M36 128h1l.2 4.3v9.5l.3 43 .3 46.4v8.7c.2 2.1.2 2.1 1.2 5.1l.2 7.5v2.3l.3 29.6.3 31.8v2.2q0 5.4 1.2 10.6v7a28 28 0 0 1-3-8.6l-.5-2.4a200 200 0 0 1-1.6-36.5v-30.1z"/>
  <path fill="#8b74c2" d="M79 280c3 3 3.2 6.4 4.1 10.4 1 2.8 1.8 3.6 3.9 5.6l4.2 7.5c9.9 18 9.9 18 14.8 20.5l1 3 5 4 5 5 6 5v2l2.5 1 2.5 1v3c1.5 1.2 1.5 1.2 3.5 2.2l3.5 1.8-3 1-2-1h-10l.1-1.9.2-2.5v-2.4q0-1.2-.3-2.2c-1.8-1.2-1.8-1.2-4-2-3-2-3-2-3.8-4.2L111 335l-3 .8-3 .2q-1.3-3-1.6-6.1l-.4-1.9-2-1v-3l-3-1c-1.9-3.2-3-5.2-3-9l-2.5-.8L90 312c-.3-3.1-.3-3.1 0-6h-2v-2h-2l-3-7-2 2c-2-4.2-2.2-7.7-2.1-12.3v-3.8z"/>
  <path fill="#8f7ecb" d="M455 202h1l.3 89.4a144 144 0 0 1-6 49.7l-.7 2.1c-7.8 21.9-7.8 21.9-13.6 24.8.6-4 2-7 4-10.6 2.9-5 2.9-5 3.6-7.7l.4-1.7h2c.5-1.7.5-1.7.9-4l.3-2.4.4-2.6.4-2.6 1-6.4h-1c-.2-3.9-.3-6.7 2-10h2q.5-4.2.6-8.5v-3l.5-14.6q.8-25.5 1.1-51l.1-3.8.4-26.3v-3.3l.1-3V204z"/>
  <path fill="#a1849d" d="M395 176h2c4.7 7 7.9 15.1 11 23l1.1 2.6a24 24 0 0 1 1.5 6.7c.4 3.7.4 3.7 1.4 4.7 4 17.2 7.1 41.9 2 59h-3l-.8 5.7q-.6 5.2-2.2 10.3l-2 1-1 5h-1c-.1-5.7-.1-5.7 1-8l.4-4.3q.4-5 2.6-9.7l2-1c4.2-17.3 5-43-2.1-59.6-1-2.5-1-4-.8-6.7l-.1-3.7-3-1c-.8-1.8-.8-1.8-1.5-4.1-3-10-3-10-6.2-14-1.3-1.9-1.3-1.9-1.3-5.9"/>
  <path fill="#bd9ce4" d="M240 49q4.5-.6 9 0c2.3 2.4 2.3 2.4 3 6-1 5.2-3.2 9.5-6 14v3l-4 2-1 3 3 1-4 1c.6-11 .6-11 4-15h2c.6-2.4.6-2.4 1.1-5.5l.5-3 .4-2.5h-6v2c-1.7.9-1.7.9-4 1.8a40 40 0 0 0-9 5c-3 2.2-3 2.2-5 2.2l-1 3h-2v2h-2v2l-3.6 3.1q-4.3 3.6-7.6 8.2c-2.2 3.1-4.2 5-7.8 6.7l1.3-4.5.7-2.5 1-2h4l2-5c3.2-3.9 3.2-3.9 6.3-4.4l1.7-.6-.1-3 .1-3 6-1c.9-3 .9-3 1-6l1 2c3-1 3-1 5-3 5.5-3 5.5-3 8-3v-2h2z"/>
  <path fill="#a58899" d="M238 72c1 2 1 2 .4 4.2l-.8 2.4-1 2.5-.6 1.9 2-1.2c13.8-7.8 25.5-9 41-8.8.2 2.4.2 2.4 0 5-3.2 2-3.2 2-5.1 3a26 26 0 0 0-8.9 9h-2l1 3c3 1.5 6.2 1.5 9.6 1.8 9 1 17.6 3 26.4 5.2a25 25 0 0 1-10.2.7l-3.3-.3-2.5-.4v-2h-2c-6.4.2-13 .1-19-2v-2h-2c-.3-2.9-.3-2.9 0-6l5-2 2-5 4-2v-4l-9.5 1.1c-5.3.7-5.3.7-7.5 2.9l-7 2.2c-2 .8-2 .8-4 2.8-2.2.2-2.2.2-4.6.1h-2.5L235 84v-8h2z"/>
  <path fill="#f3e4fe" d="M173.4 3.7h154.7c20.6 0 20.6 0 27.9 2.3v2l-2-.2a294 294 0 0 0-34.4-1H168c-9 0-18 .1-27 1.2 9-6 22-4.3 32.4-4.3"/>
  <path fill="#b7a0e4" d="m427 54 1 2 2.4 1c2.6 1 2.6 1 4.6 4v3h2c2 2.8 3.4 6 5 9l1.5 2.9A96 96 0 0 1 456 125h-2c-1.1-2.2-1.2-3.8-1.4-6.3-.5-4.7-1.2-8.3-4.6-11.7l-.5-5.7A43 43 0 0 0 445 88h-2l-1-7-2-1-1-5-1-3-2.5.1-2.5-.1c-1-2.9-1-5.7-1.3-8.7L431 60c-2-1.2-2-1.2-4-2z"/>
  <path fill="#a385c6" d="M76 216h1v48h2q.5 3 .7 6.3l.3 1.7h2l1 5 1.6 5.4c1 4 1.7 7.4 1.4 11.6l-3-1c-1.1-3-1.1-3-2-6.6l-2-6.4h-2a93 93 0 0 1-1.5-11.8l-.2-2-.8-5.5c-.8-6-.7-11.9-.7-17.9v-15c.2-4.2 1-7.7 2.2-11.8"/>
  <path fill="#55403b" d="M291.7 298c2.3 1 2.3 1 4.3 3-.1 3.7-.5 5.5-3 8.2-5.1 3.9-10 7.4-16 9.8l-2-2 1.6-1.3 1.4-1.7-1-3c-2-.7-2-.7-4-1l2.2-1.4c9-5.5 9-5.5 11.7-8.6 2.1-2 2.1-2 4.8-2"/>
  <path fill="#978cd0" d="m231.6 424.3 2.5.3 1.9.4v2q4.4.3 9.2.3h12.7l52.9.4 16 .1h2.9l6.3.2v1l-8.8.1h-2.9l-16 .1-51.4.2c-12.2 0-23.4.3-34.9 4.6l-1 1h-8l1-3h5c2.8-.7 2.8-.7 5-2 .7-2.6.7-2.6 1-5 2.5-1.2 3.9-1 6.6-.7"/>
  <path fill="#8776c9" d="M39 319c3 3.4 3.8 6.7 5 11l2 1c2 6 2.3 11.8 2.5 18 0 2 0 2 .5 5h3v-2l3 1c.5 2 .5 2 .7 4.4l.3 6.6 2 2v2c-1.8 0-1.8 0-4-1a57 57 0 0 1-4-6.7l-1-2A83 83 0 0 1 39 319"/>
  <path fill="#8f7ad7" d="M367 332h1v2l-.1 2.4-.1 2.5.2 2.1 2 1c-2 3-2 3-5 4l-1 3-2.4.4-2.6.6-2 4c-3.2 3.8-5.1 5.2-10 6l-1.4 1.4c-1.6 1.6-1.6 1.6-4.7 2.5-2.9 1.1-2.9 1.1-4.3 3.7l-.6 2.4a55 55 0 0 1-10-5l3.4-1.4c11.8-5 23.4-10.7 33.4-18.9 2.2-1.7 2.2-1.7 4.2-1.7z"/>
  <path fill="#a98cd8" d="M400 181c3 1.2 3 1.2 6 3 .4 2.7.4 2.7 0 5h2a125 125 0 0 1 3 12.9l.4 2c.6 2.3 1.6 4 2.6 6.1a127 127 0 0 1 2.8 39.3l-.3 6.6-.1 4c-.4 3.1-.4 3.1-2.4 6.1v-2.8c.6-35.7.6-35.7-3-50.2l-1-1-.8-5.6c-.9-5.5-2.5-9.6-5.2-14.4l-2-5-2-3z"/>
  <path fill="#d4bdf9" d="m422 48 1-2 1 3h3c1 3.2 1 4.7 0 8h-4v-7h-3v7l-5.9.2h-3.3L408 57c-2-3-2-3-1.7-6.1.7-2.9.7-2.9 1.7-3.9 5.2-1 9-1.3 14 1"/>
  <path fill="#664e59" d="M90 302h2v2h2v3l3 1v4h4q1.6 2.5 3 5.3c1 1.7 1 1.7 2.8 3.4 1.2 1.3 1.2 1.3 1.2 4.3h2l1 3 2 1v2l2.5.4 2.5.6v3l3-2c0-2 0-2-.3-4.1l-.7-3.9h2l2-2c1.1 4.8 1.1 4.8 0 7l-.6 5.6-.2 3-.2 2.4a53 53 0 0 1-16-13l-1-4-3-1-4.4-6-1.2-1.8A89 89 0 0 1 90 302"/>
  <path fill="#a591d7" d="M454 125h2l.2 69.6v2.1c0 3.7-.1 5.2-2.2 8.3a751 751 0 0 1-1.1-57.9v-16.8c.1-2.3.1-2.3 1.1-5.3"/>
  <path fill="#342420" d="M181 251h2c.5 8.1.5 8.1-1.4 11.6-1.6 1.4-1.6 1.4-3.6 1.4l-.8 2c-1.2 2-1.2 2-3.8 3H171c-.6-1.8-.6-1.8-1-4l-2-1c-2-1-2-1-3.3-3.4q0-1.3.3-2.6c3.4-2 7.2-3.5 11.1-2.4l1.9.4 3-2z"/>
  <path fill="#a5879c" d="M345 122c13.3 7.3 13.3 7.3 17 12v2l4 2q7 5.5 13 12v2l3 1a39 39 0 0 1 3.2 5l1.6 2.7c1.2 2.3 1.2 2.3 1.2 4.3h2v3h2c1.7 2.9 1.7 2.9 3 6l-1 2c-3.2-1.6-4-4.8-5.7-7.9-1.3-2.1-1.3-2.1-4.3-4.1l-1-3c-1-3-1-3-3-4l-2-1-3-5-2-1-.3-2-.7-2-5-2-1-2 1-2-2.1-.7c-3.5-1.6-6-3.8-8.9-6.3l-2.3-1.1c-1.7-.9-1.7-.9-2.7-3.9l-2-.4-2-.6z"/>
  <path fill="#af98e1" d="m46 89 1 3-1 2v10h-2c-4.5 6.6-4.6 13.8-4.7 21.4v3.6l-.2 7.8-.5 20.6-.4 15-.2 2.6h-1l-.2-4.9-.1-3.2v-3.6l-.2-3.6L36 133l-.1-3.5c-.1-6.5-.2-13.3 2.1-19.5h2l-.1-2c.2-5.3 2.2-15.1 6.1-19"/>
  <path fill="#e8dcf9" d="M287.1 375h6.9c-17.4 11.6-58.2 7.6-78 5v-1c10.6-1.7 21.6-1 32.2-.9 13.3.2 26.1-3.3 39-3.2"/>
  <path fill="#f8f5f5" d="M172 246c2.6 1.7 2.6 1.7 4 4 0 2.6 0 2.6-1 5-2.7 2.2-4.6 3-8 3.4-3-.4-3-.4-5.4-2-1.6-2.4-1.6-2.4-1.5-5.5 1.8-5.7 6.6-5.8 11.9-4.9"/>
  <path fill="#8c77d3" d="M101 324c5.8 4.6 5.8 4.6 8 8l1.8.4c3.1.8 5 2.5 7.5 4.5l2.7 2.2 2 1.9v2l2.5 1 2.5 1v3c1.5 1.2 1.5 1.2 3.5 2.2l3.5 1.8-3 1-2-1h-10l.1-1.9.2-2.5v-2.4q0-1.2-.3-2.2c-1.8-1.2-1.8-1.2-4-2-3-2-3-2-3.8-4.2L111 335l-3 .8-3 .2q-1.3-3-1.6-6.1l-.4-1.9-2-1z"/>
  <path fill="#664b66" d="M402 294h2c-.6 4-1.9 6.6-4 10l-2 5-2 3h-2l-2 5a145 145 0 0 1-23 24c-.6-1.8-.6-1.8-1-4 3-3.5 6-5.7 10-8l1-2h2l.4-2 .6-2h3c1-1.7 1-1.7 2-4 1.5-2.7 1.5-2.7 3-5h2v-3h2l.4-2.3c.6-2.7.6-2.7 2-4 2.4-2.5 2.7-5.5 3.6-8.7z"/>
  <path fill="#faf8f9" d="M333 247c2.4 1.7 2.4 1.7 4 4 .4 3.1.4 3.1 0 6-3.5 2.3-4.9 2.6-9 2-3-2.3-4.7-3.8-5.6-7.6.6-2.4.6-2.4 2.2-4.3 3.3-1.5 5-1.2 8.4-.1"/>
  <path fill="#b393d5" d="m136 125 3 1-3 3h-2l-1 3-3.7 2.3a33 33 0 0 0-12 12.4 14 14 0 0 1-5.3 5.3h-3l-2 4c-1.6 1.8-1.6 1.8-3 3-.4-2.6-.4-2.6 0-6a54 54 0 0 1 7-7l1.6-1.7c1.4-1.3 1.4-1.3 3.4-1.3v-3l4-1v-2c5.4-4 5.4-4 8-4v-2l1.8-.3c2.2-.7 2.2-.7 4.3-3.3z"/>
  <path fill="#3a2824" d="m169.5 240.9 3 .5c5.3 1.2 7.2 3.2 10.5 7.6v2h-2l.8 1.9.2 2.1c-2.4 1.3-2.4 1.3-5 2v-2h-2l.6-3.4-.6-3.6q-3.3-1.3-6.7-1.6c-2.3-.4-2.3-.4-5.3-2.4l-1 1c-.7-2-.7-2-1-4 3.4-1.1 5-.8 8.5-.1"/>
  <path fill="#e2cafe" d="M402.8 43.8c2.6 2.6 2.8 3.7 3.1 7.3 0 2.6 0 2.6-.9 4.9a18 18 0 0 1-10 2c-1.4-2.8-1-5-.9-8l.2-3.3.7-2.7c3.1-1.2 4.6-1.1 7.8-.2"/>
  <path fill="#48302c" d="M202 299a21 21 0 0 1 4.1 3.3l2 1.9 4.9 4.8h-3l2 2-4 2-2-1-.2-2.1-.8-1.9-7 1c-2-1-2-1-3-3-.3-3.1-.3-3.1 0-6 2.6-1.3 4.1-1.3 7-1"/>
  <path fill="#a5869b" d="M302 102c6.9.4 11.9 2 18 5l3 1.5 9 4.5 2.4 1 1.6 1v2l5 2 4 2c-3.6 1.2-4.1.7-7.4-.9a26 26 0 0 0-7.7-2.6l-1.9-.5v-4c-4-.6-4-.6-6.2-.7l-1.8-.3-1-2-4-1.4a71 71 0 0 1-13-5.6z"/>
  <path fill="#af90dd" d="m102 159 2 1-2.4 4-1.3 2.3L99 168h-2l-.5 2.5-.5 2.5h-2l-1 4q-.8 3.6-2 7h-2c-.6 2.3-.6 2.3-1 5l-1 3h-2l-1 5-2 3a49 49 0 0 1 7-23l1.2-2.6L93 169h2v-2l3-3 1-2.1c1-1.9 1-1.9 3-2.9"/>
  <path fill="#a28597" d="M83 203h1v5l-2 2a93 93 0 0 0-2 10.6c-1.4 10.7-1.5 21.5-1.7 32.3L78 264h-1c-1.5-8-1.1-16-1-24v-3l.3-9.5v-3A31 31 0 0 1 81 208l1.2-3z"/>
  <path fill="#ece3f3" d="M132 345c4.6 2.2 4.6 2.2 6 5h2v-2h3l.2 3 .8 3c2.8.3 5.3-.3 8-1l-.9 1.8-.1 2.2 6 3 1 3a97 97 0 0 1-29-16z"/>
  <path fill="#432e28" d="m262 315 2 1v4c-2.1.8-2.1.8-4.9 1.2-5 .8-5 .8-7.1 1.8h-12v-3l-3-3 23-1-2 2 3-1z"/>
  <path fill="#846de2" d="M445 344h2l-1 4h-2l-.2 2.9c-.5 4.6-3 8-5.4 11.9-1.4 2.2-1.4 2.2-2.4 5.2h-2l-2 4c-1-3-1.2-5 0-8h2l.3-2.6c.7-3.4.7-3.4 3.2-6.3 2.9-3.5 3-5.7 3.5-10.1h3z"/>
  <path fill="#aa8a9e" d="M226 64v3l-3 2v2h-2l-.8 1.9c-1.6 2.8-3.3 3-6.2 4.1l-2 4-2.5 2.4c-2.5 2.6-2.5 2.6-3.6 5.4L205 91h-4c-.7 2.5-.7 2.5-1 5l-3-1q2.7-6.4 8-10.5c2-1.5 2-1.5 3.3-3.7A40 40 0 0 1 217 71h2v-2h2v-2c2.5-3 2.5-3 5-3"/>
  <path fill="#614e48" d="m226 314 2.6.5a69 69 0 0 0 12.5.6l20.9-.1-2 4c-2.1-.2-2.1-.2-4-1l1-1-9.2.4-2.7.2h-2.6l-2.3.2q-3.2.1-6.2 1.2c-2 3-2 3-3 5l3 1-8-1 .7-1.7c.3-2.3.3-2.3-1.1-4.6L224 316h2z"/>
  <path fill="#efded5" d="m393 248 2 2 2-2h2v21l-4-5-1.8-2.1c-2-4.6-.9-9-.2-13.9"/>
  <path fill="#957cd5" d="M79 280c3 3 3.2 6.4 4.1 10.4 1 2.7 1.8 3.7 3.9 5.6 2.8 3.9 4.6 7.1 4 12l-1-2h-2v-2h-2l-3-7-2 2c-2-4.2-2.2-7.7-2.1-12.3v-3.8z"/>
  <path fill="#a185ca" d="M410 208c1.5 1 1.5 1 3 3q.3 4 0 8h2c3.2 7.7 2.1 17 1.8 25.1l-.3 11.5v2.1c-.2 3.6-.4 5.2-2.5 8.3v-2.8c.5-34 .5-34-3-50.2z"/>
  <path fill="#f0ecfb" d="M121 480h2q1.5 2.6 2.8 5.3c1.5 2.2 2.7 2.8 5.2 3.7q7.6.9 15-1c-.7 2-.7 2-2 4-2 .5-2 .5-4.6.4h-2.7l-2.8-.1-2.9-.1-7-.2 1-4h-3c-2-3-2-3-1.7-5.7z"/>
  <path fill="#9d82ae" d="M78 264c1.8 3 2 4.2 2 8h2l1 5 1.6 5.4c1 4 1.7 7.4 1.4 11.6l-3-1c-4.4-9.2-4.7-19-5-29"/>
  <path fill="#a98ba4" d="M242 53h6l-.7 6.8C247 62 247 62 246 64h-2l-1 2v-3h2v-7l-4 1v2l-2.9.4-3.1.6-2 3c-3.6.7-3.6.7-7 1 4-4.6 8.2-7 14-9h2z"/>
  <path fill="#efe3da" d="m121 233 3 1-5 5-2.4 2.3-2.6 2.5-2.5 2.4c-2.8 2-4.1 2.2-7.5 1.8 1.8-3.9 1.8-3.9 4-5v-2l2.4.4 2.6-.4 1-6c2.2-1 3.7-1 6-1z"/>
  <path fill="#b99bd7" d="M240 69c1.2 3.6.7 6.3 0 10 3-1 3-1 4.6-3.5 2.6-2.8 3-2.9 6.5-3l4.7.2h2.4l5.8.3v1l-5 .8a49 49 0 0 0-17.9 7C239 83 239 83 236 83c1-4.8 2-9.5 4-14"/>
  <path fill="#e7d9f6" d="M184 370q6.6.7 13 3l5.5 1.5q5.8 1.5 11.5 3.5c-3.5 1.2-5.9.8-9.4 0-.6 0-.6 0-3.2-.6l-3.3-.7-3.2-.7q-7.6-1.4-14.9-4c2-2 2-2 4-2"/>
  <path fill="#6a534d" d="m298 265 1 2h3l-.6 1.9c-.4 2.1-.4 2.1.6 4.1l3 1c.2 3 .2 3 0 6a34 34 0 0 1-12-11l-1-3c3-1 3-1 6-1"/>
  <path fill="#8e7ccd" d="M367 332h1v2l-.1 2.4-.1 2.5.2 2.1 2 1c-2 3-2 3-5 4l-1 3-2.4.4-2.6.6-2 4c-3 2-5.4 2.2-9 2q4.9-5 10.6-8.7l1.8-1.3c4.3-3 4.3-3 6.6-3z"/>
  <path fill="#6d554e" d="m349.6 297 2.4 1 1 4 3 1v2h3l-1 2h2l-2 5-14-12c2.7-3 2.7-3 5.6-3"/>
  <path fill="#43302a" d="m280 312-4 8q-3.5-.7-7-2v2l-3-1 2-1-1-3h3v-3c4-2.4 6-2 10 0"/>
  <path fill="#3e3028" d="M236 255v2a27 27 0 0 1-8.2 3.4c-1.8.6-1.8.6-3 2.4l-1.7 4.9-1.1 2.3-3 1-2-1c.2-3 .7-4.6 2.6-7 5-4.1 9.6-8 16.4-8"/>
  <path fill="#f3e1d8" d="M92 246h1l-.1 2.2-.2 2.7v2.8l.3 2.3c1.9 1 1.9 1 4 1l2-3 3 1-3.3 5.3-1.9 3C95 266 95 266 92 269z"/>
  <path fill="#a788ae" d="m109 152 2 1-2.9 5.5-1.6 3-1.5 2.5h-2l-.4 1.7c-.8 3.1-2.4 5-4.5 7.4l-2 2.7C94 178 94 178 91 180l1-1.8c1-2.2 1-2.2 2-5.2h2l.5-2.5.5-2.5h2l.7-2.5c1.5-4.1 3.8-6.6 6.7-9.8 1.6-1.7 1.6-1.7 2.6-3.7"/>
  <path fill="#ebe6f8" d="M56 370q4.7 4.8 8.6 10.4 3 4.3 6.6 8.2L73 391l-2 2-4-4v-2h-2l-4-6-1 2h-2a27 27 0 0 1-2-13"/>
  <path fill="#4d3a33" d="M270 312v3l-2 1-1 3 2 1v-2l4 1 1 2-4.7 1.5-2.7.8c-2.6.7-2.6.7-6.6.7.6-2.9.9-3.9 3-6l-.7-2-.3-2c2.7-1.2 5-2 8-2"/>
  <path fill="#e3d6d0" d="M280 317c1 3 1 3 0 6-2.4 1.8-2.4 1.8-5 3l-3-1c-2.5-.7-4.3-1-7-1l-1 2h-5l-3 1-4-2 2.9-.5A93 93 0 0 0 280 317"/>
  <path fill="#9277c4" d="M406 288h2c-1.3 9.7-2.9 16.8-10 24l-1.6 1.8-1.4 1.2-2-1 1-2h2c2-3 3-6.6 4.2-10q1.7-4 3.8-8l1-3.4z"/>
  <path fill="#deccf9" d="m422 46 2 1v2h3c1 3.2 1 4.7 0 8h-4v-7h-3v7h-3v-9h5z"/>
  <path fill="#3e2e2b" d="m328 241 9 3-1 3c-3 1-3 1-6 .4-3-.4-3-.4-6 1.6-1.2 2.1-1.2 2.1-2 4l.1-2.4-.1-2.6-2-1 2-4 1 2h2l-1-3 4 1z"/>
  <path fill="#4f3e37" d="M284 306c2.1.4 2.1.4 4 1l-1 3 3 1-4.8 3.4-2.7 2C280 318 280 318 277 319l-2-2a17 17 0 0 1 5-4v-2l4-2-2-1z"/>
  <path fill="#58433e" d="m205 307 1 2 2 1-1 1h3l-1-3 7 1c0 3 0 3-1 6q-5.8 1.7-11.2-1c-2-1.4-2-1.4-4.8-4l1-2c2.5-.7 2.5-.7 5-1"/>
  <path fill="#7e6bd5" d="M72 385c2.8 0 5.4 0 8 1 .5 3.6.5 3.6 0 7h4a35 35 0 0 1 4 5c-1.7.7-1.7.7-4 1-5.2-3-9.2-7.8-12-13z"/>
  <path fill="#6a554a" d="M378 244q6 4.7 11 10.2l2 2 1 1.8-2 3-2-3-2 1v-2l-3-1v-4h-2v-3l-2-1-2-1z"/>
  <path fill="#a38691" d="m128 135 3 1-7.7 7.6C121 146 121 146 120 149l-5.1 2.9a31 31 0 0 0-6.9 6.1c1.4-5 4.1-6.8 8-10l1.4-2.4c2.4-4 6-6.6 9.6-9.6z"/>
  <path fill="#664b67" d="M90 302h2v2h2v3l3 1v4h3c1.4 1.9 1.4 1.9 2.7 4.4l1.3 2.4c1 2.2 1 2.2 1 4.2h2l1 5-2-1v-3l-3-1-4.4-6-1.2-1.8A89 89 0 0 1 90 302"/>
  <path fill="#ede9f8" d="M437 367c1.6 3.2.8 5.6 0 9l-2.5.9-2.5 1.1q-1.1 4.5-1 9l-2-3-2 2-4 1 2.6-3.5 1.7-2.2 3.4-4.5 1.6-2 1.4-2q1.9-2.7 3.3-5.8"/>
  <path fill="#f0e1f9" d="M336 361c-4 2.7-8.5 4.4-13 6.2l-2.8 1.1-2.6 1.1-2.5 1c-2.1.6-2.1.6-5.1-.4 3.4-2.2 6-3.2 10-4l1-2c2.1-1.1 2.1-1.1 4.8-2.2l2.6-1c3-.9 4.7-.6 7.6.2"/>
  <path fill="#8375bf" d="M59 374c2 .8 2 .8 4 2l1 3 2.5.4 2.5.6.3 2.2c1 3.8 2.7 5 5.6 7.5l2.8 2.3 2.3 2 2 2-3 1c-1.5-1-1.5-1-3.1-2.6l-1.8-1.8-3.8-4A70 70 0 0 1 59 374"/>
  <path fill="#7661de" d="m361.1 417.4 2.7.2c2.2.4 2.2.4 4.2 1.4l1-2h4v2a25 25 0 0 1-12.7 2.3h-2.1c-2 0-2 0-5.2-.3l-1-3c3.2-1 5.8-1 9.1-.6"/>
  <path fill="#eee2f7" d="M364 341h3v2l-7.2 5-2.1 1.5a26 26 0 0 1-9.7 4.5l1-3h3l1-4c3-2 3-2 6-3s3-1 5-3"/>
  <path fill="#f0e2d9" d="M378 241c2 .8 2 .8 4 2l1 3c2.6.2 2.6.2 5 0l-1 4 2.6.1 2.4.9c-.2 3-.2 3-1 6l-6.9-6.7-1.9-1.9-1.7-1.7a11 11 0 0 1-2.5-5.7"/>
  <path fill="#725ed9" d="m169 464 3 2-3.9 3-2.2 1.7C164 472 164 472 162 472v2l-7 2 1-4 4 1-.4-2.4.4-2.6c2.8-1.2 2.8-1.2 6-2z"/>
  <path fill="#8874e3" d="m120 343 15 9-3 1-2-1h-10z"/>
  <path fill="#8d73de" d="M399 309c1.2 3.5 1.3 4.6 0 8q-2.5 2.3-5.3 4.5a14 14 0 0 0-3.7 5.5c-1-2-1-2-.2-5.1l1.2-2.9h2v-4l1.9-.4 2.1-.6c1.3-2.6 1.3-2.6 2-5m-12 18 2 1-2 1z"/>
  <path fill="#aa8dd0" d="M89 180h2v4h-2c-.6 2.3-.6 2.3-1 5l-1 3h-2l-1 5-2 3c.3-7.6 1.4-14.4 7-20"/>
  <path fill="#725ddb" d="m127 480 10 1-.7 3-.3 3 4 1h-9v-2l-2-1-2-2z"/>
  <path fill="#7561dc" d="M192 444h5v3h-3l-.4 2-.6 2-5 1-1 3c-1.6-1.2-1.6-1.2-3-3 .3-2.2.3-2.2 1-4l5 2v-2h2z"/>
  <path fill="#b698f0" d="m46 89 1 3-1 2v10h-2l-2.1 4.5-1.1 2.5-.8 2c-1-3.3-1-4.2 0-7.4l.6-2.5.7-2.7.7-2.6c1.7-6.5 1.7-6.5 4-8.8"/>
  <path fill="#8677c7" d="M80 397h4v2c2.3.6 2.3.6 5 1l3 1v2l2 1 4 6a60 60 0 0 1-9-5.4l-2.6-1.7A53 53 0 0 1 80 397"/>
  <path fill="#493936" d="M172 241c2 2 2 2 3 4l-1 1 2 1-1 3v-2c-1.9-.6-1.9-.6-4.3-1a16 16 0 0 1-7.7-3l-1 1c-.7-2-.7-2-1-4 3.9-1.3 7-1 11 0"/>
  <path fill="#8b75e2" d="M42 331h4c2 5.7 2.2 11 2 17l-2-1-2-7-1.1-2.1c-1.1-2.4-1-4.3-.9-6.9"/>
  <path fill="#fcf0ea" d="m206 238 2 3-3 6 1 3 .6 5.7.2 3 .2 2.3-2-2-2 1c-.6-16-.6-16 3-22"/>
  <path fill="#b190e2" d="m114 143 2 1-2.4 4-1.3 2.3-1.3 1.7h-2l-2 4c-1.6 1.8-1.6 1.8-3 3-.4-2.6-.4-2.6 0-6a54 54 0 0 1 7-7l1.6-1.8z"/>
  <path fill="#eadfd6" d="m189 277 2 1c0 2.5 0 2.5-1 5l-5 1c-1.3 2-1.3 2-2 4a17 17 0 0 1-5-4l2.2-1.3 2.7-1.6 2.8-1.7c2.3-1.4 2.3-1.4 3.3-2.4"/>
  <path fill="#f2e3dc" d="M361 224.2c2 .8 2 .8 3.3 2.7.7 2.1.7 2.1.7 4.1-1.7.8-1.7.8-4 1-2.8-1.2-2.8-1.2-5-3 0-2.1 0-2.1 1-4 2-1 2-1 4-.8"/>
  <path fill="#8c7cd0" d="M39 319c3.5 3.6 4.5 8.1 5 13l-1 4 1 3.5c1 3.4 1 4.3 0 7.5q-5.2-13.5-5-28"/>
  <path fill="#bc9ed6" d="M250 51c1.8 2.8 1.8 2.8 2 6-2.4 1.9-2.4 1.9-5 3l1-7h-6v2l-4 1c2.4-5.4 6.3-6.3 12-5"/>
  <path fill="#7567be" d="m389 411 2 1c-5.6 4.3-12.2 7-19 9-2.4-.4-2.4-.4-4-1l2.4-.9c2.6-1.1 2.6-1.1 3.6-3.1l4.2-1c4-.7 7.2-2.1 10.8-4"/>
  <path fill="#6f5952" d="m108 248 2 1v3l2-1c-.7 2.5-.7 2.5-2 5h-5l-2 3c-2.1-.3-2.1-.3-4-1l4.4-5 2.4-3z"/>
  <path fill="#a98aa4" d="m196 95 1 2h-3l-.3 1.8c-.7 2.2-.7 2.2-3.2 3.7l-3.2 1.3-3.2 1.2c-3 1-5 1.2-8.1 1v-2c2.4-1 2.4-1 5.7-1.9 4.6-1.4 7.8-2.8 11.3-6.1z"/>
  <path fill="#796cbc" d="m125 483 6 3v2l15-1c-3 3-5.8 3.2-9.9 3.3-4.1-.1-6.9-.4-10.1-3.3-.8-2.2-.8-2.2-1-4"/>
  <path fill="#c3aceb" d="M81 35c1.2 1.8 1.2 1.8 2 4-1.3 1.6-1.3 1.6-3 3l-1 3h-2v2l-7 2 2.3-2c2.3-2.6 3.2-3.7 4.3-6.7C78 37 78 37 81 35"/>
  <path fill="#cab6e7" d="M141 8v2c-1.9.7-1.9.7-4.5 1.3l-2.8.7-3 .7-2.9.7-2.8.7-2.6.6c-2.5.3-4 0-6.4-.7l2.9-.8 3.7-1 3.8-1.1 6.9-2.2c2.7-1 4.8-1 7.7-.9"/>
  <path fill="#f6f2ff" d="M237 429c2.9-.3 2.9-.3 6.7-.3h2l10.7.2 10.6.1v1l-8.7.5Q247 431 236 432z"/>
  <path fill="#edddf7" d="M287.4 374.9h3.7l2.9.1a33 33 0 0 1-20 4v-2c4.5-2 8.5-2.2 13.4-2.1"/>
  <path fill="#bda8de" d="M407 33a33 33 0 0 1 14.5 13l.5 2c-3-.2-3-.2-6-1-.6-2.4-.6-2.4-1-5-2-1.7-2-1.7-4-3v-2h-3c-.7-2-.7-2-1-4"/>
  <path fill="#7663d9" d="m208 433 5 2a16 16 0 0 1-6 6h-3v2l-3 2-3-1c.6-1.9.6-1.9 2-4l3.6-1 3.4-1c1-2.6 1-2.6 1-5"/>
  <path fill="#7e71bd" d="m107 412 3 1v2l2.1.8c4.6 2 8 4.5 10.4 9l.5 2.2-2 1-4-6c-2.4-2.8-5-4.1-8.2-5.7l-2.7-1.3-2.1-1z"/>
  <path fill="#e3d6ce" d="M275 271h1l1 5 2-1c.8 2.8.8 2.8 1 6a14 14 0 0 1-9 5l1.4-2.4c1.7-3.8 2.1-6.8 2.4-10.8z"/>
  <path fill="#a5868d" d="M245 56v7h-2l.2 2.4-.2 2.6-3 1-1 3v-4h2l-.3-1.9-.4-2.4-.4-2.4c.1-2.3.1-2.3 1.5-4C243 56 243 56 245 56"/>
  <path fill="#836de0" d="M167 369h2v2l7 1c2.4.4 2.4.4 4 1v3l-3.2-.5c-3.8-.5-3.8-.5-7.8-.5a9 9 0 0 1-2-6"/>
  <path fill="#7560dd" d="m231.6 424.3 2.5.3 1.9.4v2l4 1-16 1 1-4c2.5-1.2 3.9-1 6.6-.7"/>
  <path fill="#f1edf9" d="m83 400 11 7c-3 2-3 2-5 2a18 18 0 0 1-6-2c-.5-3.6-.5-3.6 0-7"/>
  <path fill="#8a74d0" d="m353 356-1 3-5 1-4 3-1-2-3-1c5-4 7.7-4.4 14-4"/>
  <path fill="#8973e5" d="m369 342 2 2-2 2-.4 3.1-.6 2.9h-3l-6 1v-3l2.4-.4 2.6-.6 1-4 3-1z"/>
  <path fill="#b995c0" d="M240 69c1.2 3.6.7 6.3 0 10l5-1c-2 2-3.6 3.4-6 5h-3c1-4.8 2-9.5 4-14"/>
  <path fill="#f9edfd" d="M336 4q10.1-.6 20 2v2l-12-1-2.6-.2L336 6z"/>
  <path fill="#e7def9" d="M451 336h2c.2 3.4.2 3.4 0 7l-3 2c-.8 2-.8 2-1.5 4.5-1.2 4.3-1.2 4.3-4.5 6.5l3-9 1-3 1-3 1-3z"/>
  <path fill="#6d5149" d="M130 305c2 0 2 0 4.4 2.1l1.6 2.9c-1.3 2.5-3 4-5 6-2.4-2.4-2.7-3.7-3-7l3-1z"/>
  <path fill="#402e28" d="M290 299c2.5-.1 2.5-.1 5 1 .8 2.6.8 2.6 1 5-2.4.6-2.4.6-5 1l-2-2c0-2.7 0-2.7 1-5"/>
  <path fill="#69534b" d="M177 281c2 1 2 1 3 3l-5.9 2.5-3.3 1.4C168 289 168 289 166 289v-3l5-1v-3h2.4c2.6 0 2.6 0 3.6-1"/>
  <path fill="#6a534a" d="M350 226c4 1 6.9 2.4 10 5l-2.9 1c-3.1 1-3.1 1-5.1 2l-3-6z"/>
  <path fill="#cdb7f2" d="M397 47c2.6-.3 2.6-.3 5 0v3l-3 1 3 1c.7 2.6.7 2.6 1 5a12 12 0 0 1-7-5c0-2.7 0-2.7 1-5"/>
  <path fill="#7362cb" d="M143 480h7l1 2h-2v2l-2 2v1h-6l1-1.8c1-2.2 1-2.2 1-5.2"/>
  <path fill="#e7e2f8" d="m183 459 2 1c0 3 0 3-1 5l-4-1-1 2h-2l-1.4 2-1.6 2c-2.1-.4-2.1-.4-4-1l1.6-1.2 2-1.6 2.3-1.6 5-4z"/>
  <path fill="#8b75e3" d="m450 320 2 1c.4 5.4-.1 11-2 16h-2l1-7h-1c-.2-4 0-6.6 2-10"/>
  <path fill="#efe0d9" d="m286.7 295.8 2.3.2-2.2 4-1.3 2.2c-1.8 2.1-2.8 2.4-5.5 2.8.6-4.7 1.5-8.8 6.7-9.2"/>
  <path fill="#5a4039" d="M145 254h1q.8 5 1.3 9.9c.7 3.1 1.2 4.2 3.7 6.1l-6 1a45 45 0 0 1 0-17"/>
  <path fill="#786bb9" d="M174 465c-1.3 4-3.8 5.4-7 7.7l-1.8 1.2-4.2 3.1-1-3h2v-2c2.1-1.7 2.1-1.7 4.9-3.6l2.7-2c2.4-1.4 2.4-1.4 4.4-1.4"/>
  <path fill="#eeeaf8" d="M99.4 410.8q3.6 1.7 6.6 4.2-4.5 1.1-9 1c-1.7-2.4-1.7-2.4-2-5 2-1 2-1 4.4-.2"/>
  <path fill="#8676c0" d="M445 349c1 3 1 3-.6 6.5l-2.2 4.1-1.1 2.1c-2.8 5.2-2.8 5.2-5.1 6.3.6-4 2-7 4-10.6l1.5-2.9z"/>
  <path fill="#f0e3dc" d="m342 298 8 6-1 2c-3.3-.2-4.8-.9-7.4-2.9L340 301z"/>
  <path fill="#9c8294" d="M80 272h2l1 5 1.6 5.4c1 4 1.7 7.4 1.4 11.6l-1-2c-1-2-1-2-2-3l-.6-6c-.4-2-.4-2-2.4-5z"/>
  <path fill="#a38692" d="M384 160h2l2 5h2v3h2c1.7 2.9 1.7 2.9 3 6l-1 2c-3.2-1.6-4-4.8-5.7-7.9-1.3-2.1-1.3-2.1-4.3-4.1z"/>
  <path fill="#d5bcfc" d="M403 45h-7l.8 4.4.5 2.4c.7 2.2.7 2.2 3.7 4.2l-7 2 .2-7v-3.8l.8-3.2c3.7-1.7 4.6-1.3 8 1"/>
  <path fill="#eae5fb" d="M372 422c-2.5 3.3-3.7 4-7.9 4.6l-4.4.1-2.2.1-5.5.2c3.6-2 7.2-3 11.1-4.2l3.8-1c3.1-.8 3.1-.8 5.1.2"/>
  <path fill="#8875dd" d="M101 324c5.9 4.6 5.9 4.6 7 8l3 2-6 2-.4-1.7-.5-2.2-.5-2.3c-.6-1.8-.6-1.8-2.6-2.8z"/>
  <path fill="#46352e" d="m271 281 2 3a22 22 0 0 1-9 7 23 23 0 0 1 3-8h3z"/>
  <path fill="#6c564f" d="m307 278 6 2v2h3c.7 2 .7 2 1 4a70 70 0 0 1-11-5z"/>
  <path fill="#e7ddd4" d="M226 257c0 2 0 2-1.7 3.8l-2.2 1.9-2.2 2-1.9 1.3-2-1c.8-2.6.8-2.6 2-5h2v-2c2-1 2-1 6-1"/>
  <path fill="#7260d0" d="m182 457-1 3h-3l1 3c-2.4 1.7-2.4 1.7-5 3 0-3.4.7-5.8 2-9 3-1 3-1 6 0"/>
  <path fill="#eee1d9" d="m304 281 4.6 1.4 2.5 1 1.9.6c-1.7 2-1.7 2-4 4-2.2-.2-2.2-.2-4-1l2-1h-2c-1.2-2-1.2-2-2-4z"/>
  <path fill="#70564d" d="M392 260c3.4 3.1 5.6 5.6 7 10-2.4.7-2.4.7-5 1-1-3-1-3-1-5z"/>
  <path fill="#f0e5dc" d="M106 206h4v10h-2v-4c-2-.7-2-.7-4-1 .8-2.5.8-2.5 2-5"/>
  <path fill="#b497e5" d="m351 120 2 1v3h4v3l2-1c1.6 2.4 1.6 2.4 3 5-3.4-.5-5-1-8-3v-3l-3-1z"/>
  <path fill="#866de5" d="m52 352 3 1c.6 1.8.6 1.8.9 4l.3 2.2-.2 1.8-3 1c-1.7-2.8-2-4.5-1.6-7.8z"/>
  <path fill="#9c7ec7" d="M76 264h2c.5 2.7.5 2.7.8 6.3l.2 3.6c0 3.1 0 3.1-2 6.1a32 32 0 0 1-1-10.2z"/>
  <path fill="#e5d7cf" d="M290 262c2.5 2.5 3.3 4.5 4 8a8 8 0 0 1-6 2c-.2-4 0-6.6 2-10"/>
  <path fill="#4a3835" d="m337 252 1 4 4-1v-2h2v11l-2-4-3-1-1 2z"/>
  <path fill="#473831" d="M236 255v2a37 37 0 0 1-10 4l-3 2v-3c2-1.4 2-1.4 4.8-2.7l2.7-1.3c2.5-1 2.5-1 5.5-1"/>
  <path fill="#8b70e5" d="M379 333c2.6-.2 2.6-.2 5 0l-1 3-1.8.3c-2.8.9-3 1.7-4.3 4.3L375 344h-3l1-3h2l2-5z"/>
  <path fill="#957add" d="m408 288 3 1-5 15-2-1q.7-3.8 1.9-7.6l.6-2.1z"/>
  <path fill="#705b56" d="M366 235q5.9 2.9 11 7l-2 2-3-3-1 2-6-6z"/>
  <path fill="#f0e2d8" d="m141 171 3 1-1 2-2-1v2c-2.8 1.3-2.8 1.3-6 2l-3-2c4.5-4 4.5-4 9-4"/>
  <path fill="#ac948a" d="M235 163c3-.2 3-.2 6.6-.1h3.6l2.8.1v1l-6 1 1 3c-3.7-.5-5.8-.9-9-3z"/>
  <path fill="#f3e3d8" d="M222 160q6.1 2 12 5l-1 2c-2.7.3-5.3 0-8 0l1-2-4-4z"/>
  <path fill="#dec9fc" d="M409 48h7v8h-5l.7-2.9.3-3.1z"/>
  <path fill="#826bdf" d="M292 379c-.5 2-.5 2-2 4q-4 .3-8-1l-2-2c4-1 7.8-1 12-1"/>
  <path fill="#f6e9fc" d="M208 376q10-.4 20 2v1l-6.6.1-3.8.1a27 27 0 0 1-9.6-2.2z"/>
  <path fill="#483831" d="M250 291.3c2 .7 2 .7 4 2.7l-5.6 1-3.2.6q-4.5.6-9.2.4c2.2-1.2 4-2 6.6-2.5 3-.6 4.4-2.6 7.5-2.2"/>
  <path fill="#e3d7cf" d="M268 288c2 1 2 1 3 3l-1 3h-3l-1-1-2 1-2 1-2-2 3.9-2.6 2.2-1.4z"/>
  <path fill="#e5dede" d="M333 247c-2 2-2 2-4.6 2.1l-2.4-.1v5h-3c-.2-2.3-.2-2.3 0-5 3.1-3.6 5.6-3.1 10-2"/>
  <path fill="#a68ad2" d="M79 200h3a67 67 0 0 1-4 16c-1.2-3.6-.8-6.5-.2-10.2l.4-3.3z"/>
  <path fill="#eeded7" d="M363 323h2a16 16 0 0 1 2 10l-3 1-.4-2.7c-.6-3.3-.6-3.3-1.2-5.6l-.4-1.7z"/>
  <path fill="#6a5170" d="M99 314c4 2.4 4.7 4.7 6 9h2l1 5-2-1v-3l-3-1c-1.4-1.6-1.4-1.6-2.7-3.4l-1.4-2-.9-1.6z"/>
  <path fill="#3e2923" d="M226 314v2l3 2c-.8 2.1-.8 2.1-2 4l2 1c-2-.2-2-.2-4-1l-.4-2-.6-2c-2.6-.2-2.6-.2-5 0 4.8-4 4.8-4 7-4"/>
  <path fill="#47312c" d="M284 306c2.1.4 2.1.4 4 1l-1 3 3 1-2 2c-3.1-.2-3.1-.2-6-1v-2l2-1-2-1z"/>
  <path fill="#eee1d8" d="M352 218c-6.5 3.1-10.9 4.6-18 3 3.7-2.5 5.6-2 10-2 5-2 5-2 8-1"/>
  <path fill="#efdfd6" d="M376 194a24 24 0 0 1 6 9l-1.9.4c-2.1.6-2.1.6-4.1 2.6l.6-2.7c.4-3 .3-4.5-.6-7.3z"/>
  <path fill="#b5a1da" d="M42 94c1.4 3.7.7 6.5-.3 10.3l-.8 3.2-.9 2.5h-2l.9-5.7.5-3.3c.5-2.7 1.2-4.6 2.6-7"/>
  <path fill="#bc9ef3" d="M432 64c3.8 1.3 4.2 2.5 6 6l2 5-2-1v-2l-2.4.5-2.6-.5q-1.1-4-1-8"/>
  <path fill="#e9e5f8" d="M168 472c-1.3 2.9-2.5 5-5 7-3.2.7-3.2.7-6 1 7.8-8 7.8-8 11-8"/>
  <path fill="#776abc" d="M242 428v1l-6.8 1.6-3.8.9c-3.4.5-3.4.5-6.4-.5 5.6-3.6 10.6-3.3 17-3"/>
  <path fill="#eae5fa" d="M414 395c1 4 1 4 0 6l-2.4.4c-2.9.7-3.8 1.4-5.6 3.6l-2-2z"/>
  <path fill="#412b26" d="m196 301 7 2-2 1v2h-2l1 3c-2-.6-2-.6-4-2-.2-3.1-.2-3.1 0-6"/>
  <path fill="#6d5147" d="M90 276h3c-.4 4.8-2.5 6.8-6 10 .8-6.6.8-6.6 3-10"/>
  <path fill="#f0e9ec" d="m326 249 3 1h-2l1 2.3a46 46 0 0 1 2 6.7c-2.5-.7-2.5-.7-5-2 0-3.1.2-5.1 1-8"/>
  <path fill="#7c68e6" d="M394 405c-.2 2-.2 2-1 4-1.8.8-1.8.8-4 1.3l-2.3.4-1.7.3c2.4-4.5 3.6-6 9-6"/>
  <path fill="#e4d7f4" d="m165 366 15 2-1 3c-5-.2-9.4-2.1-14-4z"/>
  <path fill="#a190c4" d="M367 332h1v2l-.1 2.4-.1 2.5.2 2.1 2 1c-2 3-2.7 3.8-6 5l-3-1c3.8-3 3.8-3 6-3z"/>
  <path fill="#614c59" d="m374 331 1 2a18 18 0 0 1-7 8c.4-4.8 2.5-6.8 6-10"/>
  <path fill="#34241d" d="m263 258 3.6 1.9 2 1 1.4 1.1-1 2-5 1v-2l-3-3h2z"/>
  <path fill="#705d53" d="M117 240c1 3 1 3 1 6l-1.9-.8-2.1-.2c-1.2 2.4-1.2 2.4-2 5l-1-2-2-1z"/>
  <path fill="#eee1fa" d="M304.7 371h4.3c-3.8 2.6-7.8 4.3-12.4 3.6l-1.6-.6h2v-2a20 20 0 0 1 7.7-1"/>
  <path fill="#5e4a44" d="M270 312v3l-2 1v2c-2.4-.3-2.4-.3-5-1l-1-3c5.8-2 5.8-2 8-2"/>
  <path fill="#3d2e31" d="M323 254c2.6 2.4 2.6 2.4 5 5l-1 2h-2v-2l-3 1v-2l-2-1zm-1 7 3 1-4 1z"/>
  <path fill="#a487bc" d="M410 208c2.8 2 3 3.2 3.7 6.6q.5 6.8.3 13.4h-1l-1-7.2q-.6-6.5-2-12.8"/>
  <path fill="#eee2d8" d="m139 224 3 2-12 5v-3c1.9-1.2 1.9-1.2 4.3-2.3l2.4-1.1z"/>
  <path fill="#f1dfd5" d="m156 161-1 3h-3l1 3h-8c2.8-3.2 6.6-6 11-6"/>
  <path fill="#f4e8fd" d="m74 38 4 1-7 7-2-3c2.1-2.7 2.1-2.7 5-5"/>
  <path fill="#bfa2e9" d="M104 23v2c-6 4-6 4-9.4 3.8L93 28h2v-2h3v-2c2-1 2-1 6-1"/>
  <path fill="#efe9f8" d="M42 342c2.7 2.7 3 5.4 4 9h-2l-2 4-1-5h2l-1-3-1-3z"/>
  <path fill="#f7f1ed" d="m133 345 4-.2h2.2l1.8.2 1 3h-2v2l-3 1-1-3z"/>
  <path fill="#dfd1ca" d="M197 298h12v2h-2l-1 4-1.7-2c-2.5-2.2-4-2.5-7.3-3z"/>
  <path fill="#faf1e8" d="m224 290 1 2c-2.2 1.8-2.2 1.8-5 3-1.8-1.2-1.8-1.2-3-3v-2c2.7-1.3 4.2-.8 7 0"/>
  <path fill="#efe4dc" d="M297 275c2.9 1.3 4.9 2.7 7 5l-3 2-2-2-3 2z"/>
  <path fill="#75615b" d="m164 220-2 3v-2l-3.1 1.6a13 13 0 0 1-9.9.4v-1a43 43 0 0 1 15-2"/>
  <path fill="#beaae0" d="M444 78c2.4 2.4 3 4.3 4.1 7.5l1.1 3c.8 2.5.8 2.5.8 4.5h-2c-.8-1.7-.8-1.7-1.6-4-1.3-4-1.3-4-2.4-5z"/>
  <path fill="#d6c2f4" d="M423 50c2.6.7 2.6.7 5 2 0 2.6 0 2.6-1 5h-4z"/>
  <path fill="#d7c1fb" d="M404 46h1v10h-3v-4c-2-.7-2-.7-4-1 2.4.3 2.4.3 5 0 .8-2.5.8-2.5 1-5"/>
  <path fill="#806be6" d="m427.2 373.1 1.8.9c0 2.4 0 2.4-1 5l-3 2c-1.1-3.4-1.1-3.4-2-7 2-1 2-1 4.2-.9"/>
  <path fill="#442f2a" d="m208 306 5 2-3 1 2 2-4 2-2-1c-.2-2.5-.2-2.5 0-5z"/>
  <path fill="#6c514d" d="M403 283h1l.2 5.4v3.1l-.2 2.5-3 1-.1-4.3-.1-2.4c.2-2.3.2-2.3 2.2-5.3"/>
  <path fill="#9b7f74" d="M90 267c2 .2 2 .2 4 1v2h-2c-.6 1.8-.6 1.8-1 4l-1 4h-1c-.1-7.6-.1-7.6 1-11"/>
  <path fill="#a687d4" d="M414 219h1l1.1 4.8.6 2.6c.3 2.6.1 4.2-.7 6.6l-2-1c-.2-3-.2-3-.1-6.6v-3.6z"/>
  <path fill="#c4aee4" d="m111 17 1 2a26 26 0 0 1-14 5c1.6-3.2 4.8-3.7 8-5l2.9-1.3z"/>
  <path fill="#7763d7" d="M357 422v1q-7.4 2.1-15 3c1-2 1-2 3-3.1 4-1.2 7.8-1 12-.9"/>
  <path fill="#816be6" d="m321 373-2 3c-3.6.2-3.6.2-7 0v-2c3.4-1.8 5.4-2.3 9-1"/>
  <path fill="#705951" d="m123 323 2 2c-.2 2.6-.2 2.6-1 5h-2l-1 3-1-8h2z"/>
  <path fill="#f1e3da" d="m147 299 2 4-7 3c.4-2.9.8-3.8 3-5.7z"/>
  <path fill="#786059" d="M292 235c1.6 1.9 1.6 1.9 3 4l-1 2-2-1-.4 2-.6 2h-2c.5-3.7.9-5.8 3-9"/>
  <path fill="#ab9286" d="m265 154 4 1h-2v2l2 1-1 3h-3c-.7-3-.7-3-1-6z"/>
  <path fill="#a68896" d="m148 120 2 1-3 1-.8 2c-1.2 2-1.2 2-4.3 3.3l-2.9.7c6-6 6-6 9-8"/>
  <path fill="#e6e1f9" d="m422 387 1 4h-2l-.9 2-1.1 2-4-1z"/>
  <path fill="#7f6ae4" d="M72 385q2 0 4 .3h2.3c.2.2.2.2 1.7.7v4l-5-1v-2l-3-1z"/>
  <path fill="#efe2f5" d="M123 338c2.6.8 2.6.8 5 2l-1 3 2 1-1 2c-2.5-1.2-2.5-1.2-5-3-.3-2.7-.3-2.7 0-5"/>
  <path fill="#604c46" d="M289 298c2.1.4 2.1.4 4 1l-3 1-1 3 3 1h-3l-1 2-2-2c.4-3 .9-3.9 3-6"/>
  <path fill="#e8d9d2" d="M172 287c0 2.6 0 2.6-1 5q-4 .1-8-1a12 12 0 0 1 9-4"/>
  <path fill="#987f90" d="M407 280h1c.2 6.2.2 6.2 0 8l-2 1-1 5h-1c-.4-5.4.9-9 3-14"/>
  <path fill="#cfbcb6" d="M202 246h1q.6 3.6.8 7.3l.2 2.1c.2 2 .2 2 0 5.6-2 2-2 2-4 3l1-9 .2-2.6z"/>
  <path fill="#dfd8d9" d="m164 246 2 1-4 4h2v2h-2l-1 2c-.7-2.2-.7-2.2-1-5 1.8-2.4 1.8-2.4 4-4"/>
  <path fill="#e9dad1" d="m127 179 2 1c-.7 2.6-.7 2.6-2 5h-2l-1 2-3-2 2.9-3 1.6-1.8z"/>
  <path fill="#b093c3" d="M386 160c1.9.3 1.9.3 4 1 2 3 2 3 2 7h-2v-3h-2z"/>
  <path fill="#f6ecfd" d="M448 86c4 2 4 2 5.4 5.6l.6 3.4-3 1z"/>
  <path fill="#c0aae4" d="m427 54 1 2 2.4.8c2.6 1.2 2.6 1.2 4 3.8l.6 2.4-3 1-2-5-3-1z"/>
  <path fill="#715b54" d="M347 297c2.2.8 2.2.8 4 2v2h-2l-1 2-4-4z"/>
  <path fill="#5e463f" d="M385 257h3c3 3.3 3 3.3 3 6h-5l1-3h-2z"/>
  <path fill="#ebddd5" d="m198 225 1 2-2 2zm-3 3 5 3-3 3-3-5z"/>
  <path fill="#f3e2da" d="m100 218 1 2h2c-.3 3.3-1 4-3.6 6.3L97 228z"/>
  <path fill="#eee8fb" d="m74 392 6 5-3 2c-2.2-1.1-2.2-1.1-4-3 .3-2.2.3-2.2 1-4"/>
  <path fill="#927ec9" d="m118 340 5 1v2l5 2-3 2c-2.7-1.7-2.7-1.7-5-4v-2z"/>
  <path fill="#e9d9d2" d="M269 308c2.6.4 2.6.4 5 1-2 3-2 3-4.6 3.7l-2.4.3c0-3 0-3 2-5"/>
  <path fill="#523d38" d="m205 307 1 2 2 1h-4v2l-5-2 1-2c2.5-.7 2.5-.7 5-1"/>
  <path fill="#e5d8ce" d="m140 304 1 3 2 1-1 2-2-1v2h-2v-2l-2-1z"/>
  <path fill="#54413b" d="m202 299-1 3c-2.6-.3-2.6-.3-5-1v2l2 1h-2l-1 2v-6c2.5-1.2 4.3-1 7-1"/>
  <path fill="#735a50" d="m323 283 2 2c-.4 2.1-.4 2.1-1 4l-6-2c2.4-2.1 2.4-2.1 5-4"/>
  <path fill="#59453c" d="m290 259 4 2v2h2l-2 4c-2.9-2.4-3.5-4.3-4-8"/>
  <path fill="#ece8e8" d="M166 253a37 37 0 0 1 4 5c-3 .3-3 .3-6 0-1-2-1-2-1-4z"/>
  <path fill="#ece7e3" d="m174 248 2 2c-.2 2.6-.2 2.6-1 5l-2 1c-.6-3.4-.6-3.4-1-7z"/>
  <path fill="#a48c83" d="M242 165c3.4-.2 3.4-.2 7 0l1 3c-3.4.2-3.4.2-7 0z"/>
  <path fill="#bfa3f4" d="M77 42h2v3h-2v2l-7 2z"/>
  <path fill="#f9fbf1" d="m121 486 1 2h3c-.2 2-.2 2-1 4h-4z"/>
  <path fill="#796bc3" d="M182 456c2 .3 2 .3 4 1-2.3 2.5-2.3 2.5-5 5h-3v-2l3-1z"/>
  <path fill="#e3def5" d="m219.4 436.8 1.6 1.2-2.3.4c-2.7.6-2.7.6-5.7 2.6l-3-1c6.4-4.2 6.4-4.2 9.4-3.2"/>
  <path fill="#e9e5fa" d="M237 429c2-.3 2-.3 4.6-.2h2.5l1.9.2-1 2c-2 .4-2 .4-4.6.6l-2.5.3-1.9.1z"/>
  <path fill="#846edd" d="m196 378 10 1-4 1v2l-4-1v-2z"/>
  <path fill="#e9e3f7" d="M51 362c4 4.6 4 4.6 4 8-2-.2-2-.2-4-1-.8-2.4-.8-2.4-1-5z"/>
  <path fill="#e1d4f5" d="M148 358c5.5.4 5.5.4 8 1 1.5 2 1.5 2 2 4a25 25 0 0 1-10-5"/>
  <path fill="#faf2e8" d="M200 314c2 1.3 2 1.3 4 3v3h-5z"/>
  <path fill="#6a554d" d="M186 224c2.7 1.2 2.7 1.2 5 3l-1 3-6-4z"/>
  <path fill="#bea7ef" d="m410 49 3 1c-.3 2.6-.3 2.6-1 5l-3-1c.3-2.6.3-2.6 1-5"/>
  <path fill="#ded4f2" d="M132 345a15 15 0 0 1 4 3v3c-3.7-1.2-4.8-1.7-7-5z"/>
  <path fill="#54413c" d="M220 319c2.5.1 2.5.1 5 1l1 3-7-1z"/>
  <path fill="#eaddd4" d="m354 311 2 2h3c1.2 2 1.2 2 2 4l-2-.6-2-.4-1 2c-1.5-2.6-2-3.9-2-7"/>
  <path fill="#5d4c45" d="M280 308v2l2 1c-3.3 1.1-5.6.8-9 0 2.5-3 2.7-3 7-3"/>
  <path fill="#f0e4d8" d="m338 296 3 2-3 4c-2-1-2-1-3-3 1.3-1.7 1.3-1.7 3-3"/>
  <path fill="#6d5749" d="m340 291 3 2h-2v2h2l-1 2c-2.5-.2-2.5-.2-5-1l-1-2 3-1z"/>
  <path fill="#a589b7" d="M406 197c2 1.4 2.9 2.5 3.4 5l.6 6h-2a32 32 0 0 1-2-11"/>
  <path fill="#aa8cb9" d="m117 144 1 2c-4.1 4.6-4.1 4.6-7 6 1.5-5.7 1.5-5.7 4.1-7.4z"/>
  <path fill="#735de3" d="M143 480h7l1 2-7 2z"/>
  <path fill="#7661d3" d="m101 407 4 1v2l2 1v2l-4-1v-2l-2-1z"/>
  <path fill="#8376bf" d="M410 394c2.6-.3 2.6-.3 5 0l-4 5h-2c.2-2.5.2-2.5 1-5"/>
  <path fill="#e5dff6" d="M429 379a10 10 0 0 1-2 7l-4 1z"/>
  <path fill="#f3e8fc" d="m161 363 5 .9 2.8.5 2.2.6v2l-3.9-.3-2.2-.2c-1.9-.5-1.9-.5-3.9-3.5"/>
  <path fill="#6a5174" d="M111 330c2.4.8 2.4.8 5 2 .8 2.1.8 2.1 1 4-2.6-1-3.8-1.6-5.2-4.1z"/>
  <path fill="#614e48" d="M207 315c3.4.3 3.4.3 7 1 1.4 2 1.4 2 2 4a29 29 0 0 1-9-5"/>
  <path fill="#755f58" d="m132 309 4 1-5 6-2-4h3z"/>
  <path fill="#4c3a34" d="m289 305 6 1-4 4-2-1z"/>
  <path fill="#6b534c" d="m331 290 8 1c-1 2-1 2-2.8 2.8-2.2.2-2.2.2-4.4-1.2L330 291z"/>
  <path fill="#6e5b52" d="M142 226v3c-2.4.8-2.4.8-5 1l-2-2c2.6-1.5 3.9-2 7-2"/>
  <path fill="#aa8aa8" d="M320 108c7.6 1.9 7.6 1.9 10 5-2.4.2-2.4.2-5 0l-1-3-4-1z"/>
  <path fill="#ddd8f3" d="m398 407 2 1-3.9 3.1-2.2 1.8-1.9 1.1-2-2 3.9-2.6 2.2-1.4z"/>
  <path fill="#8371d3" d="M97 406c3 0 3 0 5.3 1.8l1.7 2.2-1 3a16 16 0 0 1-6-7"/>
  <path fill="#7e73b6" d="M422 385c0 3 0 3-1.3 4.4L416 393c0-3 0-3 1.3-4.4z"/>
  <path fill="#8172bd" d="M126 346c4.2.5 6.2 3 9 6-4-1.3-6.2-3-9-6"/>
  <path fill="#8973c6" d="M116 336c2 1.8 2 1.8 4 4v3c-2-.7-2-.7-4-2-.2-2.6-.2-2.6 0-5"/>
  <path fill="#6b5152" d="m89 296 5 5v2c-2-.1-2-.1-4-1-.7-3-.7-3-1-6"/>
  <path fill="#9980b7" d="M406 288h2l-.9 4-.5 2.3-.6 1.7h-2c.9-6.9.9-6.9 2-8"/>
  <path fill="#efe1d7" d="m99 254 3 1-4 6c-.6-1.8-.6-1.8-1-4z"/>
  <path fill="#fdfdfc" d="m167 250 4 2-1 2 1 3c-2-.7-2-.7-4-2-.8-2-.8-2-1-4z"/>
  <path fill="#e5e2e0" d="m333 248 3 1 1 3-5 1z"/>
  <path fill="#ecdcd5" d="m202 238 2 1c.3 3 .3 3 0 6l-2 1c-.8-3.3-1.1-4.7 0-8"/>
  <path fill="#e5dad0" d="m296 226 2 3c-1.9 1.7-1.9 1.7-4 3v-2h-2v-2c1.9-1.3 1.9-1.3 4-2"/>
  <path fill="#6e5e55" d="m342 222-1 2c-2.3 0-2.3 0-5-.3l-2.8-.3-2.2-.4v-1c4-1.2 7-.8 11 0"/>
  <path fill="#eeded5" d="M387 212c3 3.8 3 3.8 3 6h-2l-1 3c-1.2-3.5-.7-5.5 0-9"/>
  <path fill="#a99187" d="M120 183a10 10 0 0 1 1 4c-1.8 1.9-1.8 1.9-4 3l-2-2z"/>
  <path fill="#a98caa" d="M176 107c-3 3-5.8 2.6-10 3 3.2-3.2 5.7-4.4 10-3"/>
  <path fill="#bf9bec" d="m203 80 2 1c-1 4.1-1.4 5.6-5 8z"/>
  <path fill="#bd9bd8" d="M244 64a11 11 0 0 1 1 4c-1.4 2.8-1.4 2.8-3 5-.7-1.7-.7-1.7-1-4 1.4-2.7 1.4-2.7 3-5"/>
  <path fill="#a38689" d="M226 64h2c-.2 2.4-.2 2.4-1 5-2 1-2 1-4 1l-1-2 2-.3 2-.7z"/>
</svg>
